<mxfile host="Electron" agent="Mozilla/5.0 (Windows NT 10.0; Win64; x64) AppleWebKit/537.36 (KHTML, like Gecko) draw.io/28.0.6 Chrome/138.0.7204.100 Electron/37.2.3 Safari/537.36" version="28.0.6" pages="2">
  <diagram name="電子サイン" id="iyMxIEhjslO946lRRzPC">
    <mxGraphModel dx="2253" dy="875" grid="1" gridSize="10" guides="1" tooltips="1" connect="1" arrows="1" fold="1" page="1" pageScale="1" pageWidth="827" pageHeight="1169" math="0" shadow="0">
      <root>
        <mxCell id="0" />
        <mxCell id="1" parent="0" />
        <mxCell id="6JD32x2VJyBAf-1BBYjt-1" value="" style="rounded=0;whiteSpace=wrap;html=1;fillColor=none;dashed=1;strokeColor=#3333FF;" vertex="1" parent="1">
          <mxGeometry x="400" y="320" width="640" height="280" as="geometry" />
        </mxCell>
        <mxCell id="6JD32x2VJyBAf-1BBYjt-2" value="FIPS環境" style="text;html=1;align=center;verticalAlign=middle;whiteSpace=wrap;rounded=0;strokeColor=none;fontColor=#3333FF;" vertex="1" parent="1">
          <mxGeometry x="370" y="290" width="110" height="30" as="geometry" />
        </mxCell>
        <mxCell id="6JD32x2VJyBAf-1BBYjt-3" value="センター通信先" style="rounded=0;whiteSpace=wrap;html=1;" vertex="1" parent="1">
          <mxGeometry x="440" y="430" width="120" height="50" as="geometry" />
        </mxCell>
        <mxCell id="6JD32x2VJyBAf-1BBYjt-4" value="実態：&amp;nbsp;pay_pf_abt_transit_sam&lt;div&gt;ALB + Lambda による実装&lt;/div&gt;" style="text;html=1;align=center;verticalAlign=middle;whiteSpace=wrap;rounded=0;fillColor=#d5e8d4;strokeColor=#82b366;" vertex="1" parent="1">
          <mxGeometry x="380" y="660" width="240" height="30" as="geometry" />
        </mxCell>
        <mxCell id="6JD32x2VJyBAf-1BBYjt-5" value="" style="endArrow=classic;html=1;rounded=0;dashed=1;dashPattern=1 2;strokeColor=light-dark(#2CB429,#EDEDED);strokeWidth=1;" edge="1" parent="1" source="6JD32x2VJyBAf-1BBYjt-4" target="6JD32x2VJyBAf-1BBYjt-3">
          <mxGeometry width="50" height="50" relative="1" as="geometry">
            <mxPoint x="499.48" y="640" as="sourcePoint" />
            <mxPoint x="500.52" y="474.99" as="targetPoint" />
          </mxGeometry>
        </mxCell>
        <mxCell id="6JD32x2VJyBAf-1BBYjt-6" value="" style="rounded=0;whiteSpace=wrap;html=1;fillColor=none;dashed=1;strokeColor=#3333FF;" vertex="1" parent="1">
          <mxGeometry x="400" y="165" width="430" height="75" as="geometry" />
        </mxCell>
        <mxCell id="6JD32x2VJyBAf-1BBYjt-7" value="決済システム" style="text;html=1;align=center;verticalAlign=middle;whiteSpace=wrap;rounded=0;strokeColor=none;fontColor=#3333FF;" vertex="1" parent="1">
          <mxGeometry x="380" y="130" width="110" height="30" as="geometry" />
        </mxCell>
        <mxCell id="6JD32x2VJyBAf-1BBYjt-8" value="※ 本件ではさわりません" style="text;html=1;align=center;verticalAlign=middle;whiteSpace=wrap;rounded=0;" vertex="1" parent="1">
          <mxGeometry x="450" y="187.5" width="230" height="30" as="geometry" />
        </mxCell>
        <mxCell id="6JD32x2VJyBAf-1BBYjt-9" value="https://xxxxxxx" style="text;html=1;align=center;verticalAlign=middle;whiteSpace=wrap;rounded=0;" vertex="1" parent="1">
          <mxGeometry x="430" y="480" width="60" height="30" as="geometry" />
        </mxCell>
        <mxCell id="6JD32x2VJyBAf-1BBYjt-11" value="" style="rounded=0;whiteSpace=wrap;html=1;fillColor=none;dashed=1;" vertex="1" parent="1">
          <mxGeometry x="580" y="370" width="320" height="130" as="geometry" />
        </mxCell>
        <mxCell id="6JD32x2VJyBAf-1BBYjt-12" value="kubernetes" style="text;html=1;align=center;verticalAlign=middle;whiteSpace=wrap;rounded=0;" vertex="1" parent="1">
          <mxGeometry x="570" y="340" width="110" height="30" as="geometry" />
        </mxCell>
        <mxCell id="6JD32x2VJyBAf-1BBYjt-13" value="&lt;div&gt;s3&lt;/div&gt;決済画像保存用" style="rounded=0;whiteSpace=wrap;html=1;" vertex="1" parent="1">
          <mxGeometry x="610" y="520" width="260" height="50" as="geometry" />
        </mxCell>
        <mxCell id="6JD32x2VJyBAf-1BBYjt-14" value="core API" style="rounded=0;whiteSpace=wrap;html=1;" vertex="1" parent="1">
          <mxGeometry x="610" y="430" width="260" height="50" as="geometry" />
        </mxCell>
        <mxCell id="6JD32x2VJyBAf-1BBYjt-15" value="新規作成&lt;br&gt;&lt;div&gt;pay_pf_infra による構築？&lt;/div&gt;" style="text;html=1;align=center;verticalAlign=middle;whiteSpace=wrap;rounded=0;fillColor=#d5e8d4;strokeColor=#82b366;" vertex="1" parent="1">
          <mxGeometry x="780" y="660" width="180" height="30" as="geometry" />
        </mxCell>
        <mxCell id="6JD32x2VJyBAf-1BBYjt-16" value="&lt;div&gt;踏み台&lt;/div&gt;&lt;div&gt;EC2&lt;/div&gt;" style="rounded=0;whiteSpace=wrap;html=1;" vertex="1" parent="1">
          <mxGeometry x="910" y="520" width="110" height="50" as="geometry" />
        </mxCell>
        <mxCell id="6JD32x2VJyBAf-1BBYjt-17" value="" style="endArrow=classic;html=1;rounded=0;dashed=1;dashPattern=1 2;strokeColor=light-dark(#2CB429,#EDEDED);strokeWidth=1;entryX=0.5;entryY=1;entryDx=0;entryDy=0;exitX=0.5;exitY=0;exitDx=0;exitDy=0;" edge="1" parent="1" source="6JD32x2VJyBAf-1BBYjt-15" target="6JD32x2VJyBAf-1BBYjt-13">
          <mxGeometry width="50" height="50" relative="1" as="geometry">
            <mxPoint x="680" y="820" as="sourcePoint" />
            <mxPoint x="680" y="640" as="targetPoint" />
          </mxGeometry>
        </mxCell>
        <mxCell id="6JD32x2VJyBAf-1BBYjt-18" value="電子サイン システム構成図" style="text;html=1;align=center;verticalAlign=middle;whiteSpace=wrap;rounded=0;strokeColor=none;fontColor=#3333FF;fontStyle=1" vertex="1" parent="1">
          <mxGeometry x="56" y="62" width="200" height="30" as="geometry" />
        </mxCell>
        <mxCell id="6JD32x2VJyBAf-1BBYjt-19" value="" style="rounded=0;whiteSpace=wrap;html=1;fillColor=none;dashed=1;strokeColor=#3333FF;" vertex="1" parent="1">
          <mxGeometry x="130" y="320" width="180" height="280" as="geometry" />
        </mxCell>
        <mxCell id="6JD32x2VJyBAf-1BBYjt-20" value="決済端末 newXXXX" style="text;html=1;align=center;verticalAlign=middle;whiteSpace=wrap;rounded=0;strokeColor=none;fontColor=#3333FF;" vertex="1" parent="1">
          <mxGeometry x="100" y="290" width="170" height="30" as="geometry" />
        </mxCell>
        <mxCell id="6JD32x2VJyBAf-1BBYjt-21" value="" style="shape=cylinder3;whiteSpace=wrap;html=1;boundedLbl=1;backgroundOutline=1;size=15;" vertex="1" parent="1">
          <mxGeometry x="820" y="360" width="70" height="50" as="geometry" />
        </mxCell>
        <mxCell id="6JD32x2VJyBAf-1BBYjt-30" value="利用チャート" style="swimlane;fontStyle=0;childLayout=stackLayout;horizontal=1;startSize=30;horizontalStack=0;resizeParent=1;resizeParentMax=0;resizeLast=0;collapsible=1;marginBottom=0;whiteSpace=wrap;html=1;" vertex="1" parent="1">
          <mxGeometry x="130" y="740" width="640" height="120" as="geometry">
            <mxRectangle x="130" y="740" width="110" height="30" as="alternateBounds" />
          </mxGeometry>
        </mxCell>
        <mxCell id="6JD32x2VJyBAf-1BBYjt-31" value="１．クライアント → Terminal API&amp;nbsp; ： サイン画像を専用APIで上げる ※１" style="text;strokeColor=none;fillColor=none;align=left;verticalAlign=middle;spacingLeft=4;spacingRight=4;overflow=hidden;points=[[0,0.5],[1,0.5]];portConstraint=eastwest;rotatable=0;whiteSpace=wrap;html=1;" vertex="1" parent="6JD32x2VJyBAf-1BBYjt-30">
          <mxGeometry y="30" width="640" height="30" as="geometry" />
        </mxCell>
        <mxCell id="6JD32x2VJyBAf-1BBYjt-32" value="２．Terminal API → センタ通信先 → core API&amp;nbsp; ： バックグラウンドでアップロード / 1m　※２" style="text;strokeColor=none;fillColor=none;align=left;verticalAlign=middle;spacingLeft=4;spacingRight=4;overflow=hidden;points=[[0,0.5],[1,0.5]];portConstraint=eastwest;rotatable=0;whiteSpace=wrap;html=1;" vertex="1" parent="6JD32x2VJyBAf-1BBYjt-30">
          <mxGeometry y="60" width="640" height="30" as="geometry" />
        </mxCell>
        <mxCell id="6JD32x2VJyBAf-1BBYjt-33" value="&lt;div&gt;３．ダウンロードの必要がある場合、開発者により踏み台サーバから s3 URL （サイン済）を抽出する&lt;/div&gt;" style="text;strokeColor=none;fillColor=none;align=left;verticalAlign=middle;spacingLeft=4;spacingRight=4;overflow=hidden;points=[[0,0.5],[1,0.5]];portConstraint=eastwest;rotatable=0;whiteSpace=wrap;html=1;" vertex="1" parent="6JD32x2VJyBAf-1BBYjt-30">
          <mxGeometry y="90" width="640" height="30" as="geometry" />
        </mxCell>
        <mxCell id="6JD32x2VJyBAf-1BBYjt-35" value="Terminal API" style="rounded=0;whiteSpace=wrap;html=1;" vertex="1" parent="1">
          <mxGeometry x="160" y="430" width="120" height="50" as="geometry" />
        </mxCell>
        <mxCell id="6JD32x2VJyBAf-1BBYjt-36" value="クライアント" style="rounded=0;whiteSpace=wrap;html=1;" vertex="1" parent="1">
          <mxGeometry x="-30" y="430" width="120" height="50" as="geometry" />
        </mxCell>
        <mxCell id="6JD32x2VJyBAf-1BBYjt-37" value="" style="endArrow=classic;html=1;rounded=0;exitX=1;exitY=0.5;exitDx=0;exitDy=0;strokeColor=#3333FF;" edge="1" parent="1" source="6JD32x2VJyBAf-1BBYjt-36" target="6JD32x2VJyBAf-1BBYjt-35">
          <mxGeometry width="50" height="50" relative="1" as="geometry">
            <mxPoint x="600" y="580" as="sourcePoint" />
            <mxPoint x="650" y="530" as="targetPoint" />
          </mxGeometry>
        </mxCell>
        <mxCell id="6JD32x2VJyBAf-1BBYjt-38" value="http://xxxxxxx:8080" style="text;html=1;align=center;verticalAlign=middle;whiteSpace=wrap;rounded=0;" vertex="1" parent="1">
          <mxGeometry x="126" y="480" width="60" height="30" as="geometry" />
        </mxCell>
        <mxCell id="6JD32x2VJyBAf-1BBYjt-39" value="※１：所定のパスに書き出し、APIはOKを返却。アップはバックグラウンド&lt;div&gt;※２：ファイルはアップ成功で端末から削除。&lt;/div&gt;" style="text;html=1;align=left;verticalAlign=middle;whiteSpace=wrap;rounded=0;fillColor=#d5e8d4;strokeColor=#82b366;" vertex="1" parent="1">
          <mxGeometry x="360" y="890" width="550" height="60" as="geometry" />
        </mxCell>
        <mxCell id="6JD32x2VJyBAf-1BBYjt-43" value="" style="endArrow=classic;html=1;rounded=0;exitX=1;exitY=0.5;exitDx=0;exitDy=0;strokeColor=#3333FF;" edge="1" parent="1" source="6JD32x2VJyBAf-1BBYjt-35" target="6JD32x2VJyBAf-1BBYjt-3">
          <mxGeometry width="50" height="50" relative="1" as="geometry">
            <mxPoint x="110" y="480" as="sourcePoint" />
            <mxPoint x="180" y="480" as="targetPoint" />
          </mxGeometry>
        </mxCell>
        <mxCell id="6JD32x2VJyBAf-1BBYjt-44" value="" style="endArrow=classic;html=1;rounded=0;exitX=1;exitY=0.5;exitDx=0;exitDy=0;strokeColor=#3333FF;" edge="1" parent="1" source="6JD32x2VJyBAf-1BBYjt-3" target="6JD32x2VJyBAf-1BBYjt-14">
          <mxGeometry width="50" height="50" relative="1" as="geometry">
            <mxPoint x="360" y="510" as="sourcePoint" />
            <mxPoint x="520" y="510" as="targetPoint" />
          </mxGeometry>
        </mxCell>
        <mxCell id="6JD32x2VJyBAf-1BBYjt-45" value="" style="endArrow=classic;html=1;rounded=0;exitX=0.5;exitY=0;exitDx=0;exitDy=0;strokeColor=#3333FF;" edge="1" parent="1" source="6JD32x2VJyBAf-1BBYjt-14" target="6JD32x2VJyBAf-1BBYjt-21">
          <mxGeometry width="50" height="50" relative="1" as="geometry">
            <mxPoint x="1120" y="440" as="sourcePoint" />
            <mxPoint x="1170" y="440" as="targetPoint" />
          </mxGeometry>
        </mxCell>
        <mxCell id="6JD32x2VJyBAf-1BBYjt-46" value="s3 画像" style="swimlane;fontStyle=0;childLayout=stackLayout;horizontal=1;startSize=30;horizontalStack=0;resizeParent=1;resizeParentMax=0;resizeLast=0;collapsible=1;marginBottom=0;whiteSpace=wrap;html=1;strokeColor=#009900;fontColor=#009900;" vertex="1" parent="1">
          <mxGeometry x="1080" y="260" width="170" height="300" as="geometry" />
        </mxCell>
        <mxCell id="6JD32x2VJyBAf-1BBYjt-47" value="・DB ID" style="text;strokeColor=none;fillColor=none;align=left;verticalAlign=middle;spacingLeft=4;spacingRight=4;overflow=hidden;points=[[0,0.5],[1,0.5]];portConstraint=eastwest;rotatable=0;whiteSpace=wrap;html=1;fontColor=#009900;" vertex="1" parent="6JD32x2VJyBAf-1BBYjt-46">
          <mxGeometry y="30" width="170" height="30" as="geometry" />
        </mxCell>
        <mxCell id="6JD32x2VJyBAf-1BBYjt-60" value="・取引ID" style="text;strokeColor=none;fillColor=none;align=left;verticalAlign=middle;spacingLeft=4;spacingRight=4;overflow=hidden;points=[[0,0.5],[1,0.5]];portConstraint=eastwest;rotatable=0;whiteSpace=wrap;html=1;fontColor=#009900;" vertex="1" parent="6JD32x2VJyBAf-1BBYjt-46">
          <mxGeometry y="60" width="170" height="30" as="geometry" />
        </mxCell>
        <mxCell id="6JD32x2VJyBAf-1BBYjt-59" value="・取引先コード" style="text;strokeColor=none;fillColor=none;align=left;verticalAlign=middle;spacingLeft=4;spacingRight=4;overflow=hidden;points=[[0,0.5],[1,0.5]];portConstraint=eastwest;rotatable=0;whiteSpace=wrap;html=1;fontColor=#009900;" vertex="1" parent="6JD32x2VJyBAf-1BBYjt-46">
          <mxGeometry y="90" width="170" height="30" as="geometry" />
        </mxCell>
        <mxCell id="6JD32x2VJyBAf-1BBYjt-63" value="・データ種類（sign" style="text;strokeColor=none;fillColor=none;align=left;verticalAlign=middle;spacingLeft=4;spacingRight=4;overflow=hidden;points=[[0,0.5],[1,0.5]];portConstraint=eastwest;rotatable=0;whiteSpace=wrap;html=1;fontColor=#009900;" vertex="1" parent="6JD32x2VJyBAf-1BBYjt-46">
          <mxGeometry y="120" width="170" height="30" as="geometry" />
        </mxCell>
        <mxCell id="6JD32x2VJyBAf-1BBYjt-53" value="・取引特定用（補足情報" style="text;strokeColor=none;fillColor=none;align=left;verticalAlign=middle;spacingLeft=4;spacingRight=4;overflow=hidden;points=[[0,0.5],[1,0.5]];portConstraint=eastwest;rotatable=0;whiteSpace=wrap;html=1;fontColor=#009900;" vertex="1" parent="6JD32x2VJyBAf-1BBYjt-46">
          <mxGeometry y="150" width="170" height="30" as="geometry" />
        </mxCell>
        <mxCell id="6JD32x2VJyBAf-1BBYjt-48" value="・端末情報（補足" style="text;strokeColor=none;fillColor=none;align=left;verticalAlign=middle;spacingLeft=4;spacingRight=4;overflow=hidden;points=[[0,0.5],[1,0.5]];portConstraint=eastwest;rotatable=0;whiteSpace=wrap;html=1;fontColor=#009900;" vertex="1" parent="6JD32x2VJyBAf-1BBYjt-46">
          <mxGeometry y="180" width="170" height="30" as="geometry" />
        </mxCell>
        <mxCell id="6JD32x2VJyBAf-1BBYjt-49" value="・s3 パス" style="text;strokeColor=none;fillColor=none;align=left;verticalAlign=middle;spacingLeft=4;spacingRight=4;overflow=hidden;points=[[0,0.5],[1,0.5]];portConstraint=eastwest;rotatable=0;whiteSpace=wrap;html=1;fontColor=#009900;" vertex="1" parent="6JD32x2VJyBAf-1BBYjt-46">
          <mxGeometry y="210" width="170" height="30" as="geometry" />
        </mxCell>
        <mxCell id="6JD32x2VJyBAf-1BBYjt-61" value="・チェックサム" style="text;strokeColor=none;fillColor=none;align=left;verticalAlign=middle;spacingLeft=4;spacingRight=4;overflow=hidden;points=[[0,0.5],[1,0.5]];portConstraint=eastwest;rotatable=0;whiteSpace=wrap;html=1;fontColor=#009900;" vertex="1" parent="6JD32x2VJyBAf-1BBYjt-46">
          <mxGeometry y="240" width="170" height="30" as="geometry" />
        </mxCell>
        <mxCell id="6JD32x2VJyBAf-1BBYjt-62" value="・KMSキー関連" style="text;strokeColor=none;fillColor=none;align=left;verticalAlign=middle;spacingLeft=4;spacingRight=4;overflow=hidden;points=[[0,0.5],[1,0.5]];portConstraint=eastwest;rotatable=0;whiteSpace=wrap;html=1;fontColor=#009900;" vertex="1" parent="6JD32x2VJyBAf-1BBYjt-46">
          <mxGeometry y="270" width="170" height="30" as="geometry" />
        </mxCell>
        <mxCell id="6JD32x2VJyBAf-1BBYjt-52" value="DB上のリレーションは行わない。（取引データができるのが後になるため）" style="text;html=1;align=left;verticalAlign=middle;whiteSpace=wrap;rounded=0;fillColor=#d5e8d4;strokeColor=#82b366;" vertex="1" parent="1">
          <mxGeometry x="1240" y="310" width="550" height="60" as="geometry" />
        </mxCell>
        <mxCell id="6JD32x2VJyBAf-1BBYjt-54" value="" style="endArrow=classic;html=1;rounded=0;dashed=1;dashPattern=1 2;strokeColor=light-dark(#2CB429,#EDEDED);strokeWidth=1;entryX=1;entryY=0;entryDx=0;entryDy=30;exitX=0;exitY=0.5;exitDx=0;exitDy=0;entryPerimeter=0;" edge="1" parent="1" source="6JD32x2VJyBAf-1BBYjt-47" target="6JD32x2VJyBAf-1BBYjt-21">
          <mxGeometry width="50" height="50" relative="1" as="geometry">
            <mxPoint x="1160" y="710" as="sourcePoint" />
            <mxPoint x="1120" y="620" as="targetPoint" />
          </mxGeometry>
        </mxCell>
        <mxCell id="6JD32x2VJyBAf-1BBYjt-55" value="" style="endArrow=classic;html=1;rounded=0;exitX=0.5;exitY=1;exitDx=0;exitDy=0;strokeColor=#3333FF;" edge="1" parent="1" source="6JD32x2VJyBAf-1BBYjt-14" target="6JD32x2VJyBAf-1BBYjt-13">
          <mxGeometry width="50" height="50" relative="1" as="geometry">
            <mxPoint x="780" y="441" as="sourcePoint" />
            <mxPoint x="860" y="410" as="targetPoint" />
          </mxGeometry>
        </mxCell>
        <mxCell id="6JD32x2VJyBAf-1BBYjt-56" value="s3 パス： /{取引先コード}/{データ種類}/yyyy/mm/dd/{DBID}_{yyyyMMddHHmmss}.png" style="text;html=1;align=center;verticalAlign=middle;whiteSpace=wrap;rounded=0;fillColor=#d5e8d4;strokeColor=#82b366;" vertex="1" parent="1">
          <mxGeometry x="850" y="730" width="600" height="30" as="geometry" />
        </mxCell>
        <mxCell id="6JD32x2VJyBAf-1BBYjt-57" value="" style="endArrow=classic;html=1;rounded=0;dashed=1;dashPattern=1 2;strokeColor=light-dark(#2CB429,#EDEDED);strokeWidth=1;entryX=0.5;entryY=1;entryDx=0;entryDy=0;" edge="1" parent="1" source="6JD32x2VJyBAf-1BBYjt-56" target="6JD32x2VJyBAf-1BBYjt-15">
          <mxGeometry width="50" height="50" relative="1" as="geometry">
            <mxPoint x="800" y="710" as="sourcePoint" />
            <mxPoint x="760" y="620" as="targetPoint" />
          </mxGeometry>
        </mxCell>
        <mxCell id="6JD32x2VJyBAf-1BBYjt-64" value="" style="endArrow=classic;html=1;rounded=0;exitX=1;exitY=0.5;exitDx=0;exitDy=0;strokeColor=#3333FF;" edge="1" parent="1" source="6JD32x2VJyBAf-1BBYjt-14" target="6JD32x2VJyBAf-1BBYjt-16">
          <mxGeometry width="50" height="50" relative="1" as="geometry">
            <mxPoint x="870" y="580" as="sourcePoint" />
            <mxPoint x="870" y="620" as="targetPoint" />
          </mxGeometry>
        </mxCell>
      </root>
    </mxGraphModel>
  </diagram>
  <diagram id="Z_BcPfd58YwrfV2DKajm" name="フロー">
    <mxGraphModel dx="1426" dy="875" grid="1" gridSize="10" guides="1" tooltips="1" connect="1" arrows="1" fold="1" page="1" pageScale="1" pageWidth="827" pageHeight="1169" math="0" shadow="0">
      <root>
        <mxCell id="0" />
        <mxCell id="1" parent="0" />
        <mxCell id="98Fyh6JIXyJ1N4a_Ak1d-1" value="クライアント" style="rounded=0;whiteSpace=wrap;html=1;" parent="1" vertex="1">
          <mxGeometry x="160" y="140" width="120" height="40" as="geometry" />
        </mxCell>
        <mxCell id="98Fyh6JIXyJ1N4a_Ak1d-2" value="TerminalAPI" style="rounded=0;whiteSpace=wrap;html=1;" parent="1" vertex="1">
          <mxGeometry x="480" y="140" width="120" height="40" as="geometry" />
        </mxCell>
        <mxCell id="98Fyh6JIXyJ1N4a_Ak1d-3" value="" style="endArrow=none;html=1;rounded=0;" parent="1" target="98Fyh6JIXyJ1N4a_Ak1d-1" edge="1">
          <mxGeometry width="50" height="50" relative="1" as="geometry">
            <mxPoint x="220" y="1160" as="sourcePoint" />
            <mxPoint x="440" y="430" as="targetPoint" />
          </mxGeometry>
        </mxCell>
        <mxCell id="98Fyh6JIXyJ1N4a_Ak1d-4" value="" style="endArrow=none;html=1;rounded=0;entryX=0.5;entryY=1;entryDx=0;entryDy=0;" parent="1" target="98Fyh6JIXyJ1N4a_Ak1d-2" edge="1">
          <mxGeometry width="50" height="50" relative="1" as="geometry">
            <mxPoint x="540" y="1170" as="sourcePoint" />
            <mxPoint x="390" y="350" as="targetPoint" />
          </mxGeometry>
        </mxCell>
        <mxCell id="98Fyh6JIXyJ1N4a_Ak1d-6" value="決済開始" style="rounded=1;whiteSpace=wrap;html=1;" parent="1" vertex="1">
          <mxGeometry x="130" y="220" width="120" height="30" as="geometry" />
        </mxCell>
        <mxCell id="98Fyh6JIXyJ1N4a_Ak1d-7" value="" style="endArrow=classic;html=1;rounded=0;" parent="1" edge="1">
          <mxGeometry width="50" height="50" relative="1" as="geometry">
            <mxPoint x="220" y="280" as="sourcePoint" />
            <mxPoint x="540" y="280" as="targetPoint" />
          </mxGeometry>
        </mxCell>
        <mxCell id="98Fyh6JIXyJ1N4a_Ak1d-8" value="決済開始 : /v1/payments 呼び出し" style="text;html=1;align=center;verticalAlign=middle;whiteSpace=wrap;rounded=0;" parent="1" vertex="1">
          <mxGeometry x="260" y="240" width="250" height="30" as="geometry" />
        </mxCell>
        <mxCell id="98Fyh6JIXyJ1N4a_Ak1d-9" value="署名を作成を待機するフラグを要求に追加する。&lt;div&gt;そのフラグ指定ありの場合、&lt;/div&gt;&lt;div&gt;署名を求めるタイプのEMV処理にて決済待機が入る&lt;/div&gt;" style="text;html=1;align=left;verticalAlign=middle;whiteSpace=wrap;rounded=0;fontColor=#009900;" parent="1" vertex="1">
          <mxGeometry x="640" y="160" width="290" height="80" as="geometry" />
        </mxCell>
        <mxCell id="98Fyh6JIXyJ1N4a_Ak1d-10" value="" style="endArrow=classic;html=1;rounded=0;exitX=1;exitY=0.5;exitDx=0;exitDy=0;entryX=0;entryY=0.5;entryDx=0;entryDy=0;fontColor=#009900;strokeColor=#009900;" parent="1" source="98Fyh6JIXyJ1N4a_Ak1d-8" target="98Fyh6JIXyJ1N4a_Ak1d-9" edge="1">
          <mxGeometry width="50" height="50" relative="1" as="geometry">
            <mxPoint x="390" y="430" as="sourcePoint" />
            <mxPoint x="440" y="380" as="targetPoint" />
          </mxGeometry>
        </mxCell>
        <mxCell id="98Fyh6JIXyJ1N4a_Ak1d-11" value="カード提示待ち画面を出す" style="rounded=1;whiteSpace=wrap;html=1;" parent="1" vertex="1">
          <mxGeometry x="490" y="300" width="170" height="30" as="geometry" />
        </mxCell>
        <mxCell id="98Fyh6JIXyJ1N4a_Ak1d-12" value="" style="shape=image;verticalLabelPosition=bottom;labelBackgroundColor=default;verticalAlign=top;aspect=fixed;imageAspect=0;editableCssRules=.*;image=data:image/svg+xml,PHN2ZyB4bWxuczp4bGluaz0iaHR0cDovL3d3dy53My5vcmcvMTk5OS94bGluayIgeG1sbnM9Imh0dHA6Ly93d3cudzMub3JnLzIwMDAvc3ZnIiBzdHlsZT0iY29sb3I6IHJnYigwLCAwLCAwKTsgZm9udC1zaXplOiBtZWRpdW07IGZvbnQtc3R5bGU6IG5vcm1hbDsgZm9udC12YXJpYW50LWxpZ2F0dXJlczogbm9ybWFsOyBmb250LXZhcmlhbnQtY2Fwczogbm9ybWFsOyBmb250LXdlaWdodDogNDAwOyBsZXR0ZXItc3BhY2luZzogbm9ybWFsOyBvcnBoYW5zOiAyOyB0ZXh0LWFsaWduOiBzdGFydDsgdGV4dC1pbmRlbnQ6IDBweDsgdGV4dC10cmFuc2Zvcm06IG5vbmU7IHdpZG93czogMjsgd29yZC1zcGFjaW5nOiAwcHg7IC13ZWJraXQtdGV4dC1zdHJva2Utd2lkdGg6IDBweDsgd2hpdGUtc3BhY2U6IG5vcm1hbDsgdGV4dC1kZWNvcmF0aW9uLXRoaWNrbmVzczogaW5pdGlhbDsgdGV4dC1kZWNvcmF0aW9uLXN0eWxlOiBpbml0aWFsOyB0ZXh0LWRlY29yYXRpb24tY29sb3I6IGluaXRpYWw7IiBvdmVyZmxvdz0iaGlkZGVuIiB4bWw6c3BhY2U9InByZXNlcnZlIiBoZWlnaHQ9IjU4My4wMDI0NDE0MDYyNSIgd2lkdGg9IjI1Mi4wMDAzMDUxNzU3ODEyNSIgdmlld0JveD0iLTAuMDAwMDA3NjI5Mzk0NTMxMjUgMCAyNTIuMDAwMzA1MTc1NzgxMjUgNTgzLjAwMjQ0MTQwNjI1Ij48ZGVmcz48Y2xpcFBhdGggaWQ9ImNsaXAwIj48cmVjdCBoZWlnaHQ9IjU4MyIgd2lkdGg9IjI1MiIgeT0iMzA1NiIgeD0iOTAiLz48L2NsaXBQYXRoPjxjbGlwUGF0aCBpZD0iY2xpcDEiPjxyZWN0IGhlaWdodD0iNTU1MzA3NSIgd2lkdGg9IjI0MDAzMDAiIHk9IjAiIHg9IjAiLz48L2NsaXBQYXRoPjxpbWFnZSBpZD0iaW1nMiIgcHJlc2VydmVBc3BlY3RSYXRpbz0ibm9uZSIgeGxpbms6aHJlZj0iZGF0YTppbWFnZS9qcGVnO2Jhc2U2NCwvOWovNEFBUVNrWkpSZ0FCQVFFQVlBQmdBQUQvMndCREFBTUNBZ01DQWdNREF3TUVBd01FQlFnRkJRUUVCUW9IQndZSURBb01EQXNLQ3dzTkRoSVFEUTRSRGdzTEVCWVFFUk1VRlJVVkRBOFhHQllVR0JJVUZSVC8yd0JEQVFNRUJBVUVCUWtGQlFrVURRc05GQlFVRkJRVUZCUVVGQlFVRkJRVUZCUVVGQlFVRkJRVUZCUVVGQlFVRkJRVUZCUVVGQlFVRkJRVUZCUVVGQlFVRkJUL3dBQVJDQUk2QVB3REFTSUFBaEVCQXhFQi84UUFId0FBQVFVQkFRRUJBUUVBQUFBQUFBQUFBQUVDQXdRRkJnY0lDUW9MLzhRQXRSQUFBZ0VEQXdJRUF3VUZCQVFBQUFGOUFRSURBQVFSQlJJaE1VRUdFMUZoQnlKeEZES0JrYUVJSTBLeHdSVlMwZkFrTTJKeWdna0tGaGNZR1JvbEppY29LU28wTlRZM09EazZRMFJGUmtkSVNVcFRWRlZXVjFoWldtTmtaV1puYUdscWMzUjFkbmQ0ZVhxRGhJV0doNGlKaXBLVGxKV1dsNWlabXFLanBLV21wNmlwcXJLenRMVzJ0N2k1dXNMRHhNWEd4OGpKeXRMVDFOWFcxOWpaMnVIaTQrVGw1dWZvNmVyeDh2UDA5ZmIzK1BuNi84UUFId0VBQXdFQkFRRUJBUUVCQVFBQUFBQUFBQUVDQXdRRkJnY0lDUW9MLzhRQXRSRUFBZ0VDQkFRREJBY0ZCQVFBQVFKM0FBRUNBeEVFQlNFeEJoSkJVUWRoY1JNaU1vRUlGRUtSb2JIQkNTTXpVdkFWWW5MUkNoWWtOT0VsOFJjWUdSb21KeWdwS2pVMk56ZzVPa05FUlVaSFNFbEtVMVJWVmxkWVdWcGpaR1ZtWjJocGFuTjBkWFozZUhsNmdvT0VoWWFIaUltS2twT1VsWmFYbUptYW9xT2twYWFucUttcXNyTzB0YmEzdUxtNndzUEV4Y2JIeU1uSzB0UFUxZGJYMk5uYTR1UGs1ZWJuNk9ucTh2UDA5ZmIzK1BuNi85b0FEQU1CQUFJUkF4RUFQd0Q3SWI0TitBajA4RWVIQi8zQ2JmOEErSXJJOFFmRHI0YytITFdLNHUvQk9nYkpaNDRGRVdrVzdFbG14bkd6b0JsajdLYTlOYVAvQVBXS3h0ZDhPTHJiMnNuMnk1czViWm1aSkxVb0c1R0Q5NVQyejA5YSt0ZGFyL00vdlo0NlNPQWk4Ri9DMjUwK1c5dC9Ddmh5NXQ0MEQ3b3RJaGJjRzRYYjhuSkpJQXgxeUtqMHZ3YjhNTlgxSjdHMzhJZUh6Y3B4c2JTTGZydDNFY0wyQlhub2R3d1RXem9YZ2E4aThBVzFuYzZscTdUdHBrY1QyalNvdXhnaTVRRlZCSFRiMTZFODk2NXpSdkJtcUo0d2h2cnl5djhBK3pESkVTeXlFYkhqVWhQazNsd29KT1c2WUpHMEtjMW45WXJhZTgvdlpmTEhvYU9sZUJmaGZybHpOYjZmNGE4SzNrMEpZU0pEcGx1eFhhMjA1K1RzZUtsZjRlZkRLSzd2TFYvRFBoVkxpemlFOXpHMm0yd2FHTTV3N2ZMd0RnOG4wcXA0YzhKYXhwVi9jd0hRN2lMUTR3Zy9zNTlTV1pKYmo3V0pQdEVSSnlxcXVYSU8wazhiU2VUZzZuOElmRkV1bytKWkh1TGUrL3RDMHRIa3VZOHdTWFVrZDIwcnhjc2R2N3ZDQTRDNEtqc2FyNnhXL21mM3NYTEU2KzErRjN3N3ZyRkwyRHdsNFprdEhVdUp4cGR2c0tqdm5aMDRyZ0pkUitGOGQxTTYvRGV4bDBTR1o3ZVRXNHRCZ2ExRHJ1RFlJWEpHVkh6QUZjTm5JQU5ldWVDdEsxR1B3NWNRYXNMaUZwNTVqRERjWEFtbWdnWW5ZalNBa0ZnUGM0NEdUaXZIWS9oZjR2MHpTNGZDc0dtVFhGa3R0TlovMm11clNMYmtPMFlFeGczajdpdElObkc3QlB0U2VJcksxcFA3Mk5SaWRKOFJmRG53NytIL0FNTlBFSGpML2hCUER1cVdlbGFiTHFRaWcwMjJIbm9pRndGZllSeUJ3ZWErSlA4QWg0cDhLLzhBb2dXbC9sYWYvR0srNi9qeDROdkwzOW1ueHQ0YjBhMnVOVTFCL0RselpXc0VZM3l6UDVCVlZBN2tuRmZqY2YyU3ZqTi8wVEh4UC80THBQOEFDdVRFWXZFd3R5eWY0bTFLbkNTZHo5aHZobDRVK0gveEwrSGZodnhaYitBZEFzb2Rhc0liOUxhVFM3ZG1pRWlCdHBJVG5HY1pycGYrRk8rQmYraEs4Ty8rQ20zL0FQaUtvL3MzZUhiL0FNTWZzLzhBdzgwblZyT1hUOVRzdER0SUxtMW5YYkpGSXNTaGxZZGlEWHBIbEN1eUZlcTRwdVQrOW5QS0tUT0Yvd0NGTytCZitoSzhPLzhBZ3B0Ly9pS1ArRk8rQmY4QW9TdkR2L2dwdC84QTRpdTY4b1VlVUt2MjFYK1ovZXliSTRYL0FJVTc0Ri82RXJ3Ny93Q0NtMy8rSW8vNFU3NEYvd0NoSzhPLytDbTMvd0RpSzdyeWhSNVFvOXRWL21mM3NMSTRYL2hUdmdYL0FLRXJ3Ny80S2JmL0FPSW8vd0NGTytCZitoSzhPLzhBZ3B0Ly9pSzdyeWhSNVFvOXRWL21mM3NMSTRYL0FJVTc0Ri82RXJ3Ny93Q0NtMy8rSW8vNFU3NEYvd0NoSzhPLytDbTMvd0RpSzdyeWhSNVFvOXRWL21mM3NMSTRYL2hUdmdYL0FLRXJ3Ny80S2JmL0FPSW8vd0NGTytCZitoSzhPLzhBZ3B0Ly9pSzdyeWhSNVFvOXRWL21mM3NMSTRYL0FJVTc0Ri82RXJ3Ny93Q0NtMy8rSXJoL2lETjhHZmhsTkZCcm5ocncvSGVTTHZTMWcwU0dTUXIwM1lDWUErcHIzTHloWG1QeDErQ2xuOFcvRGV5SVJXK3UyZ0xXZDJ3eG4xalkvd0IwL29lZlhNeXIxcmU3Si9leWtvOVRGK0gxcDhJUGlkQksrZytHZkR0eEpEekxCSm9zS1NKNlpCVGtlNHpXRS9pTDRNUi9FWmZCcDhJYUlkUU0zMlR6aG9jUGxDNExiZkt6c3puUEdjWTk2OUQrRnZ3dnVQaHZhMmRsRmRSTnA4ZGlzYzBLQS9QYy9LWGxBeHhrNytwSk9WeGdEQjhHbStCdmpNL3RHRHhFTkZjNkwvd2tJdnZ0Zm14N2ZKODRQdXh1ejA3WXpXVHhGZFJUNW45N0xVWTNzZTR2OFBQaG5IckthUzNoand1TlRkREt0cC9abHY1bXdkV3hzNlZteDZCOElaYmU1blhRUEN6UlcremVmN0poQk85aXFiUjVlV0RNQ0FWems4RE5kenJ2aHVmVXZGZWgzMFlVVzFyQmR4ek1UaGdaRlFMZ2QvdW12T1YrRm5pU1J0THU1TGV5anVOQ3R0T3RMZUFYSkl2UmJUK1l6bHR2eWJsQTJnZzRKT2NEbXRIWHJMYVQrOWtxTVRVdFBDWHdudlpiYU9Idzc0WWtlNFJwRUEwcUhvdS9PZmsrVS91NU9EZy9JMzkwMXZKOEhmQWJBRWVDdkRwQjVCL3NxRG4vQU1jcklId3d2Wi9EMHNza050QnJrdHhlWHJHTjkyMHl2TkpIRHVJd3dCbElKSXdRWEhSem52OEF3NURxVWVpMnE2cVVmVUFwOHhseDZuYm5BQTNiZHVjQURPY2NZcHF2VzZ5ZjNzVGpFNXhmZzE0RDcrQ1BEbi9ncGcvK0lxUWZCendDUCtaSThPZitDbTMvQVBpSzdJUitwL0twQkh4MEFxdmJWZjVuOTdKc2gvTkJBUFVVOHA2VW0waXM3REdGUWFQTEh2VHNlMUdQYWxZQnV3ZTlHd1U3SHRSajJvc0EzWUtOZ3AyUGFqSHRSWUJubGozcFFnOTZkajJveDdVV0FhWXhudlJzSHZUc2UxR1BhaXdEZGc5Nk5nOTZkajJveDdVV0Fic0h2UnNIdlRzZTFHUGFpd0RkZzk2Tmc5NmRqMm94N1VXQWJzSHZSc0h2VHNlMUdQYWl3RGRnOTZOZzk2ZGoyb3g3VVdBYnNIdlJzRk94N1VZOXFMQU44c2U5SjVZSHJUOGUxR1BhaXdEUkdCM05IbGdldE94N1VZOXFMQU0yQ2wyclRzZTFHRFRzQW5Ub0tPYWRzTkw1ZnZSWUI5RkZGTUFvb29vQUtLS0tBQ2lpaWdBb29vb0FLS0tLQUNpaWlnQW9vb29BS0tLS0FDaWlpZ0Fvb29vQUtLS0tBQ2lpaWdBb29vb0FLS0tLQUNpaWlnQW9xVDdOTi96eWYvdmswZlpwditlVC93RGZKcWVaZHgySTZLbCt6VGY4OG4vNzVOSDJhYi9uay84QTN5YU9aZHdzeUtpcFBzMDMvUEovKytUUy9aWnYrZVQvQVBmSm81bDNDeklxS2srelRmOEFQSi8rK1RSOW1tLzU1UDhBOThtam1YY0xFZEZTL1pwditlVC9BUGZKcFBzMDMvUEovd0R2azBjeTdoWmtkRlNmWnB2K2VULzk4bWo3Tk4venlmOEE3NU5ITXU0V1pIUlV2MldiL25rLy9mSm8relRmODhuL0FPK1RSekx1Rm1SVVZKOW1tLzU1UC8zeWFYN0xOL3p5Zi92azBjeTdoWmtWRlMvWnB2OEFuay8vQUh5YVQ3Tk4vd0E4bi83NU5ITXU0V1pIUlV2MmFiL25rLzhBM3lhUHMwMy9BRHlmL3ZrMGN5N2haa1ZGU2ZacHYrZVQvd0RmSnBmczAzL1BKLzhBdmswY3k3aFprVkZTL1paditlVC9BUGZKcFBzMDMvUEovd0R2azBjeTdoWmtkRlNmWnB2K2VULzk4bWwreXpmODhuLzc1TkhNdTRXWkZSVXYyV2IvQUo1UC93Qjhtayt6VGY4QVBKLysrVFJ6THVGbVIwVkw5bG0vNTVQL0FOOG1qN05OL3dBOG4vNzVOSE11NFdaRlJVbjJhYi9uay84QTN5YVg3TE4venlmL0FMNU5ITXU0V1oyRkZmTld1L3RkNjVvbnhHaDhQZjhBQ3M3aWZUWkwxcllYcTZxQmM3VmFFRnZzM2svZUluQkNHUVpLa0Vqbkc3cWY3WE9nYVQ0aG0wYTQwcVpiNjN2THExbmhhL3RJWk5zUmxWWFNPYVdOMjN0R3FqS3FNdUFHYjVkM3oxMGQ5ajNpaXVjMC93QWRhZmM2TnJHcVhqRFRMTFM3dWUxbmx1SEdCNVRiUzNIcjJGWXQ1OFg3Q0x4WlA0ZXN0TDFEVUwyT1lXeXp4Q05MZWFZS2p5eEpJempNa2NiaHlwQXo4Mk03WDJ2eUE3Mml1UnQvaVRZM0hqZVh3MzVFc1VzTVYzSkpkU01valVRQzBadS9RaTlUbmo3amUxZGNEa1pwZ0ZGRkZBQmlqRkZGTUF4UlJSUUFVVVVVZ0NpaWlnQW9vb29BS0tLS0FDaXZMZmkxKzAvOE1mZ2pDZjhBaExQRnRqWjNtTXJwMEQrZmR0LzJ5VExBZTVBSHZYcEdrYW5CcmVsV1dvMnhZMjEzQ2x4RVhHQ1VaUXd5TzNCb0F0VVY4cGZFZjlxRDRvMm43UkhpSDRYZkR2NGZhVDRxdU5JMDZEVVpKYnpVVGJQNWJySGs4NEhEU0FjVnpYeEsvYWwvYUsrRW5neS84VmVKL2cxb0Zqb2xqczgrZGRjRWhYZTRSZmxVa241bUZBN0gybFJYeVpwM3hzL2FpMWJUN1c5dHZnbDRlZTJ1WWxtalk2K295ckFFSEc3amcxMGY3UG43UlhqMzRnZkdQeFY4UGZIM2d6VHZDZXE2SHBrT29NdGplbTVMZVl5aFFUMCs2MmVEUllWajZRb29veFJZQW9veDdtakh1YUxBRkZHUGMwWTl6UllMSGl2aVg5a3p3YjRoMW1mVWtlNTArVzVlOWt1VmdodG44NXJxWVRUTVhraFp3ZCtTQ3JBcnVJQkdCaUxYUGdYNFJ0TlVFMnArTTlSdGJ4OVFmVmg5cnZMZmM4anlpUmxiZW1YaDNxQ0lqbEJzUUFmSXVQYjY4YStOamFkZmVKOUowYUx3UlplTGRmdnJPWjQzbmtqamFDTkNNSExEMVluOEs4L0cxM2hhRHF4U3VyYjM2dTNSTi9nYzJKck9oU2MxMDlmMHV6b2JqNGYrR3RNMUJkYjFUV3BwdExiVVJxVnZZM3R4R0xGTHh5TnNvRzBGMjNmT29kbUNzUXlnRUtSMEdwK0J2RG5pSFFwZElhd3Q0N0lYWnZBdGgrNGFHNkV2bW1aV2p3VWw4d2x5dzVKSnpuSno4dS9FTFY5YThHMkdnYVJxZXFhRmRud25iMjBxNkUwRjFKNWszbHJocG5VQkNSa2xSdkF4MUJ6WGVmQXZYTDdVdmlWcVZ4YmF4cE0xcnFzTFgybzZWWjI5MWJpS2JnQ1pGbUJ5ekVrTnRiSDZWNEZIaUNGWEVSdzhvV2s3SnJxbTkva25wMzYyUEpwWnRHZFZVbkd6ZHZWWC93QW5wMzhqMFhVZmdib21yWHRwYzNWL3FraFNXN2t1MUZ3RkdvTGNTd1N5UlRrS0NZODIwS2JGS2d4cHNiY3BJUG90TDBwSyt2Ujc0VVVVVXdDaWlpZ0Fvb29vQUtLS0tBQ2lpaWdBb29vb0FLaXZMVmIyMG50MmRrV2FOb3l5SERBRVl5RDY4MUxSUUIrZUg3YVg3Sm53MCtCSDdMV3U2bjRhMEl5YTg5OVpKSnJlcFROYzNqQXpBTmgyKzVudnRBejNyN3QrSEgvSlBQQzMvWUt0Zi9SSzE4NmY4Rk9mK1RUTmEvN0NOai82T0ZmUmZ3NFAvRnZQQzMvWUt0Zi9BRVN0QUh5cjRXOFJhVjRiL3dDQ2xmeFF1TlgxT3owdTNmd2hhSXN0N2NKQ3JObTBPQVdJQk9BZVBhdHovZ29ENC84QUMrdGZzbmVOYlBUL0FCSnBGL2R5ZlpObHZhMzBVa2pZdW9pY0tyRW5nWjRyei9VZmczNFArTm4vQUFVWitKR2tlTk5GajF6VHJYd3RhWFVNTXNqb0VsQXRWRFpVZzlIWWZqWHR2L0RBWHdFLzZKOWFmK0JVL3dEOGNwQWQvd0NCUGlmNE5pOEQrSG81UEZ1aEk2YWRicXl0cVVJSUlpWGdqZFhoM3dnMWV3MTMvZ29KOFc3elRiNjMxQzBmd3hwNFc0dFpWbGpKSGxBZ01wSTYxMlEvWUMrQXYvUlByVC93Sm4vK09WNWwremo4Ti9EbndvL2JuK0t2aHp3cnBpYVRvMXY0YXNaSTdXTjJZS3ptTm1PV0pQSkpQV21COW9VVVVVQUZGRkZBQlJSUlFBVjVuOFd2RFhnZlY3Z1h2aUc5aHN0YXRMR1ZyY2pVV3RwakVNbm9yZ3N1NzJQTmVtVmllSS9CT2dlTHZLT3M2UFphbTBYK3JhNmdWeXYwSkhGY09Ob3V2UWxUakZTYnRvNzIzOGpteEZOMWFUZ2ttL1BZK1R2RUZuZDJId3ExTFZ2K0VxMGlhVFc5SjA3N1pwdDIrNi9KalZBdTA3ODVPZHhKQjQvT3ZRdmdsNGgvNFNYNHQzYjMrdDZiZTN0aG8wVm5iSnBzZUlwNGNySVdEYjJ5eWtsV0hGZXczWHd2OEkzMTU5cnVQRFdselhPRlh6WHRVTFlVQlZHY2RnQVBvSzBiUHdib1duYWhiMzFwcEZuYTNkdkcwVVUwTUNveW8yTXFDQjA0RmZHWVhJTVZoOFRDczVMbGphNnZKM3M3dCtXdXR0ZFQ1NmhsVmFsV2pVNWxaVzB1OWJPLzU2K3BzVVVVVitnbjFRVVZtNjdlNm5aUVJ2cGVteGFuS1d3MGN0ejVBVVk2NTJ0bjZWaWYyLzR2L3dDaFRzLy9BQWIvQVAybXJVSEpYWDVvd2xXaEIyZC91ZjhBa2RiUlhKZjIvd0NML3dEb1U3UC9BTUcvL3dCcG8vdC94ZjhBOUNuWi93RGczLzhBdE5QMmN2TDcwVDlacCtmM1AvSTYyaXVTL3QveGYvMEtkbi80Ti84QTdUUi9iL2kvL29VN1Avd2Ivd0QybWoyY3ZMNzBIMW1uNS9jLzhqcmFLNUwrMy9GLy9RcDJmL2czL3dEdE5IOXYrTC8raFRzLy9Cdi9BUGFhUFp5OHZ2UWZXYWZuOXoveU90b3JrdjdmOFgvOUNuWi8rRGYvQU8wMGYyLzR2LzZGT3ovOEcvOEE5cG85bkx5KzlCOVpwK2YzUC9JNjJpdVMvdC94Zi8wS2RuLzROLzhBN1RSL2IvaS8vb1U3UC93Yi93RDJtajJjdkw3MEgxbW41L2MvOGpyYUs1TCszL0YvL1FwMmYvZzMvd0R0Tkg5ditMLytoVHMvL0J2L0FQYWFQWnk4dnZRZldhZm45ei95T1QvYWgrQlQvdEdmQ08rOEZSNjB1Z05jM01GeDl0YTIrMEJmTGNOalp2WE9jWTYxNlA0YjBnK0gvRG1sYVdaZlBOamFSV3hsMjdkK3hBdWNaT000emlzVCszL0Yvd0QwS2RuL0FPRGYvd0MwMGYyLzR2OEEraFRzL3dEd2IvOEEybWoyY3ZMNzBIMW1uNS9jL3dESThLOEMrRFBFRmwvd1VLK0kvaWE0MFRVSWZEbDU0VXRyYTMxYVMxZGJXYVVHMXpHa3BHMW1HMXVBYy9LZlN2cUt1Uy90L3dBWC93RFFwMmYvQUlOLy90Tkg5djhBaS84QTZGT3ovd0RCdi84QWFhUFp5OHZ2UWZXYWZuOXovd0FpaDhaZmlWcXZ3dDhNUWF0cFhnbld2SGNyM0syOG1uNkNna3VJMUtzZk0yOTFCQUJ4L2VGZUYvczJhWDR5OGFmdE1mRWI0cTY3NEcxYndOb3VyYVJaNmJaMm11QUpjeVBIdDNIWU9RUGs2bjFIWG5IMEgvYi9BSXYvQU9oVHMvOEF3Yi8vQUdtbjIrdWVLNUxpSlp2QzlyRkVXQWVSZFYzRlJuazQ4b1o0N1VlemZsOTZENnhUOC91ZitSMVZGR2FLek9rS0tLS0FDaWlpZ0NPYVZveWdWZHpNY0RKeDJ6L1NtNzV2K2VTLzk5Ly9BRnFXWTRudC93RGVQL29KcVdwVHUyTnJZaTN6Zjg4bC93Qysvd0Q2MUcrYi9ua3YvZmYvQU5hcGFNbjBwaUl0ODMvUEpmOEF2djhBK3RSdm0vNTVMLzMzL3dEV3FYSjlLQWZhbUJEdm0vNTVMLzMzL3dEV3BkODMvUEpmKysvL0FLMWViZkUzeGxxM2hEeEpwc1g5djZmcEdsWDhVcFdTNnNtbUtQSHN5TWhobmR2L0FBeFhNZUJ2alQ0dDF5S1dKdER0dFh1QkNid1N4M0MycWlBTVV6aHM1d3l0My9DcGJTSFk5dzN6L3dEUEZmOEF2djhBK3RSdm0vNTVMLzMzL3dEV3J6alV2SHMycmZEN1NQRVIxdVB3Y2wxSWN0TEFMa055d0M4anZ0SnppaytFbmpLKzhUYTM0aHRaOWVqOFFXVm1zQmd1bzdaWUFTd1lzTUFEdU1jK2xMbUN4NlJ2bS81NUwvMzMvd0RXb0x6L0FQUEpmKysvL3JWNWJvdmoyL3R2aEZwR3MzdXMyZG5lM0VyUlBlNmxDMGluNW53QXFFZk5oZU8zQnJ6Ti9qZDRrR2xSVFFlSlVtdTVvVFBNalc5dXF3UGxnSTFEWUo0VUhvZnZVY3dXYlBwM2ZQOEE4OGwvNzcvK3RSdm4vd0NlUy84QWZmOEE5YXZFdmhwOFJkWjFyU2RmdTduVko3MjZ0dEtrdWdYTnY1Y1VnWEl3aURjT2MvZTlLWnBIeEsxbnovQzh2L0NZV0dzU2FqTWkzV21RMjhTeVFxVUxFRWprWUl4MjYwY3dXWjdodm4vNTVMLzMzLzhBV28zei93RFBKZjhBdnY4QSt0WG1lbStQOVMxL3hEOFBKVVAySzExbTN1cGJtMVRES1NzWks4a1o0SXIxUHQwNXFrN2dRNzV2K2VTLzk5Ly9BRnFUekp2K2VTLzk5LzhBMXFtb3BpSWZNbS81NUwvMzMvOEFXcGQ4My9QSmYrKy8vclZMUlFCRkRLMGp1akp0SzQ2SFBXbUpQTEtDeVJMdDNFWkw4OEhIcDdVNlAvajRuK2kvMXBMSC9VSC9BSDMvQVBRalVwbE5XRjN6L3dEUEpmOEF2djhBK3RSdm4vNTVMLzMzL3dEV3FhaXFKSWQ4L3dEenlRZjhELzhBclViNS93RG5rdjhBMzMvOWF1RzF6eGo0dnREcUVkdDRNa2t0NHZNRWQyTlFqR1ZHY1B0NmpqbkZaZmcveDE0enUvRFdqU040UmwxQlpMYUltK2JVSWxNd0tqOTRWeGtaNjRxVzFzT3pQVHQ4My9QSmYrKy8vclViNXY4QW5rdi9BSDMvQVBXcnoveHI4UUx2UlBGMmgyVU9rYTFMQ3R5NG0relc2c2wycHQzWUxHU3czRld3VDArNGZTcnVrK0p0UTFqNGwzRmpHWmJmUzdiU1laNWJTYU5ReXpTTVNBeDZnaGNnak9PS2R4V096M3pmODhsLzc3Lyt0UnZtL3dDZVMvOEFmZjhBOWFwYUtBSUpKNW9vMmN4TGhSazRmLzYxVGc1QU5SWGYvSHJOL3VOL0twRis2UHBUQWluL0FOZGIvd0MrZi9RVFUxUXpxNWVKa1VOc1lrZ25IR0NQNjB2bVREL2xpUDhBdnNWQzNZM3NpV2lvdk1sLzU0LytQaWp6SmY4QW5qLzQrS3NSTFJVWG1TLzg4ZjhBeDhVbm1TLzg4ZjhBeDhVQWVUL0ZIWHQvanJSYmV5bjFtMnViQzN1UlBKcE5pWjVCNW5rbEZHVklJT3h2cGl2TUlkVVRTL0FYaHlmVHJuR3N5Ulh0cGR4eHhtU1JiTjJPNlJ3dklDRVpHZlUrOWZWSG1UWS8xUDV2WFA4QWhyd0xvdmhHT2RkSzBhRzJNLzhBclhMYjNjZWhac25IdDByTm9kekIxYndIYWVLL0QzaFNQUk5iV3gwelMyU1dDNGdWWlMrMU1JUVQ4dWM0SnlEM28rRzkxcW4vQUFsUGl2VGIzVjVOWHR0UGEzaWlsa2hqak81bFpuSHlLUGF1Z204RmFUSjRlbjBOZEtqaDB1Wi9NZTNna01ZM2J3K1FWd1J5QjArblNwL0RYaGl3OElXRDJlazJBdFlIa01yNWxMczdFQUVsbXlUd0JSeTZoYzgwOElSYXBmOEF3TTBYVGRLdHpKUHFMdmFQY0hwYXhNemw1VDlGQkE5MkgwUGxGem90L1krQzlBdlRxWG4yc3RoY05GYkdPVVBDR0kzTHZqVWdxU3VRR0lITmZWR2hhSmIrR3RKaDAzVHJUeWJPRUVKR1pTMk1uSjVQUFVtc0pmaFY0WCt6d1F2NGR0cFVoakVTZWE1Y2hSMEdTYzl6UTRqVHNlYS9zK1JvazJvWGw3TW4yYit5b28yV1lTN1Fpa2trbVJBdTNCNktTS3FhSHBrOXZQb2VzYWZjcEZENGkxcWN4MkRXa0kyUUhmdFlNVkxMbFVUZ0VBWnIxdUQ0YWVHN1dDN2hnOFAyMEVkMUNiZVlST1ZMUmtnbGNnK29INVZOYmVBdEVzOWVqMWlEUm9vOVFpVUpISUpHMnhqYnMrVk03VitVWTRGSEtGenp6UnRHdXZEdmlyNFVhWmVxcVhkdGEzcVNvakJnRDVUZHhYdFZjdlllQXRHMDN4SE5yc0dsZ2FwSVhQblBPemJTMzN0cWs0WFBzTzU5YTZQekpmOEFuai80K0t0S3ducVMwVkY1a3Y4QXp4LzhmRkhtUy84QVBIL3g4VXhFdEZSZVpML3p4LzhBSHhSNWt2OEF6eC84ZkZBQ1IvOEFIeE45Ri9yU1dQOEFxRC92di82RWFkQXIrYkk3cUYzQVlHYzlLamdFMEVaWHlnM3pNUVEzcXhOU2lteXpSVVhtUy84QVBIL3g4VWVaTi96eC93REh4VkVuamZ4cDBIdzlwdXBXbmlhNFMzdkpCSUV2dE5lN01iM2NaQVVOR0F3TzljRGdjRVZWK0UybCtIZGM4YXk2OXBFVVdqYWRZSWJlMTA1N2ttNGtjakRTU0lXTzBZT0FQeDdWNlhwWHcrMERSYithK3RkQnRrdkpYTWpUdWZNY0VuSjJsczdSejBHQlNlSWZoL29QaWlaWnRTMEsybnVBY2lkRDVjbjRzdUNmb1RVT090eXJuSy9FTFE5VjFIeHA0Y0UzaU43RFRwcnlWWUVzNGxqbHQ4V3NoWmpLU2NrNFlkQUFHOWE1V3c4U3c2WG9IaWpYYkR4RmEyK3Avd0JvUmkzUzd1a01sN2JXb0NCRHU1eklBNTRISmF2VTc3NGZhRnFlcXRxTjFvNlQzYlFtM0xOTTIzWVVLRWJjNCs2U000emlwckR3TDRmMHhRTFh3MXBzQi92TGJ4N2orT01tazRzU1pyYUZyRnY0ZzBheTFLMGJkYlhVS3pJZllqT0Q3anBWNnN6UmRLdC9EMm1RNmZwMWt0dFp3Z2hJaEpuR1NTZXZQVW1yM21TLzg4Zi9BQjhWWWd1LytQU2YvY2IrVlNMOTBmU29KbW1raGtUeVFOeWtaTDFZQXdBS1lCUlJSUUFVVVZGZFhVZGxhelhFekJJWVVhUjJQWlFNay9sUUJMUlhoUGg3NHFmRjN4N29rUGkzd3I0QTBLNjhKM2hNbW5XMnBheTl0cU4zYjUrU2JBaWFOQTQrWUtXNkVjMXJmOE5EWEhoNjMzK052aDM0dDhKaEIrOXVvN0grMHJOZmZ6cll2Z2U3S3RSekxZZG1ld1VWd25ncjQ3ZkQ3NGlQNWZoN3hmcE9vM1hlelc1VkxoZnJFMkhINVYzWUlZWkJ5RDNGVUlLS0tLWUJSUlJRQVVVVVVBRkZGRkFCUlJSUUFVVVVVQUZGRkZBQlJSUlFBVVVVVUFGRkZGQUJSUlJRQVVVVVVBRkZGRkFCWEkvR0RVdjdHK0UzalMvemo3Tm90N05uM1dCelhYVjVOKzFmcUowNzluanhzRk9HdTdNV0F4MzgrUlljZmxJYVRBOUMrRVdrTG9Id3A4R2FZb3d0bm90bmJnZW0yQkYvcFhXRVpGVnRLdHhhYVpad0FZRVVLSmdleWdWYXJsT2c1THhaOEpmQlhqcU4wOFFlRk5IMWdzTUdTNnNvM2NlNGZHNEgzQnpYbmlmc282Tm9GeWJqd1g0dDhXK0NwUDRZTEhWbnViVDhZTGp6RXg3WXIzQ2lqWUR3cTY4T2ZIYnduSUgwN3hCNFY4ZTJpOVlkV3NwTkx1bUhvSklTOGVmZllCN1UyOCtPZmlYd2hicko0MCtGWGlYVFl4OSs3MEFSNnpiZ2V2N2srYUI5WXhYdTJNMFlxbEpvbmxSNUY0VC9BR2pmaHY0emZ5ckh4WlkyMTUwTmpxaE5qY2cvOWNwd2ovcFhvc0Z4RmRSTEpESWtzYmNoMFlFSDZFVkY0bzhCK0d2RzlrYlR4RG9HbTYzYW5yRnFGcEhPdi9qd09LOHpIN0pmZ3ZSNVhtOEpYbmlEd0hNeHoveFRtcnl3dzU5NFdMUkVleFdyNSs1TGdlcVVWNUEvdzgrTlhoU2Zkb2Z4QzBYeGJaQThXbmlyU1RETmowOCsyWVpQdVkvd3BsNThYZmlGNFFJSGluNFJhcmMyNDRhKzhKMzBPcFIrNTh0dkxsQS80RFZxYUo1V2V4VVY1Ym8zN1RmdzUxUzVpczdyeEFQRDJwU0hhTER4RGJ5NmRQdTlNVEtvUC9BU1JYcUtNcm9yS3daV0dRd1BCcWsweVJhS0tLWUJSUlJRQVVVVVVBRkZGRkFCUlJSUUFVVVVVQUZGRkZBQlJSUlFBVVVVVUFGZUtmdGNLYjM0YWFQcEs4dHEzaWpSYkVEMTNYMFRFZmtsZTExNUg4ZFlCcW5pcjRRNldSa1RlTDdlNkkvNjk0SnB4K3FDcGxzTmJudUtqQ2dVdElPbExYTWJoUlJSUUFVVVVVQUZKUzBVQUoxN1V0RkZBR1Y0azhMYVA0dzBxZlROYzB1MDFmVDVsS3lXdDdDc3NiRDZNSzhhL1pmbW50ZkRQaTN3K0drazBmdzU0bnZ0SDBoNVdMTjlqaktGRXllU0VMdWdQb2dIYXZkNXBVZ2llV1E3VVJTekU5Z0s4Uy9aWVo3ejRLYVBxOHFiSnRjdUx6V1hIcDlwdXBabEg0SzZqOEswaHVSTFk5YW9vb3JjeUNpaWlnQW9vb29BS0tLS0FDaWlpZ0Fvb29vQUtLS0tBQ2lpaWdBb29vb0FLOFYrTVhpdlJ2RGZ4eitEUjF6VmJMU2JHT2JWYnJ6NzZaWW8vTUZxSWtHNWlCa21jNHIycXZ6NS93Q0NrbmdQeGQ4WWZpWjRTOE0rRU5FdWRkdTlJME9mVlo3YTEybHhITE9zZTRBa1o1aUhBeWVhaWV4VWR6OUZMSFVMWFU3V081czdtSzZ0NUJsSllIRG93OWlPRFZpdndKMGJ4dDhWUDJkOWFrdExIVS9FZmdlL0IzU1dUbVczRCs3Uk44cmZpRFgwUjhOUCtDcC94TzhLbU9EeFJZYVo0d3MxNE1raWZaYm5IKytueW44VS9HdWMyUDF1b3I0NCtHZi9BQVZGK0ZIakNSTGJ4SEZxWGd1Nkk1a3ZJdnRGc1Q2QjRzc1ArQktCNzE5TytCL2lwNE8rSmRzMC9oWHhOcGV2eHFNc0xDNlNSay8zbEJ5djRpZ0RxcUtUTkxRQVVVVW1jVUFMUlNab3pRQjU5KzBONGtsOEkvQXZ4N3E4REZMaTIwVzZhSmgxV1F4TXFrZlFrVTc0VWVHVzhHZkREd25vTDRFbW02WGJXMG0zcHZXTlEzNmcxelA3V0RDKytGdHI0ZjM3RDRqMTNUTkhZQTh0SEpkUnRLQjlZa2tyMUFZQXdPQjZWckF6bUZGRkZhbVlVVVVVd0NpaWlnQW9vb29BS0tLS0FDaWlpZ0Fvb29vQUtLS0tBQ2lpaWdBcnpENG5mRDN4RFA0dzBieDc0R24wK1B4ZHBkdExZU1dtcWIxdGRTczNZTVlYZEFXUmxZYmtZQTRKT1JnMTZmUlNhdU5PeDRYci93QVg3VzcwZDdQNHlmQ0hVZFBzMTRrdTRyTk5jMDREcHUzeEF1Zzkyakgxcnl6VWYyTWYyYWYyaTdXVFVQQWVyd2FSZW5KY2VIcjhFSWYrbWx0Sm5aOUFGcjdIeG5pdUU4YmZBcndGOFFjdnJmaG14bHZNNVhVTFpQczkyaDlWbWoydVArK3F5Y0MrZnVmbnQ4VHYrQ1Vmajd3K1huOEdhOXB2aXUxSEl0N25ObmMvUUE1US93RGZRK2xmTVhqVDRNZkZENEdha2x4cm5odlhQRE0wYlpqMUNPTjFqei9zVHA4cC9CcS9YNjMrRHZqbndOYmxmQW54UDFNVzZjcHBYaTJFYXJiNC91aVVsWmtIL0EyK2xPYjRzZkVYd3JwOGllUHZoZjhBMjNZb05zbC80TnVWdmtjZXB0SlFrb0hzdStvY1dpazB6OHZmaHQrM3Y4YWZobzhTUmVLNU5mc1VQTmxyc1l1bEk5TjV4SVB3YXZxajRiLzhGYjlQdUpZcmZ4MzRLbXNsT0ExOW9Vd2xBUHFZcE5wQStqaysxZXBheDhPdjJXUDJrcG5qdUxIVE5BOFJIaG9DajZIcUt0N3dzRTNuM0tzSzhmOEFpYi93U1RTUkh1dmg5NDB6bmxMRFhJY2dqMm1qL3FuNDFKUjlhZkRuOXN2NFBmRkdXSzMwZnh0cDhGOUxnTFo2bXhzNVNmN29FbUF4OWxKckQrUG43UTJxK0gvRXR2NEo4QnRwN2ErOXF0OXFXczZoKzh0ZEp0bU8yTnRpbjk1SzVCMnA5Q2VEWDVlL0U3OWlUNHlmQ2dOTnFmZys2MUt3R2NYdWkvNmJIajFJanl5RDNZQ3RyNElmRmY4QTRVYjhQUEVuaUM5c0cxRFhwYjZPeXNMVzl6aFpsalB6dU9vRWFseGpybHdPT29BUHJueExIOFZMMjJFeCtQUGlIVFoyNVdTNTBPT3p0ZDNvV0VZMmo2bWswVDR5ZnRPZkRhM1UzTVdnL0ZQUzA1ODRLSXJoaC9zdEZqZDlXVE5mTHVnZjhGQy9IMWplYjlXMHZTTlZ0R1BNQ1J0QXdIb0dCUDZnMTY3NFovYlorRm5pZ1JIWGRLMUR3cGZzZm11YlpXSVUvd0RYU0hEa2ZWYW9DNzhjUDI3TlE4UVhQdy91dFQrR2VyYVRlK0dOZC90ZTkwKzR1QjVFckpESkhHQktGeXJBeU1kckw2ZXRleStBL3dEZ3BiOEtmRkVjVVd1SnF2aEs5YkNzdDdiZWREbi9BR1pJdDJSN2xSWEpmRnY0OGVBdmhKNE84TjZ4clVSK0lWdjRrVkpkT3NKWTB3TFBlQkxjTkp0QjZiZ3Fua3NPY0FFMVU4Vy9zNGZEbnhkYXc2M3AvaDI0ajB1K2lXK3NOVTBXVU9aSVdHNUhDSERnanVpamdnakZOTzJ4TFZ6N29zNTF2cldLNGhEbU9SUTY3MFpHd2ZWU0FSOURVblN2ejAwL3dINHUvd0NHMWZHWGlMVDlTdm90RDAzUzR2RVZyRGN6UEZiM0Z6Y1c2cmJ4TWhJR0RPWEpVanBFd3J6cTE4WGZ0VGZBNjZuTWV0MytyMmdKbGFMVU50L2JrRTUrVnBCOHYrNmpaOXF0VDdrdUIrcUZGZm5aNE0vNEtoZUk5Q2tTRDRnZUFGbGpCMnZkNlc3VzhveDEvY3lqRGZnd3I2RThBLzhBQlFQNE0rT3JpSzFsOFFTK0c3MlRwRHJsdTF1djR5OHhqOFdGWHpJaXpQbytpczdSUEVta2VKclVYT2o2cFphcmJua1RXVndreUg4VkpGYU5VSUtLS0tBQ2lpaWdBb282VWdZSG9SUUF0RkZGQUJSUlJRQVVVVVVBRkZGRkFCWHd0OFdQK0NqbC93REJ2NCsrS3ZCK28rRjdiVy9EbW1UeHd4WEZwTVlicFNZa1o4NXlyZk14R01MOWErNmErVy9qeC93VDErSDN4cDE3VWZFY04zcVBodnhMZnlHYTR1N2FUem9acEQvRTBUOVArQWxhbDM2RFZ1cHJmREQ5di80Ty9FcEVpazE4K0Y5UmJBK3lhNm5rYyswZ3pHZisrZ2Zhdm9UVHRWc3RYc1k3eXh2SUwyMGtHNUxpM2tFaU1QVU1EZzErVHZ4Ui93Q0NaZnhSOEZsNS9EajJQalN4R1NCWnllUmNnZThiNEIvNEN4cndxMDhRZkZUOW5UWEpMR0s3OFJlQmIvT1h0SlBNdHcvdVViNVdIdmdpcytacmNybFQyUDFrK0Z2eFUrR1g3WUdpYXpwMm9hTHB1bzMrbFhVdHZkNlZxVUtUT3FxNVZKNHlSbmF3SDNoeUR4OWRsUDJjUjRVaGIvaFhmamJ4SDRISTVqc2t1dnQrbnFmK3ZhZmNBUDhBY1phL0dyNFhmRmJ4SDhIL0FCelkrS3ZEbDg5cnFkdEp1Y0VuWmNJVDg4Y2cvaVZ1NC9IcUJYN1NmczUvdERlSHYyaS9BVU91NlBJbHZxRU8yUFVkTFp3MHRuTGpvZTVVOGxXN2ozQkFFMUxjR21pbkg0dStOZmdDMGtmWFBEdWhmRWF6aUdUYytIN2c2ZGU3UjFKZ21Kalkvd0M3SVBwWDVTZkZiVUx6NHE2dGIzOXJhTkQvQUc1cUdwK0lCRVNBd2htdVBrM0hwa2JXWDhCWDdIL0Y3eEFQQ2Z3cjhYNnlXMi9ZdEp1cHcyZTRpWWo5Y1YrUUhoR0tRYTdCRklDRjA3UkxTMlZUL0R2QmxiL3g1eWE5REFZTll6RjA4TzNaU2VwNVdhWTZXWDRHcmlrazNGWFYrNTVyZmVFLzdQOEFrdWJPV0EvM21CR1Q5YXpENFZlNWxXTzBacFpITzFJOXBKSjlzZGEra0pJMW1VbzZCMVBWV0dRYTZ6NEMrR2JPTDR4NkJjMlZzSU5SVXppMmVIZ2lVd1NCQ0IwenVJeDc0cjZ6SDhKVk1QQ1ZXaFVVa2szWjZQVDhQeVBoY3M0Nm80cXBDaGlhVGpLVFN1bmRYZW5xdnhQQWZDUHhxOFgrQnRDWHd0ckZqYWVNUEI4Ymtudy9yOEgyaUNMazU4bHNpU0J1VHloSFBZMTdUTCsyWDRmOEdmQmUwMEw0ZHByMmg2elo2bDU5cnBHcmlLOXM3U0J3VE5Dc3h3N1JseUdVRlF5a3R5UWVPbzhKNlA4QUZpZTVqYjQwcDRIWFRtVUYwOGIyaVM2b3lmN0F0Y1hHNy9mWUN2TVBpYjRSK0h0MzhmOEF3aEw0UDBHOHRmQjdhaFl3YWxIZDdqRE81bkFsTVlabVpZeUNBQTdaNisxZkR4dzFadzlxb1BsNzJkajlKbGpNUEdvcUxxTG03WFZ6MjN3UCsySjRxOGJhRmJ3ZUlmZ2xxbXJpNGdpaXV0VTBPeWxtVzdpUXVZZ1kzVWpDK1krUG5PYzE2SkQ0L3VqYmc2TDhOL2lkYmdyeERCcERlV3ZzRWxZcVB3QUZmZFVFRWR2QkhEQ2l4UlJxRlJFR0FvSEFBSFlVL0ZjOXpyUHo2MUN4OFgrTFpYajFIOW4vQUYzV1lKeGhycVMzZ3NKeU93Zjk2UTM0a0Qycnp2eFIreFQ0czhWdVcwYjRMYWhvQWtPVDlxOFFXS29Qb3FPZHY0cTMwcjlTUHpvL09rTS9LVHcxL3dBRTZmang0ZjF0Yi9RZFJzUENraTh4VHhhNDZUUit4YUpPZndBcjYwK0hIZ2I5cWZ3cm9uOW5heDRyOENhK3lrZVhlNmpIZFNUcVBRbEZqRGZValB2WDFSUzA3c214OCtud1grMFhlNUV2anJ3THBvLzZkTkJ1SlQvNC9OU3A4SGZqZGVwL3BueHV0TFErbGg0VWh4LzQ5SlgwQmlqRlBtWXJJOEtoL1o4OGN6eC84VEQ0NStLNUg3bXhzYkszWDhqRTJQenFkdjJYM3VsSDIzNHRmRXE1UDhRaTF4TGRXL0NPSmE5dm9wWFk3SThMay9ZOThIWFp6ZjhBaUR4dnFmcUx2eFRlTUcrb0RnVm1hOSt4eDRSMFhTYnpVZkJlb2E5NFQ4VTI4VFMyZXJXMnNYRXBFaWpLaVJKSFpaRUpBREtSeU05SytoNm82NDJ6UmRRYnB0dDVELzQ2YUxzTEk4MS9aOStJMXo4V2ZnMTRYOFZYMEt3WDk5YnN0MGlmZE0wY2pSU0ZmUUZvMklIb1JYb1ZlSWZzVHdlVCt6QjRIK2JmdWp1bnlmOEFhdTVtL3JYdDlkSzJNWHVGRkZGTVFVVVVVQUZGRkZBQlJSUlFBVjVqKzB2b0k4UWZBM3hwYnc2R3V2Nm0ybHp4Mk5xTFVUeW1kbEtvVVhCT1F4QnlQU3ZUcUtUMUEvSTM0YmY4RXp2aXg0eGt0NXRlWFQvQjFnK0M3WHMzblhBWDJpanp6N015MTl3L3MxZnNRZUhQMmNOY2ZYTER4SnJPcmF4SkNZSmk3aUMya1Urc0s1emc4amN4eFgwalJVS0NSVGsyZUlmdHJhNE5CL1psOGF0ak1sN0REcDBhQThzWjU0NGpqOEhZL2hYaWY3R2Y3UG5oejRrZUYvaVBmK0w5TlcvdlI0amZTNDd5TjJqZGZzME1hTVVLbm9XTGNjaXV5LzRLRWEyTGY0ZitDOUZVYjIxTHhKQkpJaDVCaGdqa2tmUDB3cC9DdTIvWUIweWF4L1phOEtYVjFscnZWSkxyVXBwRzZ5UExPN2JqNmtqRlZHclVvVkZPbEp4YTZvenFVS1dKcHVsV2lwUmZSNm80Ynh2K3dIQzBjazNoUHhDNlAxVzExUk1xZmJ6RjVIL2ZKcndUeGwrem44UmZoMnd1cnJRcm1XR001VzgwdytlcWtkL2wrWmZxUUsvVHlnZ0hxSytwd3ZGV1BvZTdWdE5lZS8zci9nbncrTjRJeTNFKzlRdlRsNWFyN24vbWo4ZUxvekc0a053WlBPejg1bEozWjk4MWxhM2NpeXQ3VzZKd0lMeTJsSi8zWmtQOUsvV254bjhHL0JuaitKbDF6dzlaWGNoLzVlQkdFbUgwZGNOK3RmSXY3V1g3R3VnK0VmZzk0czhUK0hOVnU3UWFiYUc2YXh1UUpWWUt3T0ZiZ3IrT2ErbS8xcHdlSnd0U2pPTGhKeGFYVlh0NWY1SHg2NEx6SEI0MmxYaEpWSXFVVzliT3lhNlAvTSs3STJEb3JEb1JtblZUMGU0VzcwbXluUTVTV0JIQjlpb05YSy9Kejl5RXBhS0tBQ2lpaWdBcXZlNmhhNmRHc2wzY3cyc2JPSTFlYVFJQ3hPQW9KN2s5QlZpdm5uOXZoZE4vNFpmOFZOZmJoZEkxdTJtbVBQbUM4ODVQSjJZNzUvVE5BRzE0L3dEajNQUHBIeFYwWHdIYmlmNGcrQ2JTTzZiVDlWZ1pZN2hHUVNibzhFRjFLQndEeDgyT3g1OGU4US9HQ1krUFBnSDhiTk0xSzUvNFJUeGpFdmh2V2ROODF2SWdtbHpzYmFlQVVtRHFUNlJqMXF6b1AyaC8yMGRLKzFqL0FFMlQ0WUovYm8vMjk2L2Y5ODRyd3Bjai9nbng0Ujh2TzZQeDJCcG1QVDdkSmpINDdxQVAwNXJNOFRQNWZoelZYL3Uya3AvOGNOYUVXZktUUFhBeldQNDRrOG53WHI3NXh0MCs0YlAvQUd6YWdEeVQ5a0dEN1A4QXMwL0Q5U216ZHB3a3dQOEFhZG16K09jL2pYc0ZlV2ZzclFpRDltLzRiQUhkdTBLMWt5ZjlxTU4vV3ZVNjZsc2M0VVVVVXdDaWlpZ0Fvb29vQUtLS0tBQ2lpaWdBb29vb0ErRmYrQ2ttdWY4QUU3OEdhYkZKNWIyV2xhdHFyc0RqWis2V09QOEE3NkpaZnhyNisvWjY4TlNlRHZnVjRBMFdlRTI5eFo2SFp4elJFWUtTZVVwY0gzM0UxOEZmdHUza25qYjlwT2J3L0Z6RXRsbzNoL2FPOHR4ZUdjbi9BTDRCQjlxL1RZREZjOHR6YUswRm9vb3FDaEs4cC9hdXRmdG43TmZ4S2l4bi9pUlhUNC8zWXkzOUs5WHJndmo3WmYybDhEZmlEYTR5WnZEOStnK3B0M3BBYS93eXVUZWZEandyT1RreTZUYU9UNjVoVTEwMWNEOEFibjdaOER2QUUyZHhmUXJJay84QWJGYTc2bUFVVVVVQUZGRkZBQlZQVk5Hc05iaGpoMUd5dDcrR09WSjBqdVlsa1ZaRU9VY0FqaGdRQ0QxQnE1UlFCNHY0MytCZHhZV1h4VThSK0I1OTN4RThaMlMyaVh1cnpreFdxckdJbFNQQ2tvcXFXWURCeTJNOERqeFRYdmc5SmIrTHZnQjhDOU5zYmlUdy93Q0ZGVHhQcjJwQ0p2czgwa1JKVmR4R015VEdRa2RnNDlLKzA2VEZBQml1ZStJemJmaDk0bllkUnBkMGYvSVRWMFZjcDhWNVJCOEx2R0VwTzBKbzE0MmZURUQwQWNYK3pWR1l2MmV2aHFoWGJqdzlZOGY5c0VyMG11Qi9aOWo4ajRFL0R4QWNnZUhyRG4vdDNTdStycFd4emhSUlJWQUZGRkZBQlJSUlFBVVVVVUFGRkZGQUJSUlRaWlZoaWVSenRSRkxNZlFDZ0Q4M2JxMGwrSVAvQUFVRXQ0NHdKSXo0MEFBSTZwcDlwdWsvQWJUajNKcjlPYS9OZjloMFNmRUQ5cVNUeE5MKzhUN0ZySGlFODVFVWwzZWVTcSszeUl4L0d2MHBybGU1dXRnb29vcERDc1B4MVpEVWZCSGlHMEkzQ2ZUN2lMSHJtTmgvV3R5bzU0VnVJSkluR1VrVXF3OWlNVUFlVmZzblhUWHY3TmZ3M2xjNWIreExkVG4yWEg5SzlacjVaK0JYeHg4TGZBdndEWS9EZjRrYWovd2gzaUR3MDhsZ3I2cEU4ZHZmUUNSakZjUVM0Mk1qS1IzeUNDRFh0ZWlmSGo0YitKSFZOTThkK0hiMlJqaFVpMU9Fc1Q3RGRtZ0R1NktodGJ5QytpRXR2TkhjUkhvOFRoZ2Z4RlMwQUxSU1pwYUFDaWlpZ0Fvb29vQUs0ajQ1U21ENEsrUDVCL0I0ZjFCdnl0NUs3ZXZQL3dCb1NRUi9BYjRqc1RqL0FJcHpVZWYrM2FURkFGYjRLUkdENE4rQTR5dTByb05nQ1BUL0FFZEs3T3VYK0ZVWGtmQy93ZkdEa0pvOW11ZnBBbGRSWFV0am5DaWlpbUFVVVVVQUZGRkZBQlJSUlFBVVVVVUFGY2g4WXRmSGhiNFRlTWRYTGJUWmFUZFRLYzlDSW14K3VLNit2RFAyM05hYlJ2MlkvR1lqWUxOZlJRYWZHUFV6VHh4a2Y5OHMxSnV5QThGLzRKZStISllOZjhjYWpJcEFzOUwwclR3U1A0bVI1V0g0Wkdmclg2QjE4cS84RTd2RHNlbWZDenhWcXNXRERxbmlXN0ZzdzcyOENwYngvd0RvdHZ6cjZxcmxPZ0tLS0tBQ2lpaWdDQzZzcmUrak1kekJGY1JrWUtTb0dCL0ExdzJ1ZnMvZkRQeEtXT3ArQWZEbDJ6Y2wzMHlFTWZ4Q2cxNkJSUUI0by83R3Z3aWpsTTJuK0ZtME80L2htMGJVYnF5WmZwNVVpZ1Y4YS9HWFZmRmZnUDhBYWR2L0FJZmZENzRoZUw5UDByVDlMdDVabzU5WGt1eXQxS3k3RUJsM1lCODJMcm52WDZhR3Z5cThIZUtMZnhMKzBMOFVmSGQ5STB0bXV1M0Z3Smp6KzRzNDVHVmMrbTBMai9jRkFIbyt2ZkV2NDZlQS9qVjRGOEFhVjhVLzdlYnhOT1I1bXI2UGJPYldGY1pkaXFxWE9CSWVvKzZPZWErbUduL2FHMGhmM2R4OE8vRWFxZWtzVjdwOGpEOEdsWFA2VjhmZnNyZUt0Ui9hQS9iTDB6eEhxdGxGQWZEM2h5UzQyUUFtTkdjaFU1UFE3YmdmWGFUWDZSVnBHS2U1RW5ZOFViNHcvRzNSM0ExTDRMMm1wb0Q4MG1pZUpJVzQ5bGxSVFZ5Mi9hZTFDMFhHdmZDRDRoYVF3SHp5VytteFg4UStoaGtaai8zelhyOUZVNEU4elBJbi9iUytGVmpKNWVzYXZxUGh1Y0RMUmEzbzEzYU12MTN4Z2ZyWFM2QiswNzhKZkU3S21uZkVmdzFOSTNBamsxS0tKeWZRSzVCSjlxN1dhQ0s0UXBMR2txbitGMUJGY3hySHduOEUrSVF3MVB3am9kL3U2bTQwNkp5ZnhLMHVRZk9kcllhclphcEY1dGxlVzkzRjJlQ1ZYSDVnMTVoKzFmNGhzL0R2N08zajZTN3VJNEd1OUp1TEMyUno4MDA4eUdPT05SM1ptWUFBVmlhait5TDhJdFFZdXZnbXkwNlhPUkxwY2t0a3dQcm1GMXAzaG45bFQ0ZCtHTmV0TlhYVDcvVjd5eWZ6TFFhM3FseGZSMno5bWpTVjJVTU94eGtkcVhJeDg2UFJmQmxuSnAzZy9RclNWUEtsZ3NJSW5UKzZWalVFZnBXeFJSV3lNZ29vb3BnRkZGRkFCUlJSUUFVVVVVQUZGRkZBQlh5Yi93QUZGZGMreC9EcndicG0vYXQ1NGhpbmtYZGpkSEJGSklSK1lXdnJLdmczL2dwanJKazFmd1hwY1pMRzEwM1VyNWtIUHp1c2NFSjl2bWMxTXRocmMrai9BTmhuUTMwTDlsZndDa294TGQyalh6SDFNMGp5QS9rd3IzbXVaK0dmaGRQQlB3NThMZUgwKzdwV2wyMWxuMTh1SlZKL1N1bXJtTndvb29vQUtLS0tBQ2lpazcwQWNsOFhmRzYvRFg0VytMZkZaakV6YU5wZHplcEV4d0pIU05tVmMrN0FEOGEvS1g0Y2FIZjJQN091dTNrRnJMUHFXcDJ3aHdpNWFTUzd1VkEvOGhJT2ZTU3Z1ai9nby80dy93Q0VWL1pXMStCWmZLbjFtNnR0TWpIZDl6NzJVZjhBQUkzL0FDcndYdzdjSDRXZnN6K0w5WUVxdGNXMWk5cmJ5S01BTWtRaWovRlhZci93Q21nTjMvZ2w5NGNIMkg0bWVKeUE2M21wUTZmREo2cENySGoyL2VMK1ZmYzlmT3YvQUFUL0FQQlE4Ri9zdWVGQzZGTHJWekxxczVQVmpJNTJIL3Yyc2RmUlZieFdoZzl3b29vcXhCUlJSUUFVVVVVQUZGRkZBQlJSUlFBVVVVVUFGRkZGQUJSUlJRQVVVVVVBRmZuTCsxMU8valg5c2pTL0R5ZnZJMlhSTkZaT3dXUzZhNWMvaUZVSDJyOUdxL083dzdaUDQrLzRLS21kdjM5dkQ0bnVYTGRRb3NMTEFIdGlTUmF6bnNYSGMvU2VpaWlzRFVLS0tLQUNpaWlnQW9vb29BK0VQK0NrUGlGZFM4ZmZCL3dlYlJ0UmdXOW0xeTZzVkdmdEN4QUJZOGVyQVNyL0FNQ3J6ZjhBYWx2VDRjL1pnOFArSHJWQ0wzWHJ1M2dXSmZ2T1dMVE9meGJHZmRxdC90SVg5MThUL3dCdURWckN3dmhaanczcFZycEZ0Y2pueTdtY3EyUjdyNXpuL3RrUldqOFc5Tmk4Yy90YmZCSHdXRkVsbnA4MzlxendkUnRSdDR5UFRFR1B4TlVnUHVmd0I0Y1R3ZjRHOFA2RkdBRTA2d2d0Y0FmM0kxVS95cmVvb3JvUnpoUlJSVEFLS0tLQUNpaWlnQW9vb29BS0tLS0FDaWlpZ0Fvb29vQUtLS0tBQ2lpaWdCSkhFY2JPM0NxQ1NUMnI4OS8rQ2ZWek40NS9hTjhTK0paeHZCMDIvd0JTSkkrN05lWDVKYjhVaVVmU3Z0YjQwNjBmRHZ3aDhhNm1IOHRyVFJydVVPUDRTSVd3YStWLytDWFBobVcyc2ZIV3RUUjRYeTlNMDJOKzJVdHpLNCt1Wmx6V1V6U0I5NDBVVVZpYUJSUlJRQVVVVVVBRklXQ2pKT0FPOUxYbm43UTNqUi9oNThEdkhYaUdHVHlybXgwaTRlQjg0SWxLRlkvL0FCNWxvQS9QZjRBM1VQeEYrUGZqWHhVWW51UnFQaVM1dVVsN0xIRUdNYi9odjIvOXRCWG92N09kcWZpVCszbjQvd0RFcEJleDhLNmIvWjhCUFJaVHRqL3BPYTUzOWpIUUY4TStCRTFHOGRJWXJiVHZPZVFuSCt1WXpPNVBzcXhyL3dBQU5laC84RXpkTm0xUHdiOFFQRzF3dUpmRU92dmh5T1dXTWJ2eUJsWWZnYXVPNU1uWkgyZlJSUlhRWWhSUlJRQVVVVVVBRkZGRkFCUlJSUUFVVVVVQUZGRkZBQlJSUlFBVVVVVUFGRkZGQUhoSDdjV3JTNlorekg0d2h0bTIzV3BDMjB5SmM0TG1lNGpqWlI5VlpxcGY4RStkUFdMNEQzZXFySHNUV3ZFR29YNkRHUGs4d1JKK0FXSlFQcFhGZjhGSTlhbHN2aGo0UXNZSEtTVCtJSTdrNDlJSVpaTW4yQndmd3IyejlqencrM2hyOW1INGIyanBza2swZUc3WWU4dzgzLzJlc0o3bXNkajJPaWlpc3l3b29vb0FLS0tLQUN2ay93RDRLWGVLWk5HL1p1ZlJiWWszM2lQVmJYVElvMTZzTnhrYi93QkZnZjhBQXErc0srQnYrQ2gyc1NhNThiZmhGNFZnbENtelc0MWwxWS9LclpBalpoN0dJL3JRQngzaUtTSDRlL3NpK01yaUFsWTd5M2ZUN2NucVZiRnVmd0xlYXc5bXI2bi9BR0xmQmErQmYyWlBBbGh0eE5jV1g5b1RFakJMenNaZWZvSEEvQ3ZrSDlySVh0eDhKUGh0NEEwbUpqcWZpWFViZUtPMkIrWnpnWVEvOXRKVS9LdjBkMERTWWRBMFBUdEx0MUMyOWxieDIwYWpzcUtGSDZDdFk3bWN0aTlSUlJXeG1GRkZGQUJSUlJRQVVVVVVBRkZGRkFCUlJSUUFVVVVVQUZGRkZBQlJSUlFBVVl6UlJRQjhCZjhBQlQ3eERKRHFQaFd4aGtHYkRSOVJ2cGt6Mm5hSzBRL1g5NCtQeHI3bCtFT3E2ZHJud3E4SDMra3VqNmJjYVJhUGJsT2dUeVZ3UGJIVEhiRmZELzhBd1UxK0g5MWQzZmg3eExHbitnWCtueWFCUGNOOXkzbEV5WE52bnNBN0k2WlBBelhpSDdLdjdmWGlMOW5Ld2k4RmVLOUlsMTN3dmJURUpIdTh1ODA4RS9NcWJ1SFhPVHNiR01uQkZjMDl6V094K3Z0RmVXL0J2OXBuNGMvSGUwOHp3bDRpdDdtOEM3cE5NdVQ1TjNIOVltNUk5MXlQZXZVUWMxSll0RkZGQUJSUlJRQWhyOHh2amRxNi9Fajl0UHgxZFhiRCt5UER0cGJhQ2ttZUl3eWg1bVBwai9TQm42VittODB5VzhMeXlzRWpSU3pPeHdGQTVKTmZrLzhBQWpSVitObmlYeDNxdHhkejJ5K0tOUzFHZno0d040dHlNQnhudUdrUUQ4YWFBM2ZCbXVYM3h1L2ExK0NTYWtzS1Q2Zll0cmswVUNsVWkrYVNhSmNaUElSWU1udWEvVERzSytCUDJGUERFR3RmdE9mRlh4TkVoa3NOQnRvdEFzWGZuYW9Lb01lNFMyR1QvdGU5ZmZkYlEyTXA3aFJSUldoQVVVVVVBRkZGRkFCUlJSUUFVVVVVQUZGRkZBQlJSUlFBVVVVVUFGRkZGQUJSUlJRQmsrSy9DbWtlTi9EMTlvZXUyRU9wNlRleG1LZTF1RjNLNm4rUkhVRWNnaklyODd2MmtQMkdoNFY4UWVGdEs4Rnp0NGxqOFFYa3RyWjZOcXJoTG0yTWNMeXQ1ZDVrSFp0VEFXUUVBNDlhL1NldktkZmpqMXo5cC93Rlpzd1A5aWFKcWVyRmV1SGthRzNqSjlQbGFiOHF6a2xZcU81K1BYaW40VCtKZmh6NG9hMldIVS9EZXZXemI0N0RVUWJTN1VqcVlwUmhKY2RpaHlld3IzNzRLLzhBQlNqNGxmQ2llMTBieHZiTjR4MGkzeEcvMjdNV29STC9BTmRjZk9SL3Rnayt0ZnFiNCsrR3ZoZjRvYUZMby9pclE3TFhOUGNmNnE3aURGRC9BSGticWplNmtHdmkzNDEvOEUxUHRNTWx6OFA5VGl2YktOU1kvRHZpRjJZeDk5dHZkRDUwSG9yWkdlcHJBMlBvejRJZnRoZkRMNDlRcEZvT3ZSMldzY2J0SDFURnZkQS83SUp3L3dEd0FtdmJLL0JUNGdmQXp4QjhPTmNhenY4QVQ3L3d2cXl0dWhzTllBamFUbnJEY0xpT1hIcUN2YkFOZXUvQnYvZ29IOFdmZ2RlMjJqK0pIazhXYUxiZ0k5aHJSWVhTSjI4dWY3MzAzYmhpZ0Q5anFLK2QvZ1grM1Y4TGZqZkhCYXc2c1BEZXZ5RUovWkdzc0luWnYrbWI1MlArQno3VjlENUJvQThuL2F2OFl0NEQvWngrSVdzUm5iT21rVFc4VFp3UThvOHBTUGNGd2Z3cjR3L1psalQ0ZGZCbTkxNjhnU05OTDBVM0N2MFlxZk1tY0gwTy9JK2dXdlovK0NtL2lTV1A0SzZCNE9zN2hJNy9BTVdhOWJXWGxzZnZSS1M3SDZCL0p6OWE4TStMZDNGNEUvWkYxK1dHNGR2N2JtUzFnRGNGVUxMRUZIMVNKbS80RWFhQTlkLzRKaStHWjdQNEhheDRtdThtNDhSYTFQY0J6L0VrZUV6L0FOOWlTdnNHdk1QMllmQ1E4RGZzKytBdEc4cnlYaDBxR1NSTVlJa2tIbVBuMzNPMWVuMTBSVmtZUFZoUlJSVkNDaWlpZ0Fvb29vQUtLS0tBQ2lpaWdBb29vb0FLS0tLQUNpaWlnQW9vb29BS0tLS0FDdkh2aDRHMXo5cS80bDZreDNSNlBvV2xhUkg2Qm5hZTRmOEE5Q1Q5Szlpeml2TGYyYzdlTzgxSDRwNjhCdmsxSHhoZHdDVDFqdG80cllMOUEwY241bXM1N0Z4M1BaNktLS3dOVHlUOXBxMThPYXI4T29kSDhTV01Xb3dhdHFkcmFRVzhsc1ppN0NUenBOb1VFZytURE1janNEWDUxZUovMmJaYm5UNGJ2VFkyczlMbmRSWjJPdkswbW1URjVaTW1DNEg3eTJqMkNJcnZJTEZ1L0JQNkpmdEorSDlZMVh3cnArb2FKWXpYMTVwYzg4d05wazNGc1pMV2FFWEVTRC9XTW5tL2Q2N1dZakpBQjhNOEZlSkxyUk5PWFRMT1dQeFQ0YWpOeW5rM2gyWGx0Q3N5eG9qbGhpUWt1ZmxjSVFvNm5HSytlekhFMThQVVRwN1cvcnlPcWxDTWxxZm16NG8rRVY1b3NFRnpMYlhlZ201WWlCTlZHTGVmR0NSRGRBQkdJenlyYlNQV3ZRdmh2KzJaOGJQZ0FZOUpqMXFXOTArSkFJOU0xK0w3VEVGL2hLTVNHQzQ2Ylh4aXYxZitFSGd2Uk5mK0IyamFicXVqMmwvcEYra3QzOWd2SWhOR0VtbGVSVnd3eGdLNEE5QUJpdkJ2aXovd1RoMExWa3VMcjRmYW1taUZtTC84SS9yS0c3MHhzOVFoUDd5SDZxVGpzQlh1MDVPVUZKN3M1bm83SHczL0FNTDE4Wi90UGZHelE5VThiM0MzdHBwaVN5cFoyY1hsVzlqRUYrWjFVYzVCMnRsaVNTQU05QlgxSHFmZ2xQMmpQRm5nTDRlYWJDYm53LzRidW85UThXendnL1o3ZDFUSXRmTTZGMkxTQXFPUURuakZjMTRQL1kvOFM2UDhVYkQ0ZWFsWjZENFJ0dFcwMmZVZFExSHc5ZFRYVnkxckU4Y2JLalNnR011MGlxQ2NnRGNRTTlmdjd3RDhQOUIrR1BoaTAwRHczcDBXbTZaYkxoWTR4OHp0M2QyNnN4NmxqeWE2SXh1WnQyT2dqUllvMWpSUWlLQW9VREFBSGFsb29yWXlDaWlpbUFVVVVVQUZGRkZBQlJSUlFBVVVVVUFGRkZGQUJSUlJRQVVVVVVBRkZGRkFCUlJSUUJCZlhrV24yVnhkVHVJNElJMmxrZHVpcW95VCtRcnpUOWp5Q1EvczhlRnRSbkJGenJBdU5YbUxkV2U0bmttSi9IZUswZjJoZGJIaDM0RitQZFFMYlREb3QxdDkyTVRLb0h1U1FQeHJ0UGh2NFpqOEZmRHp3eDRmaUcyUFN0TXRySlIvMXppVlA2VmpVTklIUjBVVVZrYUJYRStOdmczNFU4ZnpyYzZycHJMZWpBYThzWjVMV2FSUVFkanZFeWwxNCs2MlFPb3dlYTdhaXBsRlNWcEs0YkZmVHRQdHRKc0xheHM0RXRyUzJqV0dHR01ZV05GQUNxQjJBQUFxYzB0RlVCNFg0T3ZrOFZmdE4vRXZVVlF0SDRmMDdUdkQ4Y3A2YjJEM1V3SC9BSCtqQi8zUlhyMWVQZnN4MjMyN3d0NG44Vk9kMG5pbnhMcU9waHYrbVN5L1o0dnc4dUJUK05ldzVyb2pvakdXNFVWZ2VHdkgzaDd4bHFPdFdPaWFyQnFWem8xd0xTL1NCdHdnbEl6c0o2WngxeG5CNDYxdjFSSVVVVVV3Q2lpaWdBb29vb0FLS0tLQUNpaWlnQW9vb29BS0tLS0FDaWlpZ0Fvb29vQUtLS0tBUEcvMnFydU4vaDFwT2hNTjhuaUh4SHBPbEluOS9kZVJ5T0Q3RkluRmU4Z1lHQndLOEwrTGx1dXUvR2I0SzZJeWVhaWF2ZWF4SW1PRlcyczVOckg2U1N4ZmlSWHV0Yzg5eldPd1VVVVZCWVVVVVVBRmNYOGFQR1IrSHZ3azhZZUpGYmJMcG1sWE56RjIvZUxHZGcvNzZ4WGFWNHgrMVhKSHFQdzkwcndzNStieFRyK242UHRIOFViVGlXYi9BTWhSU1VDWnMvQkh3ei93aFB3ZThHNkxJREhKWjZWYnBLRzdQc0JmUC9BaWErTHYyMmYyL0JwLzIvd0Y4TXI4TmRmTkJxWGlDM2IvQUZSNkdLM1lkVDFCY2RPM1BJKys5WjBPeThRNkxkNlRmdytkWVhjTFc4MFFkazNJd3dSbFNDT0QySXI4alAyOC93Qm1qd2wrenQ0bzBCZkNsN2VHRFdZNXBtMDY4YnpQc3dSbEFLeWRTcDNIaHNuNWVwelc4dEZvWkxWbmUvOEFCS3o0a3RwWHhYOFRlRXJ5NFprMTJ4RjNEdk9kMXhDMlQrSlIzT2Y5aXYxRXI4Sy8yWC9IUStGM3g2OEMrSmJ1UnJQVFk5VFNDNnVHQkNDQ1ErWEtjOXdxdVNmcFg3cUE3aGtIT2VhSVBRY3R3b29vclFnS0tLS0FDaWlpZ0Fvb29vQUtLS0tBQ2lpaWdBb29vb0FLS0tLQUNpaWlnQW9vb29BOGtodmpyWDdYZHRacXU2UFFQQjBrelA4QTNaTHU3VmNmOTgyb1A0MTdoM3J3L3dDQzl1MnIvSGI0eitJU3Y3cU81MDdRb21QL0FFd3R2TmNmbmNpdmNhNXBhczJqc0ZGRkZTVUZGRkZBQlhoZnhWZ1BpbjlvMzRWYUlQbXQ5R3Q5UjhSM0Nkc3FpMjBSUC9BcDJ4OURYdWxlRitFTHovaEt2Mm0vaVRxT0FZUEQybmFkNGZpWWM1ZGc5M0wvQU9qb3dmOEFkRlZIY1Rka2V2ZGEvSWIvQUlLWCtPMThWZnRLM0dsUkVtSHc5cDhGZ1IyTWpBek9SLzM5VWY4QUFhL1hrKzlmaEg4VU5RdXZqUDhBdEVlSUpiSEZ4YzYvNGdlQzEybklZUE41Y2Y0WTIxcFBZeml0VDlPdjJZLzJkUENPdmZzaStDL0R2aTNRTFRXSXIrM2JVNWZ0RWVKRWttY3VHUnhoa0lRcU1xUjByNmR0TFpMSzFodDR5eFNKRmpVdWNzUUJnWlBjMVU4T2FKQjRhOFA2WnBGcUF0dFlXMGRyRUIyVkZDajlCV2hWcFdJQ2lpaXFBS0tLS0FDaWlpZ0Fvb29vQUtLS0tBQ2lpaWdBb29vb0FLS0tLQUNpaWlnQW9vb29BOEx1L0VGLyt6bDhSZkZldGFwcHQ1cVh3NDhUWE1lcFRhaHAwRFR5NlJlK1drVXBtalVGakM2eHh0dlVIYVFjam5OZTdlRy9FK2tlTU5IdDlXMFBVclhWdE51RkR4WGRuTXNzYmoySXByQU1wVWpLbmdnOURYa0hpTDRCdG8rcjNuaVg0WTZ3M2dQeE5jSGZQREhINW1sMzdmOEFUeGE1QzVQOTlOckRyazFsS0Y5VVdwZHozV2l2RS9EMzdSWjBIV0lQRHZ4UzBqL2hCdGJsSWp0OVQ4enpOSTFCL3dEcGpjWStRbi9ubkp0YnRrMTdVa2l5SXJJd1pXR1F5bklJckhZMUhVVVVVQUlhOEkvWmt0WTd6d3g0bzhWcXhsYnhUNG0xSFV4SWY0b2xtTnZEajIyUUtSL3ZWNkw4Wi9HRGZELzRTK01QRWFmNjdUTkt1Ym1JSHZJc2JiQi8zMWlzVDRHK0ZaUEJId2Q4R2FGT25sM0ZqcE52Rk1ucEo1WUxqL3ZvbXRJSXptZEw0cDA2OTFqd3hxOWpwMTJ0aHFGMVp6UVcxMnlsaERLeUZVZkE2NEpCL0N2ekYrQTM3RmZ4QStGMzdWM2dxUHhSby9uNkphWEwzNmF4Wkh6YlIvS1JuVUZzZklTd1g1V0FQcG12MU5veFdqamNoT3dVVVVWWWdvb29vQUtLS0tBQ2lpaWdBb29vb0FLS0tLQUNpaWlnQW9vb29BS0tLS0FDaWlpZ0Fvb29vQUtLS0tBS0d2ZUg5TThVNlJkYVZyRmhiNm5wdDBoam10THVNU1J5S2V4VThHdklFK0dYalQ0S3NibjRYYW1OWThPUnJ6NEcxNjRZeFJnZHJPNU9XaFBvajdrNTdkdmJxS2x4VEduWTRuNGEvSHp3NzhRZFJiUXAwdWZEUGpHRk4xejRhMXBQSnUwOVdRZEpVOUhRa2ZTdlRLODgrSVh3cThNZkZHd2p0dkVHbUpjeXdIZGEzMFRHSzZ0SDdQREt1R1JoNmcvWE5jQmI2cjhUdmdXWW9yNUxuNHJlQ0lnUWJ5RlFOZHNVN2JrR0Z1bEhxdTEvWnUrTGcwYUtWemEvYXZ1STd6NGRhVjRZYVFvM2l2eEJwMmlsUWVYaWFjU3pLUHJEREtQeHIxSUFLTUFZQTdWOC90NDEwLzhBYUorTS9nRzc4T1dtb3orR3ZDTFhlcDZoZVg5ak5heGk3ZUV3d1FxSkZVdEl1OTJPQjh1T3ZOZlFGWERZbVc0VVVVVnFRRkZGRkFCUlJSUUFVVVVVQUZGRkZBQlJSUlFBVVVVVUFGRkZGQUJSUldGNDE4ZGFEOE9mRDgrdCtJOVNpMHZUSVNGYWVVTTN6SG9BcWdsaWZRQW1wYlVWZGxSaktjbEdLdTJidEdhOE4vNGJaK0RQL1E0SC93QUZkNS84WnBmK0cyZmd4LzBPQi84QUJYZWYvR2E1dnJlSC93Q2ZpKzlIci8yTG1mOEEwRFQvQVBBWC9rZTQwVjRkL3dBTnMvQmovb2NEL3dDQ3U4LytNMGY4TnMvQmovb2NELzRLN3ovNHpSOWJ3LzhBejhYM29QN0Z6UDhBNkJwLytBdi9BQ1BjYyt4b3J3Ny9BSWJaK0RIL0FFT0Ivd0RCWGVmL0FCbWovaHRuNE1mOURnZi9BQVYzbi94bWo2M2gvd0RuNHZ2UWYyTG1mL1FOUC93R1grUjdqUm12RHY4QWh0bjRNZjhBUTRIL0FNRmQ1LzhBR2FQK0cyZmd4LzBPQi84QUJYZWYvR2FQcmVIL0FPZmkrOUIvWXVaLzlBMC8vQVgvQUpIdU5GZUhmOE5zL0JqL0FLSEEvd0RncnZQL0FJelIvd0FOcy9Cai9vY0Qvd0NDdTgvK00wZlc4UDhBOC9GOTZEK3hjei82QnAvK0F2OEF5UGNjMFY0Y1AyMmZneVNCL3dBSmdmOEF3VjNuL3dBWnIyRHc3NGkwM3hib2xuckdrWGtkL3B0NUdKWUxpSS9LNi96SDBOYVFyVTZydENTZm96a3hHQXhlRVNsaUtVb0o5MDErWm8wVVVWdWNJVVVVVUFGRkZGQUJSVFc2Vmw2cGV6dGR3Mk5tK3k0a0Jra2xLN2hGR08rUFVuZ2ZqNlVtN0ZSaTVPeU5haXNuVGJ5ZUc5azArOGxXV2NMNXNVb1hiNXFkRHg2ZzhISHFQV3RQTkpPK3dTaTR1ekgwVmplSmZFQytIYkNPNE1EWERTVEpDa1NOZ3N6SGpGWmRsOFJ0T2tndURlQjdLYUdkN2RvVDg1TEwxSXgxRlM1eFRzMmJSdzlXY09lTWJvNjJpdVZ0Zkg5aEpxbDFhUzdvVmpaMWlsd1NKZGk3bnh4eGdZNDYxT1BIMmpZeWJsMUpqU1VCb21CSVk0WHQxUHBTVlNMNmplR3JSM2d6bzZLenJIV2JTLzB3YWhGSXd0TnBmekpGS2ZLT3A1N1ZtSHg1bzRRbjdSSmtNZ0MrUys1dC93QndnWTV6aW01eFc3SVZHcEp0S0x1anBLSzVlZngzWkZyQTIwY2x6SGN2S0dmYVFZMWpHWFlxUmsxYnRQRmxocUVDeld5M004VERJZU8zY2pwbjA5NlBhUjdsdkRWa3J1TE4ydm1ML2dvVC93QWtPdGYrd3RCLzZCSlgwN1h6Ri93VUovNUliYS85aGFEL0FOQWtybXh2KzdWUFJuclpCL3lOY04vamorWitibEZGRmZuSi9WSVVVVVVBRkZQamhlVlhLSXpoRjNzVkdkcTVBeWZRWkkvT21VQUZGUG1na3RwV2psamFLUmVxT3BCSDFCcGxBQlJSUlFBVitxSDdGZjhBeWJkNFV6MS8wbi8wb2tyOHI2L1Uvd0RZcS81TnU4S2ZXNS85S0pLOTdKdjk0ZnArcVB6YmozL2tXUS94cjhwSHVORkZGZmFuNEFGRkZGQUJRZWxGQjZVQVZyMjdqc0xXVzRtWUpGRXBkbTloWE9hbGJYVWZoUFdiMXBIaTFDNGdlWWxlR2pBWEtvUG9QMUpyUnVpZFcxZExVWU5wYUVTejk5MG5WRS9EN3gvNERXaHFjYVBwMTBzanJIRzBUQm5jNFVBanFUV1Q5NjUweGZza3U3L0k1M1NMVzZ1UEIya1hLdVp0UmdoV1pIa1BMOGNvVDZFY2ZrZTFkSFkzc2QvYVJYRVJ6SEl1NGUzdFVPaXhwQm85akhHNlNJa0NLSFE1VmdBT1FmU3FrQS9zalYzaHh0czcxaThaSFJKZXJML3dMR2ZxRDYxTVZ5cEdsVnFyT1M3TnRDZUpkTTB5K1MybTFPYzI4ZHZJSGlZeitXQS9ZOWV2cFdiSG9maGUyK3gzMFU4TUNvV1NPWkxyQWtKUHpBblB6SE5XZkY5amEzWXNKYjIvUzBodDVmTlZIVGQ1amdISGZQSEp4WExKNFQwU05WdFcxOUNGZ2RKZmxBM0x2OHhpRG5DbnBucng2VkUvaStFNmNQclRYN3hyeVNadldYaDN3M0pkWDhFVW91SjBTUVRocHl4aTh3WWM5Y0FudWF4SnREOFBhekRzc05RK3lSczZ4K2RQS1NKaWdLcUUzTnp0UGJIY1ZlMGFYUkxEVGRSczdmWFlIa3Y1U1JLeVlaVEp3QmpQUHRXWC9ZZmh5Ti9KT3ZSYklvMGlrakNnWk1SeWNIc0NlU0IrZFpPelMwUjJRbE9Nbis4bHBhMmovSTdlMWkwKzcwdHRITjJsOHFRL1o1VkVvTGtBWU9jY2c4L3JWWWVCZEpEUXQ1Y3ZtUk9zZ2s4dzdpeWpDNVBzT2xWUERzZWkrR28xaSszMjA5M2NicHZ0QkFWblZzdHlmVGdrZlN0U0x4Wm84OXVKbzlRaGVNdHRCVThrajI2MXVsR1M5NDgyVHEwNXYyVGRuNUZPSHdSYVdLb2JHU1NDVkVhRVBJVElBakhMZ0FuR1Q2MXM2YnBzR2syVVZwYW9Jb0lsMnFvL245YXowOFdhY0Zua2t1STRvSTVmS1dVdmtNUmpQVHBna0NzL1UvaUpZNlpxRTlvYlM3dUhoYmE3d29DdWNBNHpuMElwL3U0Nms4dUpyZTVadit2K0NkYlh6Ri93VUovNUliYS85aGFEL3dCQWtyNmRyNWkvNEtFLzhrTnRmK3d0Qi82QkpXT04vd0IycWVqUFJ5RC9BSkd1Ry94eC9NL055aWlpdnprL3FrS1drb29BK2cvQTkzb1Z2NFB1VnR0VDhKd1Mvd0RDT0JydU84MHlhZWVPWDdWSHVhWjFoWU1NYmZsQko1WGdZNDVQeFZwZmgvVkc4VTNtbi8yZGRpeDhPMk53aytsUnREQUxscm0xamxaVUlVZzRrY0VNb3hucG12TXJQVTdtd2p1NDdlVm8wdW92SW1BL2pqM0syMC9pcW44SzFQRFBqenhCNE5qdW85RTFlNjB4THJiNTYyNzdSSmpwbjF4WFlxMFhibWpvajUyV1hWWUtjcWRWdVQ3dnUwL3cyUjNIN1ExeDRkZngzcWtWaHArcDIrc3JNbjJxNXVMK09XM2svZEwvQUt1SVFxeWM0NnUxZVZHdWs4Ui9FanhQNHZ0UHMydGE1ZWFuQnZFbXk0azNEY0FRRCtwcm1xd3F5VTVObzlQQlVaMEtLcHozWG5mK3ZRS0tLS3lPOEsvVS93RFlxLzVOdThLZlc1LzlLSksvTEN2MVAvWXFJLzRadThLZlc1LzlLSks5M0p2OTRmcCtxUHpYajMva1dRL3hyOHBIdU5GR1JSa1Y5c2ZnSVVVWkZHUlFBVUhwUmtVWkZBR0xiMmwvcGN0MHNFTUZ6RExNMHdaNVNqRGR5UWZsT2NIb2ZURkxkcGYzMXRKYno2YmJTd3lxVmRHdVRnZy84QXJaeUtNaW81ZWh0N1M3dTFxWTFtbDlZV3NWdmI2WmF4UVJLRlJGdVRnQWY4QXB0NWFhaHFwZ2ptaGh0WWttU1ZuU1V1M3luSUFHMFl5UjE5TTF0NUZHUlJ5NldIN1gzdWEydnpNZlZQRGtXcWFsWTN6VHp3eldtNEtJaU1FTjF6a0gwckliNGJhZTBjaWZhTHJEZVlGK1pmazh3NWZISGZwejJycjhpaklxWFRpM2RvcU9KclFpb3hsb2NvL3c5c25tTWh1TGdONTBjL0czQk1Zd2kvZDZEMHFJZkRXeEVaVDdWZC82cVNMTzVjNGRzdWZ1OVQwK2xkaGtVWkZMMlVPeGYxeXYvTWN1bmdLemhlOGFPZWRUY3hpTThJU2dDN2ZsSlhJNHFTSHdSYTI5M1kzRUZ4Y1FQYVcvMmRkbTNETDZrRWRmZXVreUtNaW43S0hZWDF1dTk1SEhOOE5MS1NHS0I3MjlhR050L2xsMXd6YnR4SitYcVQvS3R2Uy9EOEdscGNBRnAzdUptbmQ1UXBKWTR6MkhIRmExRkNwd1hRVXNWV2tyT1JHWksrWXYrQ2d6RS9CQzE0NC90YUgvQU5BZXZwbk5ZSGpqd1JvbnhFOFBUNko0Z3NZOVEwMmZCYUdUSXdSMElJNUJIcURtb3hGTjFhVXFjZDJqb3kzRlJ3V01wWW1hdW9TVDA4ajhaY21qbjFGZnFEL3d4UjhIL3dEb1dwUC9BQVlYUC94eWovaGlqNFFmOUMxTC93Q0RDNS8rT1Y4bi9ZdGYrWkg3Ui9yOWwzL1B1ZjNML00vTDdKOWFNbXYxQi80WW8rRUgvUXRTL3dEZ3d1Zi9BSTVSL3dBTVVmQ0Qvb1dwZi9CaGMvOEF4eWoreGEvOHlEL1g3THYrZmMvdVgrWitYMlRSazErb1AvREZId2cvNkZxWC93QUdGei84Y28vNFlvK0VIL1F0Uy84QWd3dWYvamxIOWkxLzVrSCt2MlhmOCs1L2N2OEFNL0w3Sm95YS9VSC9BSVlvK0VIL0FFTFV2L2d3dWY4QTQ1Ui93eFI4SVA4QW9XcGYvQmhjL3dEeHlqK3hhLzhBTWcvMSt5Ny9BSjl6KzVmNW41ZlpOR1RYNmcvOE1VZkNEL29XcGY4QXdZWFAvd0Fjby80WW8rRUgvUXRTL3dEZ3d1Zi9BSTVSL1l0ZitaQi9yOWwzL1B1ZjNML00vTDdKOWEvVXY5aTRzdjdPUGhUUEdmdFAvcFJKVlVmc1UvQ0FIL2tXWmY4QXdZWEgvd0FjcjJUdzlvT25lRk5FczlJMG0wU3kwNjBqRWNNRVF3cUtLOVBMOHZxWVdxNXphMnNmSThUY1Q0WE9jSkhEMElTVFVrOWJkbXVqZmMxZHg5YU54OWFqOHo2MGVaOWErZ1B6TWszSDFvM0gxcVB6UHJSNW4xcGdTYmo2MGJqNjFINW4xbzh6NjBBU2JqNjBiajYxSDVuMW84ejYwQVNiajYwYmo2MUg1bjFvOHo2MEFTYmo2MGJqNjFINW4xbzh6NjBBU2JqNjB1NCt0UmVaOWFQTSt0QUV1NCt0RzQxRjVncFE0UGVnQ1hmVGhKVVFOR2FBSVdrOThDb21tQTZWK0tWRmZmOEErcWYvQUUvL0FQSmYvdGp6dnJuOTM4VDlxek1hYVpqNjErSzFGTC9WUC9wLy93Q1Mvd0Qyd2ZYUDd2NG43VWVjZldqemo2MStLOUZIK3FmL0FFLy9BUEpmL3RnK3VmM2Z4UDJvODQrdEhuSDFyOFY2S1A4QVZQOEE2ZjhBL2t2L0FOc0gxeis3K0orMUhuSDFvODQrdGZpdlJSL3FuLzAvL3dESmYvdGcrdWYzZnhQMm84NCt0SG5IMXI4VjZLUDlVLzhBcC84QStTLy9BR3dmWFA3djRuN1VlY2ZXanpqNjErSzlGSCtxZi9UL0FQOEFKZjhBN1lQcm45MzhUOXFQT1ByUjV4OWEvRmVpai9WUC9wLy9BT1MvL2JCOWMvdS9pZnRSNXg5YVBPUHJYNHIwVWY2cC93RFQvd0Q4bC84QXRnK3VmM2Z4UDJvODQrdEhuSDFyOFY2S1A5VS8rbi8vQUpML0FQYkI5Yy91L2lmdFI1eDlhUE9Qclg0cjBVZjZwLzhBVC84QThsLysyRDY1L2QvRS9hanpqNjBlY2ZXdnhYb28vd0JVL3dEcC93RCtTLzhBMndmWFA3djRuN1VlY2ZXanpqNjErSzlGSCtxZi9ULy9BTWwvKzJENjUvZC9FL2Fqemo2MGVjZlg5YS9GZWlqL0FGVC9BT24vQVA1TC93RGJCOWMvdS9pZnRTSmo2NXB3bVBldnhVb28vd0JVL3dEcC93RCtTLzhBMndmWFA3djRuN1hyS0Q3VklKRGpwbXZ4TW9wLzZwLzlQLzhBeVgvN1lQcm45MzhULzlrPSIgaGVpZ2h0PSI1NzAiIHdpZHRoPSIyNTIiLz48Y2xpcFBhdGggaWQ9ImNsaXAzIj48cmVjdCBoZWlnaHQ9IjU0MjkyNTAiIHdpZHRoPSIyNDAwMzAwIiB5PSIwIiB4PSIwIi8+PC9jbGlwUGF0aD48L2RlZnM+PGcgdHJhbnNmb3JtPSJ0cmFuc2xhdGUoLTkwIC0zMDU2KSIgY2xpcC1wYXRoPSJ1cmwoI2NsaXAwKSI+PGcgdHJhbnNmb3JtPSJtYXRyaXgoMC4wMDAxMDQ5ODcgMCAwIDAuMDAwMTA0OTg3IDkwIDMwNTYpIiBjbGlwLXBhdGg9InVybCgjY2xpcDEpIj48ZyB0cmFuc2Zvcm09Im1hdHJpeCgxIDAgMCAxLjAyMjgxIC0wLjA2MjUgMCkiIGNsaXAtcGF0aD0idXJsKCNjbGlwMykiPjx1c2UgdHJhbnNmb3JtPSJzY2FsZSg5NTI1IDk1MjUpIiB4bGluazpocmVmPSIjaW1nMiIgaGVpZ2h0PSIxMDAlIiB3aWR0aD0iMTAwJSIvPjwvZz48L2c+PC9nPjwvc3ZnPg==;" parent="1" vertex="1">
          <mxGeometry x="670" y="300" width="60.51" height="140" as="geometry" />
        </mxCell>
        <mxCell id="98Fyh6JIXyJ1N4a_Ak1d-13" value="" style="endArrow=classic;html=1;rounded=0;" parent="1" edge="1">
          <mxGeometry width="50" height="50" relative="1" as="geometry">
            <mxPoint x="540" y="362" as="sourcePoint" />
            <mxPoint x="220" y="362" as="targetPoint" />
          </mxGeometry>
        </mxCell>
        <mxCell id="98Fyh6JIXyJ1N4a_Ak1d-14" value="応答：ステータス &quot;processing&quot;" style="text;html=1;align=center;verticalAlign=middle;whiteSpace=wrap;rounded=0;" parent="1" vertex="1">
          <mxGeometry x="260" y="332" width="250" height="30" as="geometry" />
        </mxCell>
        <mxCell id="98Fyh6JIXyJ1N4a_Ak1d-15" value="カード処理されたか定期ポーリング" style="rounded=1;whiteSpace=wrap;html=1;" parent="1" vertex="1">
          <mxGeometry x="130" y="430" width="120" height="30" as="geometry" />
        </mxCell>
        <mxCell id="98Fyh6JIXyJ1N4a_Ak1d-16" value="" style="shape=curlyBracket;whiteSpace=wrap;html=1;rounded=1;labelPosition=left;verticalLabelPosition=middle;align=right;verticalAlign=middle;" parent="1" vertex="1">
          <mxGeometry x="110" y="440" width="20" height="320" as="geometry" />
        </mxCell>
        <mxCell id="98Fyh6JIXyJ1N4a_Ak1d-17" value="" style="endArrow=classic;html=1;rounded=0;" parent="1" edge="1">
          <mxGeometry width="50" height="50" relative="1" as="geometry">
            <mxPoint x="220" y="480" as="sourcePoint" />
            <mxPoint x="540" y="480" as="targetPoint" />
          </mxGeometry>
        </mxCell>
        <mxCell id="98Fyh6JIXyJ1N4a_Ak1d-18" value="決済取得 : /v1/payments 呼び出し" style="text;html=1;align=center;verticalAlign=middle;whiteSpace=wrap;rounded=0;" parent="1" vertex="1">
          <mxGeometry x="260" y="450" width="250" height="30" as="geometry" />
        </mxCell>
        <mxCell id="98Fyh6JIXyJ1N4a_Ak1d-19" value="応答：ステータス &quot;processing&quot;" style="text;html=1;align=center;verticalAlign=middle;whiteSpace=wrap;rounded=0;" parent="1" vertex="1">
          <mxGeometry x="260" y="500" width="250" height="30" as="geometry" />
        </mxCell>
        <mxCell id="98Fyh6JIXyJ1N4a_Ak1d-20" value="" style="endArrow=classic;html=1;rounded=0;" parent="1" edge="1">
          <mxGeometry width="50" height="50" relative="1" as="geometry">
            <mxPoint x="540" y="540" as="sourcePoint" />
            <mxPoint x="220" y="540" as="targetPoint" />
          </mxGeometry>
        </mxCell>
        <mxCell id="98Fyh6JIXyJ1N4a_Ak1d-21" value="" style="endArrow=classic;html=1;rounded=0;" parent="1" edge="1">
          <mxGeometry width="50" height="50" relative="1" as="geometry">
            <mxPoint x="540" y="760" as="sourcePoint" />
            <mxPoint x="220" y="760" as="targetPoint" />
          </mxGeometry>
        </mxCell>
        <mxCell id="98Fyh6JIXyJ1N4a_Ak1d-22" value="応答：ステータス &quot;wait_signature&quot;" style="text;html=1;align=center;verticalAlign=middle;whiteSpace=wrap;rounded=0;fontColor=#3333FF;" parent="1" vertex="1">
          <mxGeometry x="260" y="730" width="250" height="30" as="geometry" />
        </mxCell>
        <mxCell id="98Fyh6JIXyJ1N4a_Ak1d-23" value="署名を求めている意味のステータスを返却するようになる" style="text;html=1;align=left;verticalAlign=middle;whiteSpace=wrap;rounded=0;fontColor=#009900;" parent="1" vertex="1">
          <mxGeometry x="620" y="790" width="330" height="40" as="geometry" />
        </mxCell>
        <mxCell id="98Fyh6JIXyJ1N4a_Ak1d-24" value="" style="endArrow=classic;html=1;rounded=0;entryX=0;entryY=0.5;entryDx=0;entryDy=0;fontColor=#009900;strokeColor=#009900;exitX=1;exitY=0.5;exitDx=0;exitDy=0;" parent="1" source="98Fyh6JIXyJ1N4a_Ak1d-22" target="98Fyh6JIXyJ1N4a_Ak1d-23" edge="1">
          <mxGeometry width="50" height="50" relative="1" as="geometry">
            <mxPoint x="540" y="750" as="sourcePoint" />
            <mxPoint x="470" y="710" as="targetPoint" />
          </mxGeometry>
        </mxCell>
        <mxCell id="98Fyh6JIXyJ1N4a_Ak1d-25" value="&lt;div&gt;サインが必要な取引だった&lt;/div&gt;&lt;div&gt;→ 専用の待ち画面を出す&lt;/div&gt;" style="rounded=1;whiteSpace=wrap;html=1;" parent="1" vertex="1">
          <mxGeometry x="490" y="610" width="170" height="40" as="geometry" />
        </mxCell>
        <mxCell id="98Fyh6JIXyJ1N4a_Ak1d-26" value="サインの入力が必要です" style="rounded=0;whiteSpace=wrap;html=1;" parent="1" vertex="1">
          <mxGeometry x="670.51" y="610" width="60" height="140" as="geometry" />
        </mxCell>
        <mxCell id="98Fyh6JIXyJ1N4a_Ak1d-27" value="利用者がカード提示" style="rounded=1;whiteSpace=wrap;html=1;" parent="1" vertex="1">
          <mxGeometry x="490" y="560" width="170" height="30" as="geometry" />
        </mxCell>
        <mxCell id="98Fyh6JIXyJ1N4a_Ak1d-28" value="" style="endArrow=classic;html=1;rounded=0;" parent="1" edge="1">
          <mxGeometry width="50" height="50" relative="1" as="geometry">
            <mxPoint x="220" y="710" as="sourcePoint" />
            <mxPoint x="540" y="710" as="targetPoint" />
          </mxGeometry>
        </mxCell>
        <mxCell id="98Fyh6JIXyJ1N4a_Ak1d-29" value="決済取得 : /v1/payments 呼び出し" style="text;html=1;align=center;verticalAlign=middle;whiteSpace=wrap;rounded=0;" parent="1" vertex="1">
          <mxGeometry x="270" y="678" width="250" height="30" as="geometry" />
        </mxCell>
        <mxCell id="98Fyh6JIXyJ1N4a_Ak1d-30" value="署名待ちを検出した&lt;div&gt;→ 署名手書き入力を提示する&lt;/div&gt;" style="rounded=1;whiteSpace=wrap;html=1;" parent="1" vertex="1">
          <mxGeometry x="70" y="780" width="180" height="50" as="geometry" />
        </mxCell>
        <mxCell id="98Fyh6JIXyJ1N4a_Ak1d-31" value="" style="shape=image;verticalLabelPosition=bottom;labelBackgroundColor=default;verticalAlign=top;aspect=fixed;imageAspect=0;image=data:image/png,iVBORw0KGgoAAAANSUhEUgAAAPAAAABsCAIAAADbk6j9AAAgAElEQVR4AeS9d1RT2bv/f+hd7F0sYFfsY++9YEHpvdpAFEXpioio2NtYxt5BpElLJT0nIR0C6T05aXTJv78bjuOdOwOf9eF+Z+7MZ/1mvVdWsuewz47ndZ7z3s9+NgCy4vXqT5s0n9Yqi1dLylYLy9bKKrZIP69VlSxVfVkuLtvMKgvX8T410RGjhnsUFBQMGTIkIiLCycmpoKCgt7fX8q//67VY/k1Z++m1WL79Ub29Pf1Kr4cGKaMeMv1TpDcOavCQ3gDp2yF9Z586+t63QZBZD5k6Oro6Ojo72zs629u7Otu7Ott6utq7u9p7Lb29lq5eC7R5+8phw8bFxSTbATa7t2yaO9GrU05vIuRyUVH8+lBRXZASEaSoC5AhgiXI0D9KjAgRI0J+tEtRYX0Kl6AiJKjIgSRFR0nRUTJM9A+11gYL60NlGGu7EBEhw8ZJsQlaSjL3a4SckKQFT0twyeKGZDV4TkfPUlBzRZSi2ndn0uJXLpoCjLQHxrkC49xth9gCQxwc3Ryc7GzsAABwdHEc5zV27qLZi1cu2Lx9rd++rcC/DTRy0viRRUVFQ4cOjYiIcHBwyM/P//bt27/i+d9EGT7se0eD+Jne3m+DkfXu6/32j5EVt97BjN/yrdfy7duv6u372Mfs/7wE/x0UYKC7LdqNW5cPGzYuMf6ki6PTQb/dfxPQURD1MERJkGMjhPUhClycGB2jIiW1IuMh+jkxLqUFkywhnVXSzovJWU3oMyxE1pn45RsXD584BBjnBozzANwAwBkA3O0c7AAbJwdnT8+ho8eN8Znr89P6pVv81u/Yvyk40j8qPngQQI8fM/zq1Wuenp7h4REODo6XLhXA/5TfvvX2J8u3nkHKerX66aqrq7tf9fR8G4x6e7ot/yz19A5q/N3dFqt6fq+eb5Y+9VqJ77tt+1C2Pj17LV3dFu2GLT95eo6Ji0l2tLM/sHvn3wR0pAQZrCFGKRoiJegIPS1ZQThmZGbwkcdEuNNyaq6QlMvFZLaQCuiI7NvnN+1a5TJtFDDSFfCwBYbYAZ6OwBAHW3cHRw9nNw9X9zFjxkyfNX3x8oWbd6/zD98TGn8gNP7AsZOxx07EDQLoMSM9CwuvenoODQ+PtLNzOH8+r62to729839GiN98GkS0/bedyf+P+7Q+YXr/h4OD/VlPb39GzWIxtbe1dRqMHdL1m5cNHTo2NjrJDrDZt3P73wK0HBMprD2kwISq8TFiZKQQGSvGHhdgTnDrU6SU/BZ8Pp9YREMUPLh8aNcaT69hwBgPwMMBGD/CbcxQVwcAsAcAT1fnMSNGDHH3mDNn9pJli9ZvXrNz75aAcL+YY0GJKWGJJ8Jij4VFxAUNAugJY0cUFd0YOXJ0dHQsANimpp5pbRVyODwut6k/NXM5fC6nZTBq5XL6EY8r6Fccdssgxeew/1Ea3PjZ7NbfisVpYXH4LA6fwWpisHhWcZoYnKZGThOD28Tk8pgcDo/PEskZazYsHjlyYmL8SWcHx4C9fn8T0FFaXIwMEarFJ8gxiS218Xr6+RbUWQV4rZVQxMZcf333aMAOH6/hwHAXYIQb4OEIDPWws7MBbAGr3N2cxo0dOd1nynzf2Vu2bdh7YFdQ2IHIuMD4o6HHUqKOpkTGHQ/xC9ixY9/mQQA9ZoTntWtFP4BOSjrBZLJJJAqN1tiPQAYNZA1GbBrIoYHcP4pKYf0ZYlIpDCql8R8jBpXCHNT3olBY5N+KyiRRGSQqg0hpJFL7BDKIIIMANhJBBgmkNxAIFJDAayWvWrdw1KhJCXEpDrZ2f5eHlqOjdbh4SU2YFnfUQDmtI2coCLm0slRmbX7xw2NxB3y9+wzGGE9giBPgZAO4OdvZ2QGADWDnYDt2/Oi582ctW75o2/b1AcF7w6MCEo9GJp+KTz4Vfyw5Ou5wcEDonp37NqzatHTlxqWDAHrUMM/Cy9eGDR0ZFRkLAHYnkk9x2E0glU4kUPoTlUgAByk6Ed+PKCRmv6KSWYOQ9a74pwE9iPF/p5nKIv8qEpVFpDKJ4A+xiKBVJBqbRGORaUwCmUKlEbktpFXrFo4cOTE2OskWAP4uDy1Hx+iwh3XoI1DDCYiQpiHkvL28o+7Z0cqnKfPGAj4jgdFugLsd4O7o6Ok+1NlhCAA4Oji7jJ4wdo7vnJ9WLd20bZ1/kF9UXGBsYvCRpIikk7FJKTHxiSEhYfv89m5eu2GZ75JZvktnz108A5AWr1cWb1IVr1WUrJZ+WS3+slZRvkVWslb5eamibLmgfDOzLBzifeLTkJPGjb5x/fbIEWNgoJOSTrJZTSDYSKHS+1MjxRoOGYNR/5GYQmb+SWqkkP9RGsT3IpOZJDKTRPlvESlMIoVBoDB+g/UPoNlkGgtPIpOpRBaPtGL1wpGjxifEJTs7OIcdOjh30oROOdiEz+Wiovn1IaK6ACUiWFEXKEMESxEhUkTodyG/v5F8T9uFSZBWSVHhUpQ1ZydGRYtRMWJUtAQVLUFGSZGRUmSE7IdQkTJUlBwdI0PHytCxcnScChlnJqbosClS5CklIT//6BIJ5amSUzbOA/B0AjxdgWGebu5u7oCNg72D69Dho30XLVr80+J1G9f6B+xNPBp94tTh48mxCYdD4xOD4xKCQsP3+flt3rx51Zo1S5ct853vO3P2/OmTZ0wCJJ83yD5vln1eJy9do/iyRlG6TvNli6J4rax0qaRieXPl5sbycD33kwBETh4/uqjourv7kOjoOFsbh6TjKRwun0yhgTRWbT2GAjJwBCoFZOFJNBKV8bUWTSDRmUx+ZSUChwOZTD4IcnA4kMMRgCCHSmXV1TVQqSwSqZFCYcJqbZXX1eHweBqDwUehSGy2gEpl43AgFkslkRh9P8WmUFhUKptAoKPRZCqV3djYTCQ2stmCxsZmKpVNJjP5fBkKRaLTm6hUNonEQCAIdHoTicSAzwWCbBBkI5EECoVJJNKpVBaFwsRiKQxGMwpF5PFEFAoTjSaBIJtEakQg8FgshUbjNjY24XAgEkloaKCSSI3wAVQqi8MR0GhcPB5kMJobGqgIBB4EOZWVCCqVBX9ZPB5sbGyiUJgkUiMIsqlUFgZDbmigUqksKpXFYDSDIJdG4zEYfCqVXV2NodF4ZDKTTGYSiY1oNJnNFpBIjL7Bs63f7rd+w/qeSaZahcaSSRQGrZFHAVkEEp1IbgRpHFojlwoySBQy2EhatfanUaPHxkQnOtu77d+5Z/6UMd1qIp94sQmd0IIMFtcfUiFDFXVB8vpgOSJEjgiRIUJl37EOkyKs6kM5XIyEFSFGRoiQ0WLMYQHqsAAZL6yPliCilOgobUMUhItW1AfrsFEaTJS0PkyKiFLjjmgISQp0oh53WIOKV2GSFfgs0ufU9MMregygpUe0dKm3jQPg4G4D2APDx3sOHes2y3fy4uVzdu/ZGnBof1xsxPFjCUnHE44djTt2JObY0Rj/A7t27di4bs1PPy31XbRg7vy5M2Z6T546eYLnME8HZ0dA/HmDpHSz5Ms6WekaZeka9ed1utItyuK10tKlosrlvKrN9IpwA+eTCEROGfcD6NgfQJMoNCyOTKI29olBoXP27A9cvmbTlh17jyedPn06KybmaEREAnzhhUJleXndQECTyYyPH8tevvz44sWHEyfOnj9fmJycduLEWSyW8gMICoVJpbIIBBoaTWIwmjEYcl1dA4nUyGa3olDEnJyC69fvJyYmX7t2Jy/vanT0kbt3n+DxIIFA43AEcCd/BJrNbgVB9osXH86cyc7PL0pJOVdUdC8tLSc9/cL796VkMoNIpGMwZAqFyWTymUx+H7jWOw3uGQTZDEbz589fb9x4cP36/ePHU588eR0eHp+cnMZitcA3z4/x/xZoKpWFRpOoVBYSSTh7Nvfy5RtpaTlPnrxOSjqdm3v50aOXNBqXxWppbGwikRpRKOKPO/93bxiMZjqdh8VSuFwhidTIYrUQiXQGswkEGSQyBaRTV61ZPmrM6JjoBGd7j/07/eZPHdmtxvUBfbgFGSRG+FuBrg1WWIEOlteHyOutQPcpTIoIlyLCJYhwMdLKcZ8ixYgoETJGjDkiwhwRoRPEqBgZMlKJClejQjWokHZKvB4XrUCESWrDRHWREmSCvCFJR0yRVEca8MmS+iQ5Ia+xJv9w8CIm9bPZLEo4FgHYA05DnUZNGTF59tgFK3zWbJ679+C6uLiguJjQxPiIpGNxJ5ISjyRGBQfu37Nry5pVS1etWLxy+eLlyxYtWjBvxrTJo4d5ujjY2djYADa2fwLQIomSQKaRqI1gIxdDAJet2nDt5v3I2KOpZ7LS0y+cOpVx+nQWm936IxgPBDQIsm/ffnT06MkXLz74+4e+eVOcl3c1NTVzIKAxGHJjYxMIsnk8ERw1WayWjx/LwsLirly5dfPmwzNnsgsLb9JoXDSaRKfzBgK67yFAaWigNjWJc3Mvp6Scu337UWHhzdOnsyorETyeCATZRCIdBDkgyKZQmNXVaLg3HA4kkxlMJh+DIZ8/X5iamvno0cuEhKSCgus3bjy4dKkIjwdpNO5AERqPB7FYCpPJp1CYR4+evHDhSlpazvPn75OT0y5evPbs2Tv4vDgcSKEw4Uj/O5ThjzQal8nkE4l0HA5Eo0mNjU1UKgtPAP9ioKMkmDgJJlaKiZaiI+ToMAUyWIkMUtQHKhHB4uoAGSIcIidB1JNSzDF+3WER4pii/piZmCGpPyvHXa16eiLSb17Jm+sWi764+LWzu+OEaROWrFq4fttyv4Mbw6J2HT4WcORo2NGjUUePRsXFhQQH792zZ9PGjStWr1q0aOGs+fO8Z/hMmjxpzLgxw4Z6urg4WjMhHu5utrZ/BtC19RgsnsJgNzPY/Bok7nR67oHA8LCoxLiEpEOHwsPC4uLjkwgEGo8nKi6u7Hvo92856HTe48evTp/Oio4+kpt7+caNBxkZeefOnR8IaJlM19BAxWIp8LMejwdPnky/fPlGXt7VzMyLp05lFBXdTUxMFovVsN8YCGjYObx8+TEz8+KZM9mpqZk3bjxISjqdkZFXWloNR2gajQuCHAKBBoKcr19RdDoPbgdBDovVUluLPXkyPTf3cnr6hXPnzqel5eTmXj5zJrumBsPhCAYCmkCg0WhcGo1Lp/Oysy+dPJleUHA9P78oLS2noOD6L7+8he982Br9C6DPns0tKakCQc61a3eePHmNRBKUSj2RRPtLgRYjI2WYSCk6XIwMESOCZMggBTJIjQ7RYMKM5EQ5KkpYGylCJEgwSUJ0shB7StZwVk/I1aJz+RWZiKdJxw7MD9g8+/H1bEjZKuBzVqxYtnb96q07NkbHBYeG+51IiTh8JDAsYm9o5P6AkD07/davXLtg4eIZvgt8Fi2aNWuW1+TJo4YNc3F0BGxsADtbwMkBcHW2HeLu4ur0Z1gObpOAzuShsEQyyGwSyJJT00OjEhb/tDYkLDYm5uiJE2dDQmKYTH5TkxgOqANFaBqNe/v2o0uXinJyCkJCYs6ezc3OvpSWljMQ0DgcSCI1YrEUELQagNZWOZXKKiy8GRV1GPYqd+8+CQyMZDL5ZDKDwWgeCGiYGNjXxsYeCwuLu3z5xsmT6adPZxUXVxCJdCKRTqfz4KhMp/Ng9w+bBxKpkUbjEgi0O3ceP336Jjk5LTr6SGpq5qlTGefOnUehiCDIGQhoKpVFp/PgKJuRkZeScu7ChStnz+amp1/IzLxYVHS3oYEKn5dKZRGJ9H7DM4XCJJMZyclpiYnJP//8Qi6HMBgyFkuhgsy/GOhwGTpEijokqjsgqj0grj2oQAZbPTQhQY6MkaMPSzFJEuxJOTFDBeaJCDm82nPEF4eL8w9cTVgVvm78vOHAmtmjuSREu1YBKeR5ubkBh/yDgw4eOxYTHxd0/GhoSMjOvf6bt+5avXLdgsXLZ/sumT5rvpfXtJFjxg3xHOo4xNPBzd3W2RlwcADs7QEnR8DZEXB1sPF0/TOAxuLIBDKNxuASyPSPnyt3+Plfunpz996A2PjjOTkFCQlJqamZIMipq2uAZ1cDAc1itTx8+Dwm5mhJSdWGDTuKiyvhp/BAQDMYzUQiHbaMbHYrlcrKzb1cVYX08wu4ffvRrVs/P3jwLDv7EgiysVgK7ET7nRTS6TyYmKys/GfP3oWGxj58+Lyo6F5Kyrny8rqmJjEcj2ED0NBARSIJ1mc6HoTvARipN2+KHzx4dvXq7UOHwh89epmfX3T58g0Go5lMZgwENNwh/G9y/HhqUdHdjIy8e/eeZmTk5eVdffjwOQhy4Luo71a03hj9CgQ59fW4kpIqFIoIP0PwePCvjtASZLgMFShD+kvq/cV1ByV1gXJkhAIVq8QcUWCTteQMLfWCBJfThMwifk55d/PglZRVF2KWRq8ff3DpqND10/1Xz/YEAOTnDx1atUosLv34KSQwIDE+OiRof0Js8MEDW3fuXLVije/S1fMXrZgzb7GP95wJYyd5egxzcHAGbOwAB0fAzc3Ww8Pezc3O1dnG1dnG3cV2mJv9EAfgT/DQxO8004iUxjo04V1x2eYdfjv2+GflXDp+PHXfvqAzZ7JZrBYuV/irke3fcjAYzZWViNOns9LScq5evf3q1ae4uOPJyWkDAU2lsuAHMZxVaGigFhRcT03NzM29/Pp18alTGfn5RUVF95qaxPCUdKAIjcOBdDrv06fykyfTL168dv36/Y8fy5KT006fznr7tgSmFn4awNwjEPg+B8JmMvlwiCWRGl+/tjr+CxeunDt3/uXLj9HRR6KjjzQ3SwgE2kBAk8kM2GRXVSFTUs5duXIrLS3nxo0Hp09n5eVdffHiA58vbW6WUChMPN5qowcSnEuBu0KhiGx2K4XCBEHWXxqhJYhwBTpYhQ5WY8LU2CglKlZcF9fyNZ5bcRiiXuJVn6t5EvM0b0/hyXVnohZE7fHat2b44onAhtmeZ6N2Vb+6BdYW+61bfiox1tLZIeTxHt2/d+jAvoBD+7duXrt714aVK+avWDl/2swJPnOn+MyZPGHq6CEjXBxcATsnwMkVsLUDnJwAd1c7d1d7FycbVyebIa4OI4Y4edgBnrZ/BtANeAqVxkJhiSQqox5D9PKe/fj529v3n755V5KZebG8vC4p6TSTyYdzWzgcOFCEptN5d+8+qanBlJXVPnjw7NWrTygU8e3bkoGABkE2bEAbGqg0GheDIRcUXMdgyDduPCgpqSoouA4jDk+qCATaQEDzeCIymXHv3tOPH8twOPDWrZ+vXbvz4cOXly8/FhdX4nDWrBwIsslka+qQwWiGgSYS6SRSY99k0Up2aWn1gwfPqqqQsBfH4cA3b4pRKOIP4v+YtsPhrFNGEGRXV6OfP39fVHT3+fP3d+48rq3FPn/+/u7dJ/BMFzYtcKTvl2k6nQf/O/Q5Og48KgqV8RcDHalAhWsaoiHCET0pWYU90Vp9nFZ8GP/28J0z69MjfGN2eoVsmRS8dWrA5mmHtngHbJ/z7uEFUu37dgW3Xcm3GJToys+zp0zUSEVNrMbjh+P99+9ZsWLRmjVLZ8+ePGfelDnzp3n5TBgxbpiTmz28/G3vBDi72Lq52dvZAK5OgKeb41B3Jw9nW3dHwMPJZriLjQcAjHcFAFHJevHnTeLStdLPqxWfV6tK1mpKNimK10g+LxFW/MSt3ASWherZH4VUhNeYkYWFV93dh8TFJdjaOJxITuW3iMhUOgVkkL+LSQJZP0TtS/rCT/nfvsKu9I+vfWkEzh9f8XhrguyPIpMZ/eq35/rt+z+eEW757TG/fd9v5/BcsN+u4Fj+x9d+D4bvhN+e7sf7gc47uHZKIxVsJFOoTHbjhk1rR48dExkR62zvEeB3YN6UEV2qhmZCHg+VyEcECuv2WxN2NUGy2kBpXaC0NkhWFyKth7PR1rSdqDZEVBdqLWKuD+NWHBTUhalwiQpMfEtlKERIFtcexj33r7zj90v2hsyI2Ym7J0Vs8Tq0zis9fmfeiaCc5ODip1cE9PoefatJJ4A0AjMkadPLLL1mS2/bEt9ZTx7eMkCK/X7b9u3dNnq0x+q1iyZPG+05wmnkOE93TzcHZ0d7R3s3dxdPT/chHq5uLg7uzvYu9sBIT9exQ92HOtu62QCeDsBIN/sxrsA4Z2CM3WCAnjx2VGHhVTc3j5iYOACwO37sBJfXgidSQRqL+l1sCp3zXTQOmTrgU7LfSPNHFOCWH1f6d28GOh5OHfzxtd+T/ovGgfof6Ef+eCvCLQMd/8cRwi0DnXdw7SCTSAIJRBKdAa5dv2rk6FGREbEuDkP+F0CrG2JVDbFKXJwIES6oC1XhE5QNCewvgXpKGvaX/Y/OLcyP9z4XMu1s6Nykg/MOrfO6l3v4l6vnaMjPCi5FzgPNitYOrdisk1osHZBJ02tpt1ja9JDUYjE9fnBtv9/GZg45JyNp9Yq5Py2bNWKk49ARDh5DbV097Oztbe1t7Z0dnTxcXd2dnZxsAScAcLMDRg9xtlaT2gAjHIEJHjbj3YGRDoAnAKyZ7pzoN3sQEXrq+DFXrlxzc/Poq7azO3okicPl4wgUPBHE/aoGEu27iLSBgP6zItZA/Qy2fSDgBtsPgUDrV4Pt5885nkQjEKlEEpnOAFevXTF85AgY6EN++wcboWXICH5VQGttiAgRzqs8xK04JEFGqwlJ/JrjmWFjY7Y4no+ffzrMNzlw8fNryQzUR4OQoW1ht6uk7RplJ6SxdJotHSZLb5dSp+iyVnR3dvbojSaZxaI3aJrmTR9xvSC19P29bevn79m+1MMV8PAAPD2tiQtXR3tXe0dPZ5cR7u7DXJzdbABXAPAAgKF2wAR3wGeE/ZQhwAgAmOgM+K3wvnh879dHJ2mfc/83QMfExNkA9ieSUwVCKUhnDWQ58MT+L/BAkWygCzlQZBqon98F8t987MfPwNnlfkEcuP/++/mrxzm48dDYjQwOg8niNXPWrl/1A2j/3XsHC7S4LlRYGwLvpGqpCRbUhSkbrIt/WVFjju8fceHIgrc3IqpeZDQin0NCsknOsxi1ljZzl95g1kG97e2WjvZOA9Tb09Fh6ey0dItVgvZurcUCqSU0k7Ix91ToxsUTaj7ezkoK3LrSZ6aX61BXYIgz4OkCjHR39rC1dQHgYGw72tlmooeN9zA7n6HASAAYBQDLp9ifCFzx+upRcsk1IeahBF0kQeYPGmh39yHx8YmODi7nzmZptPpWoVQgkrd+l6JFrPwukVIq18lk/Ugi0fQruRzqVyKRql/124lEoun3YJFINdDx/Q5SJtMNdPxA7UKhsl8NdPxgxzlQP/23S9UisVwskUrl4k1b1o8YNTIqMs7FYci+HXsGC7SoNkSDj9eSDov6FsAhyjFeReDby4vOH/H+eD+UXlfAJz9W8Mr1MjIkZ2tlLYImjhGC2k3m3u4e6463b11tRm1HB9Rj6dJ3QO3dOoNBCCkbv+k5Enr5ziWjZ3kCF4/5vSk6GbxpzqpZw8c6A0MAYIQDMNzeqtFONuNdbcY6ASNsrByPswe8nIB9P426eWYv9k2mAHVbSXwgwdxoqclrKj/dWnlq0EB7eHgmJBx2cXbPyc4zmTsVKp1CBcl/lUyt/y6VXiLTSqX9SK029quBwNJqzf1KpTIMSv2eVK029jtIqVQ7UOcD9aNU6vvVQMcP1P+f067WqzWQVgdpdKot2zaOGDUyOirexWGI37ZdgwVaiYkW1AQL68PgeSGn/CD+5daSm6uFlHwZ+2dl02uDrLoDoirFJLmYabF0qFWK7u5uo8lkNpu6utsMBlV7m/rbN0N7l97YptbrRTol0ygHX95M9V81MWTNhJlOwOKhwJ2TB68c2Xtg2ZTlk9wmOQLDAGCiCzDWCRhlBwwHrNZimjuwcc6QqG0+JbeP4t+ls6suciqzWWVpTVVnBbUZrV9TVag0ee2JQQA9bcLYq1eL4Ajt7OSWlXneaOpQqHQyhVb6XTqJEvouBaRU9w9cv2FYLocGuvD9UqJU6ge6ARQKqF8NdN6BABqo/4H6GWx7v4NUKKCBzju4drn2B9CbtqwfNmL4d6C37hws0Fp8PL8qQFgfpiUdFiMjuBWHFNj4jqY8o+ihTvxW1vxGwP2k15AsFlXPNx2PzzC1m3osvd293d8s3b2WdoNJ1tYuN5okbR0amZTbZZJgKp8fObRmp+/w9ODlmQGLN44DZgJAxJKRhVFbT/ktj1k/f/1kz6kOwPQhwHgHYKwtMMMT2OY78lzk+vKHqULMfXbVRQEiX4bNlyAzW6pPNFcebak6Iqg6zP8S3VQcNgigvSeNu3r1mru7R2xsvIOD09lzmRBkFEuVKg2k0uhVGr3SKoNCY1RojEqNcSCgBwJoIKAHuvADga7RmPqTUaXWD0pKJdTvKQY7/oGO72+Q1pH3e9JBN6oguUKr0miUGun6Tas9PYdFRca7Onr4bd8xb/KoLhW+mXCBh47nI4KFtf6K+mBFTZC8NlBeGyirDZLXBcvqg2XW2ugQKTKUU7ZPgo5UEOKbakOb68J7WrItxjsW1QNd83Nlc4nFRO0y0EFSCYVcCRklPZYOtUFt7mmD2nRdFvM3i9HULuvuUZkNrSoB2Avxb2YnrvJ2zo3dlB60ODtw/sntE5I2jgiZB/zkCgTOdSiMWH1278KwpePXTgDGAMDMIUDQ2okPs4NpZVdkhJ+F6OvsyhxB/Xle5WluRXJLdVJL1WFeWXRrVZwKnST+miCrOfzvAi2g1k8eP+rK1auubm6RUdG2dvZZ2Tlt7Z1KlbbPdeh+fYUUqv+WUgX9v6upWdTZZWlr/9bdY1FrDFqdSSxRqdR6uUInkaoFQrlcoTOaumRybVe3BdK3D3RGjVavUGraO7o/firh8vgyuQqCjDK5ymhqhyCjwdgmlSmtrs9iUaqsXWm0BqlMI1folCpIIlWLJSqZXCuVaXSQWaXWK5SQQv/yEWUAACAASURBVAnJFTr4AI3WqNEadZBZqzNJpGqtzmQydyuU1h8caDx/dbtGa5Ap5GpItGnr6mHDx0RHHba3sdm3c+s8r/FdSkozMZeHjuHXhwprAhX1IcqaQAgRpvwaoKg+pO2rAhXX+LdW7xchAwWoYDEuugUb3YSJ7RBdtJgeWjS3ZfRrCvoXCyTpkDfRG7662QMH/bd/s5gNXVqzxagyy/Wd6k6LXqcXanUtkK7Z0i5Gv7pyfNus4CWe+eFLcgJmJq51ObLOPnmz4/PUxex3Ccw38feP+Z7e6Xlq+7ATW4cnrvfICZtRdjtEgLgoQORxKs42V6e31qZzyk7wKpObKpOaK4/xK4/wKxP5lQn8yviWygReaRyvNH6QQF+76uruFhkdZWtvl5WT3dbeoVRplCqtUqX7VX8Cwb+70iZz16rVG5avWHsmLZNIAk3mLqlMLZYoVWrIZO7q7LK0tEp0kIlABJevWCuVDQSQTiSW6SC9ydx+reh6cEhYR2e33mDS6iCBUFz6pfzpL89v3b57qaDw8JFjR44er6lF6CCjVmdUqSGJVCUSK1RqSG9o1+qMkL5NrdErlDq1Rg9BZh1kUih1YolSJFYolDq9oV0qU7M5fKFIrtEaIH3b777O/9nHX4EWbNq2ctjwsdFRR+xtgX27Ns/zmtilAJuJOTx0FL8+TFgTDAOtrQtR1wbKqw8p6gLUmFA1LlyMDubVHpSRE+jVQY2IaKj1Yrv8pl580yC9ZzFWd8mYFpXaJBYxCdi9OzfFx4Vq9dIei1kBCbUmSa/FYDJLFVJWp17ca5LeyEjcM93p1KaJhUG+53aOi1gAJK4E7h+d2fBgH+t9uKTqqKTqWHNxPPNtVPW1nXcPzz4fOAb/LIL9JamlJpXx+QitOJ7/9YSg9iS37EhTxdGmiiNNFYebKxKbKxJ+VSK3NIFbmvgfALRAKGsVSPMvXQUABxdXz7SzWQKhzGTugskQiuTdPZbXbz7aO7gWl5S3CqQDEKPTG8xyhQrSGz+Xlg3xHPrq9duExCOjx4xzcHS2s3ecMtV75ao1e/cdCA4JS8/IAmkMg7Ed0rfpIJNao1f2PcFlco1UpobB1eqMGq1BrtDK5BqVGtJBpm+9FpFYIZGq2ju+6Q3tMOJiiXKA8fz5d/7vTjQooBVWsxGgQARJ6wIENQelmFANJUGEiwarApjIGLA+XkjPsvQUG+RPtZJf9Mp3lm9gh5on57IgqaDLqNGqhBwOpadXbzDLvvVCekiglXN6jbIOebOYis6OD8kI2VkUszl1i1fSuhFJ6z1PbfN8fW4152NCU0mCrCaZXxrP/hjV8uWIpCqFV3yE+TZRWJEq+HqG/zWVW5HMLD3KKU9qrTnZ8jWF++Uor/wor/wIr/wwrzyxqTzhhzif4zmf/xMitFZnNLd1C0VyuUKbcjINABx+Wr4G20Bqa+8xt3VLZerzFwrsHVxralGdXRaJVPW76/rrR51MrtJBehCkp5xMtbG1nzFzdtrZ9E/FJSg0lsXmarSQSq3V6iAdpJfKFCZzh0KplUhVEqlKqzMajB1KFSSTa/SGdqOpU63RC0XyllaJVKbWaA0KpU4glDGYPKUKUmv0YolSIlVptAajqVOl/svB/fUL/v5EgwJaXhsorjskRgYKEYEtdQGtqFABLoaLjqFUR9BRx3TCG13Qq25DMRGdLxO8U0lLRfwyM8TRyNiWblWHWWyxaNUatsHIVyroZoinbCF0yBkdQhDx7Ib/gmln923K8V9/ZsesjD3eSeuGX4v0bXx1vKk4mfA4iP/lCO11CPtTdFNJPPtjDO1NZOObGH5pshKRRfuQQP+UyPmS1Fx1oqkimV16jF16tLkiiVt2hFt2uE+J3LIE3q9il8SxS+L+AyK0SKzQG9rlCq1WZzSaOh8/eWHv4OrsMqS4pFyu0IaFxwCAQ1OzsM/7QgNHRB0EGT9+Kt7jt/fnR08AwPbmrTsCobjPMmkkUrlUplAo1TpIr9VBMrlSBxmkMhUEmTVag1IFQfo2SN+mUkNanbFVIFVr9HpDu0oNwQ7HYOxoa++BIHN7xzepTK3W6Ns7vsnkGtioDATcX90+KKBltYHC+kP8+oMtyKAWTBgHEUarDqXVx7JwJ2S8Kxbzp27jF52iGFl71QhhLZamri6mxdJqMNJ6Lc2QkSpXYVUaXJsZhFQNkKi+Q4KCGr+8v3g4bOHoorDNWdt80zfPCpxld3b35M95/rSXSbRXR5jvj3A+HSY/DwZfh7A+RXGL45gfohvfRXOKD3M+HaW+jOaUHmeWHGV9PsosOQK+jyW8DKd/jGupSmaXJvYpgV2awC6N/yFWcex/BtBanVEglEGQualZKFdoey2W2jq0k7PHgoXLVq/ZuHjJilaB9McjHuavP1Z0zXwBbDmkMoXHEM+Q0HCZXNlrsZjbOrQ6SK5QyeRKmVwJk63WQBwu39zWLVdoq2uQz56/uZh/xf9gsK/vEhdXzxkz563fsHXT5h0bNm7z8/OPik44nnTy2PGUnNz8+w+eMJg8g7FDLFHK5BqZXNPfYH4fTf+KYwYNNCKwqe4gHxXc2hDFQUbSa6O4+GQFr8Bi+WrpqTJrSw2aKhLuAUh52Uj/2NT8Ran+ymA/5QveanTlEulHnbasDfoqYv9iFn2Skx7cSd4YvcT1esjCC9smX9s94+TSIc+TNzU8OIy+F1N7I5j9MbnxXWL93X2Ul6G0d2GEZwdJLwLAN2Hg63DGh7jmL0lNpUmCqpPcL8cZxYn0j/G0D3Hg+5jGT3Gc0iOskgTWZ1jxrM/xrM9xsJjFMazi2P+ACN3e8U2jNXB5rRBkNhg7+C3irm7Lu/fFAOAAAA5EEqiDTPwWsVyhhSdkA8ChkyvUAqG455s1jzFi5Oily5YbjGZ+i0Aokmi0VqehUmvlCpVGC0GQQSSWabR6lRr6Uvb19JmM5BOnz18ouFZ06/6DJ+/eF//86FnexcJTqefSzmZlZJ5PPJy0x+/AmrWbpnnPAgAHWzvnpctWlVfU9FosHG7LAOP5y5keJNBBwvrgVkRICyKMj4pqwSZIqanGlsJe7RNLe3GH5l0X9MVioVgs1A4Trt1EtFga28yfOzs/9HR96mx/JxPdFvGudemeQ/xbYFnSxZjJGfuH3YudfnI5cGoxcGGtQ3HST6T7MbU3wtD3osjPEnCPw7E/BzU8DkDe98M82ot55Nf4IaLpSyL4Ooz4LBh8HUl+Ecb4EMf6lMAuTmQXJ3KKE3lfjnI+JzI+xbKK45nF8cwSWHHMkjhmSaxVxdGs4uj/AKA1WgMcd+FHfHePpej6HQBwOHgoBAAc5vsu5nBbjKZOHWQyGDsEQtkAAFmzHHqDicXmfuu1bN22AwBseU18SG80mtrgCK3W6OQKlVgi63ujVii1sF1Wa/Rd3RaDsUOh1HV09kL6NvjOYTB5TFaTQqlra+9pa+/p7LIolDpI31ZXj1m0ePm69VsYTJ7R1DnAeP5xQItqQySoKCEisrkmQoo73tV6yWJ4aul4ZzG9t3R8tnRVWdq/WnrQFnN9j6Gu11TZY3hu+fayQ3tb3XqpS3PLILxsailAvT6QFer+MMX7VsyY3J02Nw8OeRYxDpP5U/PDQOz1g7gHkajbwVVX/epv7sP9HID72b/h532EJ/txj/zAlwHUFwH4xweY762zw8a3keDLUM6nuObPh5nvo+lvwpkfojnF8aziWFZxLPNXMYpj+xTDLI5hfopiF0f1A7S6eKP802pxyWK4HppWHmbgfBKCCK9xIwuvXnFxc42IirSxs83IyjSZ2+QK1Z+VthOK5LBPlck1OsgkkapaBVJzW3dLqwTSt8G+orPLEp9wzM7e5fqNu70WS3FJuaOT+4aN26wJMsgMQeZWgVSu0MJpNYVSJ5GqFEpde8c3oUgmV1gtskQqb+/oyj2f5+Y+pB6B6ur+JpMrhSKJTK5UKNUQZDAYzSq1VqXW6SAjnMRQa/SwhdBBJkjfptEaxBKrV5k3f1FNLQqesGq0BnjMCqXOaOoEaSzAxrGyqu7vTduJJGINJFyzYcnIUROiIg+7uzoF7t81Z+L4HhW9iZDNRoQLUJHiulB5XbCqPkxYEaRCxqkxia1VEaK6eIug0GJ6ZtE+sigeWKT321puadnXJOAlPuE8tyGHiznb0pDCRx8R4ZN0jecMrMzmuvjiouVXE0c8SPYqDPXI2QNc9Xf+kOSNy18NXttEurIFfW0P8vp+1I392NsHcPcOEB4cIP18gPx4P+XJPsLDPejb2xA3NqNubcM/8AOfHWK9CeW8C+e8C+e+j+C8j+B+iOJ+jOZ+iuZ8iuYUx/wQuzj2h5pK45tK+rMcfxfQcCSDM2XwFFCrMzbzRXB2TG9o57eI9+0PcHH1LPlc0dVtTWgYjB03bt4DAIc7d382t3WLxAqN1qA3tLcKpAKhDJ63wWkHkVgulSnNbdbEuUYLPXj4CABsiSSKRgu1tXeazO2dXT3fei1t7Z1SmUIilfdaLDrI2GuxBl2xRAlBZqUKUqkh+K7TaA31COz4CVOa+SKFUqeDTBqtQa3Ra3VGhVIH3wYA4FBRWas3DLjQ81dHbuuNJ5XAQI8aPfFfA62uD5N/DRNXhGqRCfqGJEFFBO3tfvCtf+PHIOKr/biX+zAv/FDP9tQ/3VX7ZEf14+21j7bhn/mhH2yrvbW+7vYGzINtyLubyy8vf58x73POorKcJVW5y2rPL0fmrcLmr8FfWoe7vBFRsKW+cDviynbUtR3YGztxt3bhb+8k3NmJv7MNc2Nj/dU1NZdX1RauRl/fRLq/C3y8l/XiEOvFIc6rQM7rIO6bEN67MN6HcN7HSM6HcPaHcM7HCM7HSPbHSPanaFjNn+P+WUDDaQF4tQJO4uogk7mtm9ckMBg72Bz+3HkLAcChrh6jg0wyuUYoksPzxc1bdrq5D0WicGqNXqM1wEEaDo1CkRXNvue+TqOF4Ehsbuv4UlYBALa/PHvRzG+t+lrz5OmzU6lngkPC9u47sHbdhpWr1uzes/dceja9kaPVGWVyjVqjlyu0cOZOqYLaO76FhEatWr3B3NZtnbDq22CU4US10dRJoTYCgEN1DVIkVvzV4A7U/w+g125c+gPooAO7+43Q6vowSXkghIoXlQWX5fs+SR5Xc20Z58MB1rt91GfbKc+3kZ9tIf2ykfjLOsLTNYSnq0iP15Pubife2NVQtA1ZuAl5eSOqcBPqyhbMla2l55bVX9xIKNpNKtqDyd9am72uNnsd4vyGmpxV1bkray+sqstbjchfg7q8Fl24Bl24GlmwojZvaVXOwvJM38rsBbV5SzFXVhOub6A/3En/eRfj8R7W072c5/7cl4d4bwJ5b4PYbwI5b4PZb4M570I5H8I4H61wsz9GNJXENJXE/LMsh9HUqdEaBEKZFWt9m1yhlcrUOsiEbSCNGDnO0ckdpLF+hMCOzl54ysXm8AHAwc/PH8779loscoVWIJTBi3xkCp1IAjVavbmtE9IbVWotDk/Myb3g7OI2dNgIB0dnALB1cnYFAFsHR+dZs+euWLl6wcLF3j4z3dw9s3MutrX3aHVGeGEFthxw7Hd187x77xFsRaQyNbx8aH0DmWEb7eTs0cjgDpwX/8s9tFZnFEslWr0IBjo66oiHm/PAQIfqUJHSyiB+8V7iz2tLL8z+kjeH9HAd790ezusdrJdbab+sBR8vp/68GHy0iP5kEePxSvrtrcxbe5l39jFu7wWLdhEub0XnbUSe31B6asmX08vK05ZXnF1ZcXYVrMpzKyrPLqg6O//rOd/qdN+aDN/azAV1WQvqsxfUZftWZ8ytSJtZfmZGRdrMmsx5qAsLsZeWkovWUm6sA29toN3dzHi4g/VkD/sXP86LfZyXBzivDnJfB3DfBnLfBfM+hDZ9DOd9CucVR3KLI/9BQEOQGV7I+LHarNbozW3dHz+VOjq5+y5YKhTJ4ais0RrgxTmtzqg3tEOQOSc3HwAcXrx8Z72KEqUOMsH/SweZSj5XVFTWKpTasvKqM2nn5syd7+Lq7u7hCQC2CxctiU84fPvOvZraegKRzGJzFUq1Sq0ViaUUKm34iDERkXG9Fgu8OAKTCkdrDJYIAA5iiVKh1CmUOpFYAUFmOAVuNHW2CqS3bj9YvGSF1av8fUvfWp1RIpNq9aJ1m5aNHjMJBjrYf88AETpE8tVfXHVAjQzVoSJaPu+jPd9EfbSWdH8l+HA16c5SbNEcRMFU5CUvTKEXsWgqeHMeuXA5MX8tPm91n9bgLqzB5K5CZq1AZa+qTV9elbas4syS8jNLy88sK01d8uWUb8WpWVWnfKpO+XxNnf41dXr16ZnVp2dUn55Rd3ZWzZnpX1O9q05Nqz7tXX9uJjp7Dvb8fHz+InzBYtKVZZSileCNNbQ7Gxrvb2l8uI3zix9MNveVP+9NAO9dYPOH4OaPoez3Iaz3of8goNUafUurBM5piMSK7h6LTK4pKrpt7+B6KCC0pVWiN7TrIJNKDcGxuaVVAmch4FoOO3sX3wVL4aBuMnfxmgRsDr/XYiFT6EePndh/IMDF1cNz6PB5833TM7J+fvTE3sEpIzO755sFggzd1kVbk9HUptboxBIZBBkkUsXkKT4xsYdhoKUyNVzX0dIq6eyynD6TMXfeQnNbt0Kpg5e+4bVD+DYzGDsmeXknJafCM4GBLMFf3W6dpMqkOoMYBjom+ugQd5eBgFYhgoXVe1XYIDU2mF+2h1u8U1UXAtWHN73d3vRqK/vJWvDOIvzVGdhLXtj8CfiC8aTCqQ15s5HZc+szZiGz5mJyfBtyF6IyfWvT5iAyfNE5ixsu/ITOXVZzbsGXk7NLUmZ+SZlRlTK1OsWrOmVyn6ZUn5hqVcqU+tM+danTak9NrTk5uS51CjLNG5sxoyF7VkPOnIbzc3F58/H5C0iFi8lXl5GLVpCvr6Lf20R/sIX+cBvjyS7mL36s53s5L/ezXx+kvzpEexXwDwK6mS/qtVj/KIhQJDcYO8xt3QWXiwDAISo6AQYdttcwOt091umaQqmTytQGY0dnl6XgcpGtnfPzF2/hKiK9ob2tvYfJakpIPP5f6eotW3cWXb9FIJLNbR1GUxu/RQAAtiknU/UGE7w6KBJLNdrvyys6SI/Dk+wdXDKsNd/WhCBcvyGRquAJ37z5iy4XFmm0Bq3OKJWpVWpIobQW5cFHfir+4uY+tKYWBRcz/dXgDtS/DjJJ5TIY6DFjvf410EpkoBGM5H3d3ly9U0sMVaFDmj/v4RfvkZcfkhT7id7tbHm2gX1/GVg0h1gwFXdhPCZ3LOrCRMT5ScjzXujzU7AXpiGzvL6eHvMlaXjVqbGI9CkNuTMxOTNrz00rPzWh7NSEylMTa09OrE+ZWHdiYt2JSXUnJtUmf1d9yuT6FK+6ExPrUyYhTk5Cn57ccHYqLsMbm+mDzZqBzZmJzZ2Nu2AluyHft+HSIvyVZbirP+GLVhJvriXf2Qg+2Ar+vB18vJP6ix/l2f5/ENAwEE3Nws4ui97QvnPXXgBwSEpOtRa4QWY4OwbnMeDEBWym4WI3uFzJ3sF1ydKVao0ero9Ta/Q0Ovvlq/eTp0xnsnidXd/gYNwqEPFbBJ5Dh0dGxSiUaqVKozeYFEq1QqnmtwhkcqVao3v95r2NreOr1x9kcg3shdQaPWzo0RiCrZ0zjc6GV8Jhv65Q6uDJKA5PAQCHlJNpcBrxb6zl6BfokIN+/VoOJTKopXo3v3a3GLVfjDggrD6gRIRokeGS8oPysoPKL/6qz/vln3aL3mxuerqSeW8heGsO6boPvmga7upUbIEX5uIkzIWJqJzx6JwJDble2JxJ6KyJyPQJiHPj69LG1aaNrTsztv7UOOTJ8ciTExAp4+tPWFWXPO43GluXPBaRMg6dOgF7ZhL2rBc2Yyo6Yxom0wed5YPJnoHJmYnOmY0+Pxd1fh7qgi86fyH28hLc1eXEolWkm2vItzeAP++gPt5lBVpUslH0eY2kZJWseKWiePXflbaDc8ZyhRaBbPAYMtzNfeiDh08HXsq2lgrBuQ4IMsOphoc//wIADo+fvICtCDytVGv0N27eO3osWa2BDEaz3mASS2QsNtfF1T0wKATO2ekNJpVay+U1G01tkN4okyvXb9g8YeIUXpMATqTAUdBk7oKLkJJPnNZBJjaH/+MpYTJ3aXXGpmahm/vQjMzzIrFCJte0tff8jQsr1omsUqHVi9Zv/mnU6IkR4QmjRgyNDQ+YO2nCN3UjnIduRUaIakNktUHK+mBZfaAUESCpC5DU9f2CjppAaU2QrCZIXHlIUnlIUuEvLjsgKdsv/rJXVOonKd3N+OUnxpMljY8Wgfd8wVvzyEWzSFdnkC5Px+dNxV+Ygs+djM/xwmd54TMn4TIm4jImYs6OR5+dgEobj0qbgDw9Hnl6PCJ1HCJ1HOrMBKvSJiDPjLMqdSwydSzi9Dhk+mRE+pQ+TUVmTENkeCMyvJGZ0zG5czC5czG58zDn52Mv+DbkLbAqfyGpaDmpaMU/CGg417tjp5+dvcvadZvLyqslUlVbe89Aj1SBUCaTawzGDplcA8/PGhnckaPG79jpB9cMwQsiWp2RQm2cPmNOU3OrSCxtFYg6OrvFEhkA2AaHhClVGpFYajK3twpEJnO7XKFSKNU4PNHZxT3/0pXOLgu/RdzZZRFLlPDqYM83i7mtm8NtgVN1MOLmtm54UtjdY5HK1EKR/EfN3UCD/79pHwTQdcHWjSp1IdbfMlMbLK0NltQEwRJ9DRBWHRJWHRJUHmyt8G8pP9BSfqC1bC/33Qbem7WcF6tYvyxnPFraeH8R7Y4v/ZYvuXAGpWA6Jd+HkjeNnDuFlOVFzJxEyJiETZ+ATZ+ITZ+IOTcBfXY8Km0cLLQV9P/+iDwzFnVmrJXsdC8YaGSGFWhUpjcq0weV6YOF7XXOXFzuPPz5+YQLvoQLvvgLvpTCxZSrS/5BQIslSn6LuOj6nddvPorEirb2nma+aODqOWuhZqtACodGv70HJVIVpG+7XGi13UgUzmTuEokVrQKpVKbutVgyMnOTklL6cOxQKNUSqRwAbIOCQ2EPzW8RGE1tSpUGpDWq1Nqt23aMHjO+VWDdNwD75q5u6wy1pVUiV2hbBdJei9XoQ/q2js5elRrq7rFAkLmr21oPDa/FCEVyc1u3ydwFZ6//b/D941n+d0D/jmnR14A/Mi0o3ycs3SUq2S4s3tr6fhP/zfrml2ubn61uerqSfsu38YZvY9E8WuFs8NIMygVvUu5UYs4UYs5UQvYUQvYUXKZXg5VvK9nYcxMa0idi+95gz03AnB2POTsemzYekzYBkz4ZnT4FnT4VnT4VkzENA7vqzOm47Fm47Nn4nDmEnLmEnHnE3Pmk877EC76kSwuIBQv+QUBbyyQgs1yh7e6xCIQyiVQFT8j+eJ3gFoOxQyRWGE2dlwqupWfkdnT26g3tVJABO2+lChKJFXKFtR5DLFHSG9mbt2xnsjitApFcoTKZ2wHAdtPmrXqDCYIMLDYXgUSfPnP22fOX2AY8ANhWfa2VSK3lcrBFxjaQWOxmDJaIbSDV1qGJJLD0S9XTX17duHmv8Mr1pOTUpKRTsXFHTp46W3T9jrmtW6M18JoEsI0eaPz/B+2DAloB/+7+viD9g2lpbbC4OlBcHfg7pgUV+2VV+2WVftLyPZLSXaLi7cKPW4XvNovebuY9Wcl7tIJ7fxn71qLGIl/alblgwSzqpZngpZnUizOoedPJ572/w501GZ/pZVWGFy59Er5PuHMT8ecm4s5NxKZ7YTOmYDOmYjOmNWR6W5Xhg8ucgc+aBYuQPYeYM5eUO9+q8/Px5+fh8+b9g4Bu5ot+7G6SSFVwgvlfRGi4Vqn0S9XceQt7LdYtgBxui1Zn3Lhpu9dkH4FQBvtvtUbP5bV+67UwWVxr+Shk6Cumk7q6eaxes+7lqzcX8vIv5heUV1TBWQ6lSvP6zTuRWNbWbl0F1OqMZ9IyR4+ZCAAOdvYucDEdADi4uQ91cfUcOWr8goXLlv20euu23Qf8g3bs9ANsHG/feQjH7I7O3pZWyf8BuAOd4n8BtPXvUfxPpmHjATMNYy2oPCisPCD5ul9StVdS6Scp9xN92S0q2Skq3iH6tL31zabWVxtbnq1rfrKa+2A5686SxpsLG68vYFybz7g6r7FwLu3SLPDiDMoFH3LuNFLOVGL2FGLWFFLWFGLmZFLmZFLGZGK6F9GKuBcuYwouYyouYxo+07tPPoSsGfgMqwiZM4lZs0nZc0nZc8k588i58/A5s/G5fb8K7B8yKZQrtPAWPdiewpmKH1ut/njNNFoDnkB1dfNsZHBbBVIurxWOx7DrwOEp5rZusUTJYjd391g0Wn17R3erQEQkUW7eulNUdANeWCkrrxSKJL0WC1zsD1fbdXR2Q5BRrbHuWYSX30PDoqkgg8HkwdsZGxncpmahSKyAbRL8bOkr/zBFxyTu2x8gFMlbBVJ4AeiPI/8/axkU0EpEqAIRJq8P/S3TP0K1pCbot0wLqw6Kvu4Xfd0nqtorrPATlvsJv+wRle4WlewSFe8Ufdoher9N8Hpzy4sNzU/X8h6vbvp5Jef2Yu7NRZzrC5jX5tMvzwHzZ1LzplP7sCbnTKPkTKPmTKNmTYVFzpxCyJiMz5hMyJxKyJxKzPK2KtOHmDmdkGEVMXMGMXMmKWsWOXsOOXsOJWcuMXsWIXvmPyhCw9v14Mwuv0UMb2H6F7UQLa2SCROn3n/wRG9oN5m7zG3dcPEQnkC1s3c5ey4bbpTK1HKFtvRL5Y2bdx4/+QWFxjKYbEhvHOI5dM7c+UZTm0KpVmt0eoMJniCq1FqD0dzIYKs11u2xQpH8v2Z+IaFRjQyuUmXdESORquBXeMOs1UxDZqlMbU3w6duKim7Pm78ITkFKpKq/MW03uCxHXTAM9L/L9NeDwhp/gDKEeAAAIABJREFUYc0B4df9gqp9wqp9woq9wjI/cZmfqNRP/HmPuHi36NNO4fvtrW+3trzZIni1qenBT813l/FuL+HcWMi4Np9eOMcaqvNnUi/4UM/7gOd9wFxvMKdP2dOo2dNImZOJfSJlTSVlTSNneZOzfMhZ0wnp04gZ3sQMH1LmDHLWTEr2LEr2bEr2bHL2LFLOPwlotUYP4wuXrUllanjRZKB4tnDRT0lJp+Aiu77fNGCFT29oF4kV07xnbdq8Ay4i1WgNjQwu/DfC1RodvM27VSDyHDp846YtWh0E6Y0isRReWDGa2sQSmVyh0hvMUpkKTnL3Wixbt+2mggyTuQveiwW/wqkVuLQV0rfBpr+o6PbMWfPh3Dm/RQxvsB3oK/zV7f+LCP0D6D/G6d96D2H1IWHtQUHtQWFtH9nV/sKvB0RVB8RVB4Rle0Vl1tSe6LOfqHiPsHi34NMu0YcdzY9XtTxc0XRvGef2YuZ138ar82iXZ4OXZlHzpoN508EL0/uY9vnOdI43KdOLlDW5T1PI2dPI35n2JqRPJaRPJWZ4kzKnk7NmkLNm9DE9k5ozi5LbB/Tvfj/0v8hDX7pc4D7EIywiHLC1yTmfazRZS4f/rHroga4uvJ6sUOpUakgglJnbupUqKDAofPee/UxWk1qjh4vs4LVx2DqfPHXW3WMYk9Wk1RnVGn3fzm1IBxma+a1SmUKjhcxtHZO8pqxbv9FaA603SmWKllZhW3snXN2v0UJanb5VYM1pcLgtVJAxeszEDx8/I5AN/1W8X1FZW4/A1tSiKiprv1YjONyWtvYeGFyDsePmrfuzZvsaTZ3w5kJ4BXGgr/ZXtytUSp1BvHbj0qHDxoSGxI4fOyr5SMzsCeO6lTQePuu39dBqhLUq+od7/uMbOJf3I50nrg1sqfbn1/i31Pi3VPu3VvsLqv0FX/2FX/2FlQdElQdE5fuFZftEZfuEX/YKSv3EJXvEb7dIXm0UPlvHf7SSe28p88YC+rV5tMI5rCJf1tX5zMK5zII59Isz6Rdm0HJ9wJxp9LzptDwf8II3eMEav6m53tRcb0qONyXbp0/TyVlWkTJ9YFGyp1Oyp1stxz8c6I7OXn6L+McqiVyhvVRwbew4LwIR/BGeu7otWp3RZO6C8b1x856tnXM9AgsD3bemqJEr1K0CkXVSqDeuXLVmylTvGTNntwpESpVGKlNAkEEskZnM7TDWKrVOo9VXVtXt8TuwZOlKwMbR1c3T1s4ZnhcCgIONrRO8ByzxcBI8c1WprXtpb91+MGPmvB+j/auR/df9/xbosNC48WNHnTga+2cB3VpzqKX2IKzWmoOtNQcFNQeF1QcFVQesqthvVfm+1i97W7/sFX72E77fKnqzSfByffOTVewHyxi3F9Gv+9KuzWNe92UW+TKvzmcUzm28NNvKdN4M2gUf+sXp9Is+tDzv71if96bmTuvD2oea60PJ+YG1T58V8abmWtv/A4C2rmJAZrgGSG9of/T4OQA4NODIsAGAF5zhbeFwWQUEmWtqUQDgcOv2A72hHd630peDs6Y4YKbfvf9o7+A0eco0rQ6CN37/f+2dd3xTZfv/08lSqmxoy14ioqj4IEO2DCl0D7Z7gQgooogyZVRQRJS9V9NBR7qY3clJk6bZORlnJznZ6Tz//rzPXUKB4gO/nz4+fL+/vD4cTk/SNMl5nyvXfd3Xdd2wmMVswS0YQTM2s4VwukAuFMzc79GzX71SZzKTqBGvV+osGA1Tn/UGC4xjwDl5m921/8ChUaNfgN08/tlBIcgw4S30GzMnPNuj318NdAoPdKK+OFFfBGTghRYmoqIEVJRgKIg35MeheXGG3Fj91cVoziJjxlzjpdmG8zO0p6cqj06sO/yq7OD42gMvKn4erzjwkuLHFxXp4+r2jJX9MKZ25+janaNku0bKdo2s3TlCumO4dMdwZPswZNswZBtwuKHE3w0XfzdC/N2Imi3Da7YM438c9gQADVMmTGbSZnfBvM1LlzO9vmaYywEjfbDsCm7hFHRoWNe0JSthpw6CtFkwymYH9Vf8gE+B4SQsK0xMSpHJFW6PT6PVw4lx6EybzLjN7jSaiIZGzoBiL740oZUDs4Bwrpt1eGHxYlMzR9F8GQtoAgZaz+z6IX3ci6/CvKV/HGiKoVmXJQB0ZP8+f52FTjEUJenbyVCUZChKQguBjIVJqCjRUABmFuHkIpq7GM0C4WrDldna89NVp6cojk2U/zah7vCr9YcnKA+9Wn/w5foDLwGmYXRvzxj5ntHyPaNku0fKdo+s/WGEdNdwZMdwZMcIZDuQZNtwECTZNlK8dQQUGFxufRKAhinIrMNbXSP9IwCc/uNBh9On0RrdnkaaYeHUN+zd0T7xY/iIMaOfG9fSCuZo7KybokFfDsZqN5osJ0+d8foa0pYsEwiCQ0LDx417qfTajVaOwwkKln/bWYcBNas1Bni1IEjdkqWrdHqzyUzCHP9AsrVSpTdbKDhHCMeyG774esbMuRBoxgrqxv/cK/j77gVuPQ/0tFmv9ejZf9nS9yL791n7ybt/kcuRghanGIrB9q6KUowBFSajoiRDQaKhIFGfn4DmxaFXFxqz56OZc3UZs9UXpivPTlWemqw8/rry6EQwEfPba8pDryp/5rEG1voFRfqYuvTRdemj5ftGyfaOrN09onb3yNrdo5BdI4F2jkB2jmybrNk+kp+yGS7Z9iQADXPcjCYiJLTLO+9+1NQMTKbL3cA6vDAHiCBtMI4Gkzxh17m4+JRuTz0DJ8D5ylaH1cZaMOLATwetNvaPueslS5cHBYfu2ZsuCArpHvFMXr7IaLJ4vH4YCaEZu8MJetjhhNWC0a+8+jpMbUWNOGrEjSYCZuHBv+X1NcPMqj8mL5cuezttyUoWNHQENYj/LNC0lWFdlgDQUQP6/pVAF6WgxaloUZuMRalQYJGh4jRTUaqxMAUVJaOiZENBElqQYCxYhOa9ZciZr8+aq82Yrb40Q31+mubsG+pTUzQnJmuOT9Icmag+/JqKx1r180uK/c/X7x+j+PE5wHT6KHn6aNm+UbJ9o6V7Rkn3jEZ2jwLaBTUa2TVKsmO4ZMeT4EPDL+6o6KFpS1bCSHMrB5iG5S2wHYeddRtNBGzbBe3ilu92hIR2gY4BzbBWm0NvMP188JDJjDldnj9c53fefT8i4tmqanF2Tq5AEPzU0xFHjh53ON2M1Y7hpMfb4PM3w8xsaW19fEKqz98Ce4P4/C0NjRyccGls4gLBQdjVbvacBes3bHK5GwjS9s+GOMDnYGVYNwaBXr7s/agBfT//9L2/yEKnmorTjMVLAjIVLzEVLzEXLzGXLAXboiWmwjSjKBUtSEELUgwFCUbRYlQUg+Yv1F+dr8uaqxPO0V6Zpbs0U3tumvbMG9qTU7QnJmuOTNT89i/VrxNUh16u//kFxU9jFD+NqTvwnHz/c7IfR8t+fK42fTSybxSybzSy9zlkz2hkz2jJbiBk92gJsNkjBGY+ymHJurusWyBsh+a9piqYKc1d6rjTxuAfCdtJa+v79ouOjUuGXQ1sdpdag8KABkzngFOMFM2C1ip8CwSaYX8/chLUICJ1MA+OsTp++/2YvE7p9vj1BpPX1/jtlq0CQQiCyFo5DkFkAkGIQBCyes3njJVlHW4DaqYZ1uNtVKp0VdXIRx+v9vqanC5fZZXk5KlzO3ft/Xzdl3HxyRNem/T1N9+ZLaBZmdFENDZxE16bvH3HHmiz/0GmSZplbE7Kyjhc2IyZr/XqOWD50vcHRPZds/q9kdH9G2ippmKzCiwxscJSDAJ2zHUYtkvFQfDuPt1NwQuE7SxFfwo0z7SxKM1YmGosTDWIUlBRkrEoDi1chIpiDHkLdTnztZlztcI3dRlz1BdmaM5N15ydpj41VXV8svLo68ojE+t/nyA/NE7+ywvyX16Q/Ty29qextQeerz3wvHT/GCT9OSR9DLLvOWTfGGTvGGTPc8ieMcieMRLggYwQYJnTLZkzsaypeNZkInMSJZzSBnTWy2jea8qCmUjeUlaVgSLXogf0+keATkld/smna602Z0MjSHmD9aqwHAsab1hFAgPVkGmW9Zw9d1kgCLuaW2i1OZuaubz84rLyGpKy2VmXw+l1uf3ffb9DIAi9dbvS6fJZMEqjRSe+PlUgCH1h3PiKSjFjZa021uny0oxdVFgyY+acpctWzpu/cPO33x87fqqsvKqySiyT19vsDoq2WTDSzoLqFZ+/Zdr0OevWf+VyN5CUHfr3f5+X/CfPDNYJsbIkQ1tp3Zzpr/XvEbkk5e2oIVFrv/x04MC+HgbRlH2jKV6KFy8nCkE+NHk9DS9NbqcUvJRXSSpWnMIHodOw4nvEW+g0I7DTQG2eRnEaWpgSkEGUDKUvSDCIYg2iRWjBIkN+DAqVC+bMdcJ5euE8nXCu7sqb+itv6i7P0V2crbs4u+7E63XH/1V39DX5kQmy316tPfRy7S/jZQfHy35+Sf7TS7IDL8p+fFGWPq527wtAe8bK9jwv2z1GgGdOxzoC2pT1siH/LtCGfw5oO+uW1tbDPog6PTCcgRiCzQ5aOMMeAzAzDuLu87dkCHMEgjAEqWvluJLSW6dOX/ijHAvG4Oys2+1p3L3nR9hpwOnyO5w+GOD7+pvvYYz5yNGTFG1zub3yuvpPPl29MGaRBSMcTjdOUBRtdXt8sFspY7XTjI1lnaCBmAN0KuvbL3rDF1/7/C00A3ro/1NeBwDa5iAZ2kbp5r7xWuSzkctS3okcFr36q08jB/V1WQHQuqKlZNFyUgSAJtqATsJLk3is7wBdmtIO6CVY8V3dB3SAbLQo1VCYAqUXJUMZRIkGUZxBtBgtADLkL0LzFxlyY9DcGG3WAl3WAm3mfI1wniZjriZjrvrKm5orbyrOvKE4PaXu5OS6E5NkxybW/v6a7PAE+eEJ8l9ekf/8suyn8bIDL8l/fFGePk62b5x83ziY+fQEAM06vDC/nmZADjScF4RhaTjDDDvRwNgwDKLRDHs1tzAktEtlFaKo1/72+wlYfcg6vPAXPd6mXw8fEwjCMrPyoO2vlSlBnr7De+78lae79wgN63Lt+i2SArnUB3/5df2GLz1ev9vjM5kxsBKPjYUZILBey+dvpGib1ebwN7R27tJ9954f4dw47E3zJ3b077urPdDzpv3rPww0HCm2ZxoADWYTYw2ixYY7QKN5i4x5i3TZbwFlLdBlLtAK52t5rLUZczUXZ6kvzFCfn64884by9NT6E5Prj09SHn297tcJil8nKH55VXHwFcVPLysOjK/b/1Jd+otgdmbfC08A0LBNB+QY5nvAfbCGCG+tKRq0tYUdMGBPW8bq+OXQkbDwbohUIZbI8gtKvL5m2E8fFrO4PY1nz10OCu50+UqWy93gcjeYzKRGa6Ro1utrvppbuPGrzSYzrjcYWdZ56Nffvty4yYIRqNHMsk7Yewmaar5pmM1qY/UGE0XbdXqzQBB2JSMbxvVgofjfR+2fPDMEmrIydlo/b9q/onpEQQu9ZtPq/4CFDoQ+AkzfAToOLYwzFMSiUPmL0bzFhqsxhqsx+pwYffZCXeZbQMIFeuF8g3CeIWMudEK0F2Zpzs3QnJmuOz1deXSS6sgk1e+vqw5PVB56TXlwQv3Pr9b//IpiP5iaeQKAdrr8/oZWmAnER5SBnYZ+M0HaYN8Cs4UiSBv0JUjK/sdiKx99vEYQFA4DZza7y2giKBp0d26bTXR4hZm5YeHdLl3OhFmmYH0WvmMvasQbm7jmFo5m2tyJc+cv7t6zr5Xj4LSiTo9abazJjPF90X0wZgItdG5eUfeInrUyJXydNAMKH/8Eu7/vLrDSjR0MCgNAL099N2r4wP8A0ND3uI9ptDAZ5DMVJqAikPJhgNPjBXFGMJsYa4ST5FcXGbJjDNkx+qwYQ9ZCM0hvWmjMfAsVzjdcmae/9KbhwhzD+dmak9M0J97QHH9DfXSK+shk9W+TVIdfVx+eqPhpfP1P458AoGHzOAOKwSlDGOKFHjMMEsMqKXgvnPigaHbci6/27Rft87cwVgfsqASdDThNY7O78gtKQsO6njp9ASbKGVAMTl+3ciASp9YYCJKx2UH3sN9+P7p+w5cYzl8xHp/Nzvr8jXYWBLahwcYJSm8wkZStVqb8fusuGEOE8RZ4If194D7smQNAs4xh/vSJ0T2jIdCfff23W+iAM20sTgv4HmhhMlqYaCxKMBbdz7SpoC2fCWDNT5KDefKcRZbcxZacGHN2jDHzLaNwAXplHnp5LnrxTe3ZmbozM3WnZ+hOTdeemKY9/obm2FTNkcn1v7yq/OWVJwBoOGiDZ06jNcIZb6fLD0dd0IWArZJwwmpAMa+vecfOveGdnlr7+ZduTyNJ2fUGiwHFAhXasJdNcclNmO8B+8XAqwJ2Kecru/webwNsga6oV9WIkcamFlh32NLKYTipVGkQpLZAVCSWIPx0DEuQVlh8BZ1+uDzFP1VTSNIsxbpomzUA9Iq096JHDPoPAG0qWWLiV1MOAA3W7SxKQYsSUT6BCWx5Ow22BXGmwgSzKMFUEA9y9PLjjHkgTc94dbE5d7Eld5ElB9hpVLgAFc5Hr8wzXJ6rvzAH5ljrz87SnZ6hPTVdc3Ka9sS0+sP/Uh5+7QkAGqYEUTRYhMpsoWATaLOFCkx0Q0/DzroNKIZIFTt27u3cpfuw4c+xrAcaSJAHd2dxCbj6idXmvH6j/I+qqh079zpdfpXaAFmEcQmXu0GtMZCU1Wiy+PyNrMNVr1Rfzc0/+MuvX3z51cuvTBAIgts64gWFLFm6XKXW8ovEgRcAX0ZLKzDzinrtP9XG4L8E6LtMgxnypEBSHhgg3mHaXJRoFt3LdG6sKTfWnAuYhnnVqPAtg3CBPmO+/vI8w+V5+ktz9Rff1J2fozs3W3t2lubMTM2p6YrfJ9b/NlGACadZhDMsmVOwO305aOF0/MokY+Z4fd6E+vwZktwltvrLeqQ0ekCvHbt2dunWNSUtVRAk2LzlW5fbY7Wxf3c+9MO+VQOeBoxdOF3+AlFpt6ee+SNaN3/BomvXyyDHrMOr1ZkI0gZX9wHF4XxvXASpEwjC1m/YBOusoC8Og9l8l1GGZV3SWvm+9B/79O0vEAT36ds/Ni7h09Vrjh0/WVlVs//AzwJBcFJyKoLU3rh522jCzBbQzNeCgbIAOEhFjfg/CDRuZaEP/ebUCX27912StGromOHf7Nr0sEEhVpKElSTySsJgaw64vRuHvhuzw8CMILDED6q9y3F3vySVz14CSXloUaKhMMFwJynPKEoABV0FCcb8eGN+vCk/3pgXZ8yNM+fFWaCuxlp4mXMWW3IWGzNjTMIYo3AhmvGW4coC/aV5QBfeVJ+cpj7xxhMMNEnZ4WgP9uWws25/Q2tZec2t21W1MqXP3+J0+WG7aL3BAtc1hPEQGHxQ1GsFgrAPPlztcjfY7G29zQNAE6R15ap3Y+MSvty4SZiZjRMUyzphmgfrcE2bPjMsvPOlyxlwAYDDvx05fea8x9vocjfUK8HKLEYT4eV7+sPIycOuyb/vOEmz/3VAF6fo+Yw8kKZXmMhHphNRUaKpsK3vh6kg0QjKb3nlxZuB2pg2A4Mda4IVA1kxaCaQXviWLmOB9sp87eV5ukvzVKdnqE9Pf4KBhk1sYdtcl7sBJgzZ7KBLOSy2RY04hjPQjYYON0w2gvFso4l4unuPuPgU6I1A17w90KzDrVJr+cW1rLDQkLHaq6rFvfv0S0xK0Wj1Dqe7leNgqct332///cgJ2GkX5vvbWbdWZ/qTIt+/j2aKX8z33wKtLVxCFC6DEyv4tdS/3ULz2XmG4hRDUTKQKAnKWJhsFCUbC5KMBUmmgiRjfiKvBHN+giUfMG3OA/UvAcESGDQ7Rp+5UCd8SytcoMmYr70yX3VulvrczCcYaJg7akAx2LUW1tjCYlXUiMMUPLi0K8QUes/QS4bjwuiBw6ZMnQmTmeCQMQAZSYFVKaw21mzBDajJzjpMZiwvXyQQBK9es5akGGmtnKQY2BdBo9X7G5rf/+CTY8fPwF5KsCPwf63L4WQQ9e2vIdBEQSpWlPz3A51mKE69qyIwlajnJ8bRwhRjYYpJlGIsSIZC8wHWEOgA02bgh8Qac/lIyFVQCKPPidFlx2gy3wISLlBfelNzcc4TDDTEFJpbnLDCxU1gCwS4oiHMZoa2GTRL5pfQhKFrq83pdPnHvfjqmOdfhL/bDmXQR5SiwapZFG2FBeGKetXxE6cEguDDvx2hGZsFI7w+0D4dw0mtDjT9oGgbY2VT01Yc/u04bJiE4QwMnwee+T+58ycux4CBfSDQGlEaLloKgcZKwRqyf6cPnYaWpBlK2mHNMw1ohnmnhSlG0V2sTQVJFlGSpQBgbc5PMOXxvjXvZBvz4wOFMNqcRZqcGHV2jDpzoVYI3I8nGGjYRtFqc8K4G5wxgSnRsI8jnFUJNLrFCStMXYKFLS53w5SpMwcNHgGTquGFAb6s+ca4NMO63D7oaeAE9enqNQJBcHZOrlqjY6x2WIaoNxjhwlkmM+Zwejxe0EphydJV+w8cgmnTgWWV/5Mow7/150A7aInq1iYINJ6fghUl/weABjSXAqYB2dBaQ6bvJFJDOw1NtakgySwCTJtFSaaCxIB7DXrcBBrt5cdrc2M1VxereKx1mQv1mQufYKA93ia4LAsMHoMpFb4Oii+4AsvNw4JZWPwHE/BhS1yIrMPpe3PuwgGRg2FqdWAWHd7LWFmdHvD6R8Pzd9/7oFPnrjdu3mYdrqbmVrheFkVb/Q1NfNE7iO7hBI0aQczO62ve9PV3q97+AAYW/wsHhf2je98HtKUw6T8ANFq6BL22BDId8D3Q4lQQCeGZhjUB0E5DoM080HeZ5htGGtuVeGnz4jR5sercxZqrwAMxZMcAoHHhDFw4BRdOwjJfx4STSeF07Moks3C88eoEVd4M5OoSm/KyDobtdu7s0rVrSmqaQBC0+dstLrcXpOnQ9nZiwRzVHf09lslO0cArAK3DWI/D4TMaCYoCFddGI1h/m6KAlYXhMxBBw0AhIJzmgK4tNMN21v3Wwth+/Qfq9GYLRsP8EOif8A8G4UiH052UnCoQBKNGc0Njs9mCkxSD4ST0OmA6B6wYgHW1fOdzkKEqFObMnDVXo0UftgoWSdsxqxW32ijKwZBOK+lgSJai7PxH5yBpJ02xNGWnaYamGZKxkqBdhJWmrXyQ1AY/gfs/XoqlgOw0/zy41UHaGBujmTNtfJ+InmnJK0DYbuc3A6L6OilEc3OjpiAJE6ViBUmmomRzaYrlrsuRyLsffFPdkuQ72Xap96WPWkrSzCUgeHefAnmk7XcAtaVL0NIl0EIHjDQEGiTutbPTkGkzcKyToeCQ0ViQhIqSTEUpxkIwptQXJOryEzT58eq8OM3VxfqrsWjOYgEhnE5nzKSFUwnhJHPW68asyZas6eaMSZhwPJ49QZ8zQ5a9xKq8rJFeGxTVd+fOXV27dktOTg0ODv3iy00+fxNjc1AMC0UyLMk4CMZJME6ScVKMk6Y7EIaBs0iSLEmyNpvHanXTtNNm8zCM646cjBWskgaF4TROMARp5c+ijaSsOEFbMJIgbARuJXArjjEEbiUJG0XaKdLO0GyHInCGpuwEzjgdXpqy+33N06fN7vFsHwJnCJwhCStJWCnS1ibK6nJ59u//KSZmMYqa7HYwy61UqkmSxnGSJGm4QxAURTEUxfD1iHarrb1AUh4fp4dXIOgrAi8bEBFnWdSJGUFdtofFG1yY14E7rbSNsrIGC0tbG31uDjOYGdzodtOEDSNsJEVjNIXTFPiTFGjPDoYNJMUyjBPKyjisDGtj7DbGzlhZjHEYCAtJy2bNGNO7x9MLFy4cPnbklp3fDejbz40h+hsb0KIEqiQJK0wwFKfoS1PNpUlYScIdQaaT7pANk0hhYjRotnsH7nsi0+2TS+/bt4CI9dIOZeRLXWDBS/utsehuanW7vOokfUGbdPmJuvxEbX6iJi9Bl5dgyE1AryYAoJmMmdaMqaRwkin7dUP2ZFP2dJNwEpExnsyaYMyeIeeBVkuvRQ/ovWPHri5duiUlpYQEh2/88puGxlbaCuwxcUc442gT7bDgNgzrWATBYpjNYrESBMCaJFmI9d0LgAHlpVBwiWKKtsOwA48IaLJhZe4Hlz+jjg5pZmgWs1A0ZaNIq9PhoUir2+V7a0HM0CEjMAuJWUgco6AInIaygVQNh05n4DhOrdaiqMnhcDmdbpq2Wq12q9XOMDYoft9KUhRJ3ysKdJtmWVe7twBqZkFPXhLXukx6B06TXoe5yWPyuiwOhqIJxmokXWbcY6e8dpxx2Qmni8BY0mglMRIjCJwA/yiMsGKE3UKwFoLFSCdGOHEgB/g8CTtJ2HCSJdlGHCySoZ3z5tiePbrMmz931Ljn0n/eH9VngMeCGG6sNxbFUSUJlqJ4XUmqrjSNBzoeK4nnmYYzLPea6nusNWT6UYHmJ2IeCnSgjqv9DlqUZihMhdKLUqB0Bcntpc1P0uYnafISdbmJhqtJ6NWkxwB6QN8e27bt6NSpS2Jickhw+NebtjQ2cRTDYoTV0iabmbS3ibCTtIOiOhAkmCRZHLdjmA3H7RTlsNk8BMHeFQmWr4RiHR7GCjIlSArEHGx2ll+UGwANCQ5wzH9NsyRh61BWhiUICkVNEEe7nZ0//61nn+1J81/lNG1tD6jVaidJ2mZjIb7QKjc3t5rNGMPYrFa7zcbabCzD2CiK4R9jY6xWxnavrDbGarezYM0u+CUDjTQAGsfVrElrwwmL2442OFAna7ISBG6iCIvNY6G8mMnmtDmtNG4iTEbWqWGclLOBcfgZRwPjaKIdLTTbSrEcxXIkL7hPsxzNttJsC8W2GugmlGFpVjd7zrh+fZ5ZsGDBiBee2/fT/qg+kR6LlLfQcSRncBh0AAAgAElEQVQAOk5fErDQTwDQ7cmGQGvzk3R5yY8NdN9eEVu3bg8P7xwfnxgSHL75m+8bmziMYGys29omD8N6AyKoNusbIDiwQ1EOlvWxrA/6Hgzjommn3e69K9ZjZ9135CIp0FjDgpEwjsYHGSjgYlJtRpqmAMc4xmAWGseYjgQKRgmCMhiMBEExjM1uZ9et2zB37nyCoAKCvgT0Imw2FsdJhrE5HC6Xy2M2Yy6XhyAoeAHAq4IkaYsFxzCCphkMxzHiXuEEhpMkZbVglNGEWzAKpgSC/v40Y/baMLeDtbZ6Sc5PNngZp521Uk67BmNMlFuvJ2yMAzUZ1WZc5+BkDKexc1o7p7UBadpJxXABqWkOiAGyeDgz24IxhqlvvBDZt3fsorhRLzy/98f0yN5RHkut/sYXaFE8BNpQknzH5XhigNaLUgKmGgKN5qYYc1Mew0IHgI6LSwgJDt/y7baGxlaDETNjtKlNjBG3tgmzPgxovR43GimW9bndzSTJms2MxWLV6TCLxXpXGEjYh2KsMCoMxkOgtyLrhKmbNhtrB0t8u4HsLivDkoQVs1B2m7MjOWjaCn0GaFmbmlpksjqFQsmyDl6gbzTLOh0OF5TBYLTZWKfT7XC4cJzEcdJqteOgaZjDbmfhU1mtdrMZ4w+yNrsdvKL2srM2O8tYWZKyYTiN4WARLRiE0VtwNY1rKRo3eRi912aw0SbMTKB6yqQhGIL1Gy2M091o8/gdHFfv4PKU3DULV2oB22tmoNI7KkY5IMNdFaFcqYGrs3GEj7O62UlTXuzTo0fcovixL7548NdfI3tHuy0y3Y0vDUUJZEkCVhiHFiejpSmW0kTe3/hvdznaOyEBpg35KY8NdL/ez+zYsatTpy6xsfEQaK+vqV6lEyPymjbVVSOKgCqqpJWVHQhB6mUyDUmyLOvT63GFQl9fbxCL6yQSxV0hdRJEDkXRdpvd6XT5vL5Gf0NTQ2MzlNfb4Pc1Nza0NjVyfl+z2+Vn7S6GZpsauY7U6vX6W1s5juP8/ga/vwHs8Td48M5Pd/93u73Nza2Njc13D/F7DQ1NPl9DY2NzSwvndnspirFa7aAGgeM6lL+h2eNtdDi9FG1HjbhSpZfJVRJZfZlMViGtR6rRukqDoqpOJhZX11aUy6tvSmur5JqbFWJpvVaFWVUst+1cXcwm0bh3zo999/LYdy+/8O6l9hr79qWxb18e+/aVsW9njH1b+DxQ5kurzn/1m/S63M14fFOnTewV0XPRgsVjxo796eeDPNBy7c2NhqJEsiQRK4wzFicZS5KfLKANhantfQ9DfooxL9WUm/oYFjqyX89du3Z36dItNjY+OCjs281bXW4/Uquokciq2ySvQuraJKmTIPVIR6qqqq2pkZtMNEU5ZDJNTY0cQZS3b4trauR3JZbViGuhTGbCZnc2NALw2qupqbWlue1Qawtg2unw2m3Oex7U/hfugNncfJdRv9/fcufWyt/uPIrz+fwtLW0/NTQ0ORwulnVwHNfayjU381cGxzU0NDGgSNbR0nL/ywv85ZZW8IoaGlutNodGa5Qg8soqpLwaKUcUFYgKqTLIK7TyKikirqqsLb8lr6pRayrr1GViRKzQKAinhOZiNxWMWCYcubpq8Brp4DXIkDXI0DXiYWtqhq2pHramevga8fA1kuFrkGFraoeuqRuypn7IGuXzq6vHpRw9lmfAnE2T35jSo3vPRfNjR49+bs+evVG9o10WufbmV/qiJLIkES+MNRUnmEqSnjigA0zrRSk80Gmm3LTHADqqf6/du/d27fpUbGx8kCB08zffsw5PtVgqQerEbVLUSOvbhNTXSOrE4g4EqTUaKRy3SySKykopgijLyiR3zbNEIWlnoVVqPUnZGpvaQIV8gD5GjS3NTW1AtzRzPm8jiCcwbMdAg8c3QTwh0A0NwEg3NTVBnu+jGYILH+/3NwYob20FQDc1tZHu8zWQJG212v8E6Mam1pZWsKCoze5UqQ3VNdLKKqRKLK+SqmsQXW0NWletqxPXSpHqqrrKMoX4lkx+XSy9VSOukNWLjewNM/fG6oJxa6TRa/V91uF911n6rTMNWGeIXKeLXKeNXKcd+IVh4AbjwA3m6A145AZ6wAZb/w3siM/R8e/knLvlJv3cqxMnde8cEb8wftwLY9P3QaDrNDc36YuSyZIkvDDWXBRvBomjCU+Ey9Fh9MNQkGrMSzPlLrkLNCWcbM6ZhOZMMWVPx7Km0pmvEpmvGrNn1OcuZzVCFVI6MLLP9u07w8I6xcQsFghCvv9uh9fXVFElQaSK2xViRKaUKbRl1dJblYhEpiq6Vn67XCKXa6VSVWlpuVptEovrKiqQ2lp1RQUikSi0WguG2aBPUl0tq61VV1ZKr1+vFArziotvy+s0t8uq5XVqaW292ULSDGjeBeXx+inaWlZeeetWGUFQHMcF7CiOkw6HKwDfgzvNd24cx3k8nhb+N5ubm1t5t6OxsbGlpaWx8S6+7Z+hpeWubYZeCjTVOE76fPy10dzs8XlbOc5kMbdwrazTQdFMU3Or19cILTRF25UqvVgiq66RFpbcFtfqyiuVGjmhrTWqZHUyuUSqk5UgFUVVNeW1igoEqZApain/bZp7fmX282v1vVabI9YyUZs9vddRz3xqePZTbf91xmc+ru/+gXzAenO/z/Fea4inP8J6fu7st7FpyHpqzMr8g/l2o4ubOvPNXhF9Y+cvGjNqxJ4fdkT1jnJhdeqbX+uKU8iSZEIUhxXGY8UwAv0PDAo7DE6bSpaiRWkdKhDLa79jFKX9ZUDXSGRSuaqsUlJ8rawaUSg0xkqJvF5jUmvNVVW1MpnGaKRqauRicZ1SiVZWSqVSVVmZRKlEHY4GhUJ/7VoFipJnzlxJTV311Vff79t38O23Pz706zEJIq+olFTXSBX1GsYKgG5q5vwNTZevCDd8sfHLjZvWr9/wxRdfZmfnNEB3hONomjGZzO0pbL/v8XigVeY4zuEAzgO8tfdAIOLwuMvl5jjO52uAvMKD8OLpEGif37/l++/iExMO//5bK8cp1aoPPvxo8pQ3CJJpaGz1+Zsh0AhSJ5OrqsVyudJ87QayYFZCYkzqe6tWLV+5JHZZctL77xw4dqayVimWSStqZQjpuU5xL7xXOmK1qdeneM/Pbd0/MfdbR0VvIIZtIp9aVfP8d9SITZaoz/W9P9EN2+SI/tI5egcX8Qnb+wPDqJXFBwpcBjc3Zea8XhF94uYvfH7U0L0/bIvqHenE6lQ3v9EWp5IlKaQoHhfF40UJ+D9kof/rgK6r196uEN+uEGfnFv1+4tztKiS/+GZhaVl5JXL69OUTJy6UlUmOHz9//rywogKprpZBH1qlMlosVgRRyuXasjLJZ59tvH1bXF9vqK1Vm0z0Bx+uLiq+ceNmRY24ls+ycLRyXHMLJ5Yg23fsOnvuQoZQeP78hStXruzcuRNBEEibw+FwuwGFD7m1ulzOhga/3W7bsWN7enr6gQP7b9684fV6LBbz77//xrL21taWY8eOCoUZW7Z8m5EhZBhbU1OL2+1tbAR2vKWl7dugQ6Abm5rWrvu8WlwDv0msdjC59+57H5jMuM/f7G9oYaxsvVInQeR1Co1Upi4srZw7LwGpUiIV0prKypIbxbcQSd7tilUffyGR62rltRVSBCGdRRbupU8qhn5iHLyWjPoMH7DaMOAT5QtfW57boIo92txvZenwT2sGflA14Xtq4CfKqE8NQ9fb+nyEj1iLDV9ZnC7yaT3c5Flze0f0jJs37/lRA/fs2hLVp78Tq1Pe2qwtXkKWpFEFCWRBAlmY+IQDvcSUv9Sct+wvcDlERdfFSN21mxXpB3796tvtF4VXv/5u5779v17NK8nIyP38801ZWaKjR8+uXr2hoOC6RKIoK5MoFHoUJXU67Pr1SrOZSU//5eDBo+npv2RnFyKIcu3ar/5oEAPXkiqvEBtNuAG1+PzNf3jPG7/6+vBvR77cuOngL4fS09O3bt166NChzZs3cxzncrnAlDRNP4RmrrGxobW1meNaXC7HwYM/saxdLK7OycmqrCw/fPjQU091FQozxOLqHTu2Xbp04ccf07/77nsUNXH8yK+pqaWxsbmhoQkGPToEuqW1tUYi9vp9rNPRDNxm4CMVFZfCZqdNzRxjZRX12qpqRILIyyokW7btPXb8IlKjOPjjL4WFBek//Xg+J+8monor9u26ekutVFKFVCts7jyUe3mNeOgnphc3O/u+rxz9pXnk5+rRa2U7JFzcr+y4tRWRy3KfX1218Ro3+rP6V7bYoj7SRX1s6b1cOnRlyQ8iv8rDvT5rTq+IiPh5s8eOGrB31zdRffo6cLny1rea4qVE8RKqIJHKT6REiQTwOv6LXI72s4bt99t7GoF9owgCvfwvAFqlQW+V1xhMxI3b1d98v6tSIs8tvP7t1t03b9eIxXVfffW9XK69dq0iLi5NIlGUlyMw9IGipNPZWF6OiMV1u3cfuHGjKje3pKICKS0tz8+/ptYY5y9YVCOura6Rmi0kY2WbW7jGptYNX2xs5bjN337n8frsdvuuXbtaWlo2bdrEB+P8brfbarU+DGiOa21ubvR4XGaz8e23V546dWL//vRLly6wrO348aP79u25fPmi3+/du3f36dMnt2/flp7+o8WCQ68j8JwwvtEh0K0c5/X7IMouj9vr9zFWWyvHuT1+6EPTDKtU6eGbKrlWlrRkpVZvqatVXTp/ee78N7fv2V1YLikqU8QmfKLTMNKaCom0Uuf05uq58aurh682R39iGLhaP+BDWeT7NYfNnNDL7Vdw393mDmm478q430zc6M9kz39hHPC+auhnVNQHykFvl+4oalB4uYmzZ/WKeDph3oyxI/vs3bkxqk9vBy6rv/WtungZUbyUyk+i8xPpJx9oc8EyS/6KvwDosgpxZY20SlybkZl34uxlhcaYkV2wdWc6IgW2VijMLyq6dfjwyQMHfhMK85RKtKZGXlYm0WotXm8r9KHz8ko3b96RkZG7c2f67t0Htm/fJyq8vvnbbTXi2vIKsU5vYllQ7MSyrh07f/ju+21Jyam79+zdvn37smXLvv/++x9++AF6Gm63myCIAHz37rQyDMVxLRzXwjDUsWNHnE5WJpNevZotEuUfOnRw1aoVWVnCCxfO/fzzgfT0vWfPntm//4BSqfZ4fO2jHPA5OwTa7fGcu3AeNRm9fh80z03NLVcyhKzDzS/J3EhSNrUGldbWI1LFjVuVCxbFl1WJJTXIiWMnVn+2OnXlqmqFqbRcu2LFJr2SkVWXI8htPevIN3AvflI2fDU27ntf9OfYkPWmAR9LFx1vPUpzU3ao56Sjk7fVv/QVMn0vNXytYtjnhtGb7ANWk8PXk5FvX9ta3CD3cq/Nmt4zomvCvKkvjOy5b+eG6L49WbxWcftbVfFyongZnZ/M5CUxBU+8hTYXLP9rgK6Vq26V11RUI9duVuYWXkfqNLcqkSMnzufkFv/885H09F9EohsnT148dOi4VmspL0du3xZXVdXqdBhNO+vqdDBs99FHa0+evJiXV1pUdKu2Vj3x9WnlFWKV2lAjrjWZCYcTRA/ASEul2bZ9JyKV5eblZ2dn19bW7t27V6VSQc4cDofdbr+X48BPrTzNzU3NfpebFQov5+ZlZwgvlZXf5Ljm5paGm7eucVyzy80WFRcUFRfk5GQJhUKdzuD1+uFT+HwNkONARO++KMcfC29++PFHiBRhnQ6n22Vn2ZZWLiZmMc2ATk5eXxNF21VqAyJV1MqUFVXI2UtX3v3wIwzDjx07htNEfun13GvIrSrzOyu/VUtxlaRKXF2qpIhiMzfu45uDPjX3X8f2WGuN3Gjr85l+zPfEnCNNy7O5qE9vD18vHroOiVxTO3C94en3VP3WsxGf2oZtdvd758Z3xX6Zj5swe1rPiE4J8yaNG/nMvl3rovv24IHeoipeQRQvp/NTrHnJTEESWfzPzBQ+bFD4sOMBN6P9jlG0xJy/3JK/ElhoSjiTEr5BZE42Z08y5UwxZ4GwHZn1Cpb1qiEHhu0ytEjJoAEdhO0qqyTV4lqt3lwjkd+4VaXSmsVI/a1yibxeX1evR6TKarG8RlJXVSNDTVSNpK5GUlctlktlaoORpBhntVheUSWtqJJKkPqvv94WF5eWmrpq6dJ3bt+uqZUpKyuRqmpEo0Vhb+ZWjvN4Gyoqaz75dM2ixXExMTEffvihTCaD5rmxsdHpdFIUCOR1eGtqauC4Fr/fy3EtTU3An/b5PHAf3uV2OzmuBW4bGxtagBt8N+TcfsqwQwvtcnsO/PTzrNlzftx/oJXjKiqr5y9Y+P4HH8OYY3MLWM0W+tAIUgfCnfK6pStWpKfvP3rkxPYdPxw9deHHX87u/fHM0iVrpWK1SoHcrrwuNmHXMO7lj4oGf6Ts9RnZ6ytX548Mfb4gOr+PdHuvevhmQ4+Pq/p9hgzaqOm3TtN7nbHnOmLAN95eG309Vhui3inYUcQqPNxrs2Y+G9Etdv60MSN77975RXTfCCcuUd3coi1cRRUthxaaFiURxWBcyCsRL0nES5LaVJyM31UKXgz1l2XbPQTcZaaSZaaS5Q/KULjkQaGipWbRClP+CgGeNRPPnI1nTceyp2I5k7HsKWT2DDL7DfzqK2jOK6qcN2pzUh2KC9rKgpGDI7/55ttnnunx1lsxAkHIlm+3ca1cVSVSVlYjkdRJpcqqqtrycoSf+VMhiLJaLOtQiLRejNQZjITRTFVWS8sqJIi0vrwSQRBFO9UhSJswC+10+FqaudYWoJZmzunwYhbKarU7HM6GhrawcWNjk8vlttvZlpZWMM3Bz4C0J7u5ueVOGPpR/r8zSdj+Kfh9GJCGh/3+RpsN5HWAP8e/vIdtfd5mArfKZarqKgSRyBX1mmqJ5Nr1G8IrOcd+P/fLgROHDp46euzCqbOXKiTiG9Vl5XViEYLU0M3ldm7c0jOvrqsduMHUeyPdeyPVZyPRdyPWd6O530ZTv43GqG+w3hsMEZ9pIz7T91hv6fkF2fMLOnpd/dClx3+7Tint3OQ5i3r3jVq4YGH/yP4/7N42eEB3t+UWen2rRfQ+k59G58XThcmW/HisMMFyjxIthUDtaL6P7LT7kp7//EfzQ/KhHwa0uWSluWSVqXgllLFoRXuhhcvRwuUG0bJ2Wm4QLRfgWbMsWXMsOdMtOQBoInsKlQWAxnJf0ee+XH8VAO1UXNBX5A/s02P37r09e/ZetChWIAj5etMWArdKxDKePAUc6tVKVbJataRGUVaG8NOHcjFyvxDeiTSaSQvOSJC6qhqpVKasrEbEYpmkI5lNJGt3N/hbW1vuTK60goluMO/d7ub3N7IsyEBqd+ye3ebm1scSvCQe3DY0gOlF+NQ+X4PdzrpcHniltTSD6+0+NTeBIz5vM0nY6uTq6iqkploqlcrFiLi6RlxVIa0qq6u+rRSXKyXVMgmCIEpxpbL6llqaW1t3zegvMnKT3j75ykdFg9bIe3+OPqhnV2v7rjcN+BLr/4Wl/xeWqK+IqK+IEeuQcasObz99y9rCTZwe0617n+TUFYOGP/fNls2DB3Tzmq+bS7cS+R9a89OYvFiqKMlUEI8VJnYoojj5QfF2+m8Ferm5ZJW55B1T8dtQxqJV7YUWrkQLVxpEK+5oub5wmb5w2WMA/WzX8K1bt3fq1CUhIalzp26rP13rdvmBvUHqKiuQ27dqKsoRcY1cIq6TiOsQiUIskddIZA+qshqpqpFqdCbUREiQuspqpEYiu11WLa6p7VBmEwkWc3L6fd7mwFx32w6PVXNzq9/f6HC4YBJzQ0MTVGNjc2Njc1NTC9Q9dD/CDw+iDI+0/1UINMs6fd7GP7HNDf5Wj7uRIu3Kel1NtbSqEhGLkcrqihpJjRSpr5Ma6qVmBWKUIWoEqZXIa25Ly65WXiuoldfQLVUMl/J1zqikk6NXI4PW6B7UsHXGkV9Yhq0zRn6i6v9RffRqTdSn6iHvXZ/y8fHjRUrMzb02dW7/yCHzF8QMG/38N99+PWhAN4/luql0K84DTefFkjzQlocAjRclPSjQ+QA09P8LEvwfYqH/fqAje0Zs2fJdaGh4bGx8WGjn58eMa/A3IxKZFFHUVNdWViCVFUh5meTmjarbt2rENfKKCklFZQeqrpFKELlObzaaiDqFBroWFZWSmmpph7IyDrvNxdrdQKzH6fA5HT4H2PHAPE+Y9nknC7TjXFCn0+33Nz6WvF5/h2JZB8wdtdtZDCP0etRgMFrMhMfd4HE3PigcY2DlgdlEKuo0NdXSinJxRUUVIq0RI9VV1Uhluazihrz8uqz8BlJ2q6oKWO3K3Nslt9WaerZV6+d+uWpM/bZ46prSf31W8aCmfiF5bU35+I9vvPLprUnrqqd+IZm8vuaNtYWf7C/GWjmxihgwaMTAQUPmzHkzesjQLd9/Myiyq9tyzXhtK1bwIV2QRuXHEcXJRlH8/zKgK/NHRPfbtm17REREYmJyWFgngSCkIL+Ia+U0alSl1KtVqF5nQQ2EXofpdRhqwLU6k1ZnfFB6gxkm0LEOsPYZhtNmC6k3mFGDpUPhGG0xk0YUQw0Wvc6k0xr1OhNqMOt0Bii9HkVRk8lkwTACx0m9HoUyGIwGgxFFTVCBxz/ijlqt7VBard5oNFssuNmMGY1m+HcJglKrdGqV/kGRhNXKsKzdZbM6CJxBDRad1qjRao2YVm9SafV6tcqkVuC6ehpV0yY9qdFoLJRFadapKLKOcho8nIrlrqu421qurCPVmLibKu6Gkqs2chILV6EHD6tAOYTi8Cbu56NnBYLgiKe6rVq5vO+A/lu2fj0wsosLu4Ze32oWfUiKluAF8VhJskGU8L8P6IH9tmzZ8tRTT6ekpPbq1UcgCB7/0qv1Co3T4XU6fHabiyJZK+N0Ohqcjgab1cVYQW77g8JwmqKB58k6PHawGCbI3ycpG/OQ4laX02e3Oa0MSOe325w2q4O1u9wuH0y0t9tBKZTdDgSNdKA+KnAc3hWosHrEHVi38uDWZLLA2lhY50LTVpuNtVrtNGXji2hA0XV7BYBmWbfd5mRoliJtJE3ijAFjDARNUhRrJX02otGK+62EG7eQVrvVQuMoTdZjpM7eQDVyJgeH25spW8ODsjlaaHsjwfhw2mvCnUbMQVr9Ni/n4LiM0urQLk936Rw+ckj0xAkvTZs5be2GTwdGdXbipfrrW02iDwnREqwg3lyaoi9MMBd17EN36FhbCpOecJejMn/0kMjt27eHh4cnJSU/88yzsKXs5ElvyGrrbVZHcxPncvoZ2sHaPQ7WR1PAJnUou83pdHgdrMfBelxOn9PhZVm3y+nr8MGs3eVgPbAeFjyAZ4Jl3XyyqOOOs+GEcEOwINwBvgPVKIFSlP/HHafTDV0RUDtjbytpsVrtToeHv7a9921BJTZ/EcLKGnhNWu1Wm4uwewjWzTqcXqe92WltZakmlvJ5HH7WxoIaXNZmc7ttvkba02q2eWxON19S0+5N80U2FEOxTtbO2gmKYGyMr8Hn8riMBHk6syBiwBBBkCBUIBg1ZMDytPiIHhG79m6NjurswK/pbmwzFn6EFy6xiOJN/zuBHty/5969e7t3775kyZIuXboKBEHR0YMEguDQkE5vLVj0Y/rPJ46fPfL7ydOnLly6KDx/7srZMxfPnrnwoM6cPn/+3KXTp86dPHHm3NmL589dOnvmwqWLGRfOX+5QGVcyz5+7dO7sxUsXMy5dzDhz+vzZMxcuXxKePn32zJlz589fvHjx8qVLVy5evHzhwqXz5y9CXbhwCerixctQ585deCwFnuq+nbNnz1+6dOXSpStnz54P7J85c67DF3/h/GX4si9euAJ14fxl8HYunDt35fiZy0dPnz956vS5UyeunD2ZdeFUzqXT2cKL2WdPnr1w/uyp08dPnT154uyp4+fOXRAKz108f+Hi2Qd1/MQRYeYVofDy6TMnLl0+fyXj4jebv5o8bZogrJsgODw8LChcIHjpucGpiQuHjhy8/qs1UdGdWeKa9sY29H8J0LjwDSJrKpb7ikn0mjJ3Wm1Oqld9RXkzc2DfZ3bu3PHMMxFpaandu3eHTPPOdDC/amWoANgCqDCBIIw/CBqD/3918AkEwZU++XvAR9QpSNAtWNAtRNA1RBAeIgiGn1pQkEAQxD8mSMD/QrhA8IjqFNw1Irxb9/AgQSeBYOzw/vGL3hw5ZvjnG1dHD+pmx68Zyndp89835adQpSmWaymW66mP63JgRamWorRH12PGoZfz4ee2mF0geGcqfrt98K7d/kqdaKlOtLSDsB2ZOZ3ImmrOGW8smKDKmy7PXeJWXlLezOzf46m9e3c/80xESkpy9+5Ph4aGBgUFBweH3DlbYCVWXqE8zaF3zgM8J3/H9r/tUnmc9wgxhR+eQCAQhAUJOgULOgeDbWjwHaCDBYKgoDsSBAcJwh9RAkF4cOfuIZ06hwsEnQWC0YN7pyS8NWj4wM++XD1sxLMscUNzc7vq6rvG3CSqJMlcnGgsTrA8pg/93wb0Q+PQdPZMTDjZlP2SIe8VrWiWIn+Zo+686lbWs91Cf/nl5+7dn0pLS3n66acEAkFoaChvQODJgXY65I6RDuFPBLAvjyhwWh/jBp/1v4dp+Hoe4w3cNb3A+gKLHSQI5RUSLAi6540FAVMB7QT87vu3W/Dr4V0FQSEQ6OGRPZenxfeJ7Lt6/eoRo/vYsRuq0q31WauMOYlUYbxJtNgoirUUJnQ4/uvwoKUwyVKYYi5MfVAPs9l/t4V+KNBMziwL6KL0ku7qeH3RHKVohU16WlOW83S44OTJ4126dFq5cnm3bl3AV2BIMH8C27MVsNN/N9AQgnvO+53vin/kIKDy8W73Xejtfjlwz//1OwFPFtpZIAgN4y308Mjeq5alPtOn14effTJoSA/aeGNPoZEAAAclSURBVE1Vuk179X0sN4nKX2zOj7EUxWH/U4Gms2dahJMsV1/W5rxkKH5TKVpBVB81VOVHdAk6e+5Up86h7763KiLi6bCwkAdOAfz825j+my30kw504GvtzlcY/PACLN+5QOCBNgseEix4VIUKQroKBJ1CBcCHfm7IwJVLl/TsN+Cdjz8cEBVB6Eu113aaRJ9Q+alM3iI8P4a5BprcdWiMOzxoKUwyg06KoKPzffqnLLShaLmhqKNcDjJzujnjdbLgNd3V8YbiN+vylprKfsWQksheTx0/8XtERLcVK5cOGhQdHh7aDuj78AK+YdB935t/aj/vnL57n/Lf/BRg4v/akP2Fv/i47yCYH2mEgU8l8D4C4xHgO/PuM/8f/zEECYJDBSFhj6rgToKgbgJBlxB+FPnqC2NTk5KjhoxY9u67Q4f3Y9Cb2mu7LKJP7aKltvxFVH4Mez0ZL3xoOseDTD9JQGMZU80Zr1uLJ+lzX9YXzanNSdVd/4lR3BozbMD+A/sGDhoQF79o4sTXwAD8nlvgtABKgsCw5l5H8E+Bhmfwnuf79z/c8xf/3dP/hex2+FT3fxz/7uWHBAk6B4EBW0gb0HedNf6tAKDvCR8FgcHio4q3y08JQrqHCII7CQQzJk1eHBM76oWXU1e+PXHSi26qRl20Hb36gV201CGKY/JjbCXxTzrQaPEKtJhPH8WyZlmyp1lypmA5k/HsKcYrk0zCSbbSmfrcSTrR/NrMZH3pLlZV9Oq4wdt3bXn+hZFz3pwWEzMXxp14akODBWHBIPAUzg9doGMNLE+IIPgRFcxfA0GPtw0JAgOpR1IbI+2/0P/tfpt1/LePCzwAXMaPrFAIND/vwdvj+y4TYDBC7ljxsCBBWIggJBRYaaigUEFQIEr64E4QCAWGhYZ3CxYEhwmC582a/9a8xS++Mjll6dJFMVNbHRJFwdcq4XJrfoq7KMGWG2PNX8T3M0jgHQ+4/fOJQ9BYHzbT57dgyR8oCwjnQd0T1DOD/OZH13JT8ar20brAfrtQXfv8u5XG4pUAaCJrOp41DeeToS05kyxXJxuzpmB5s015c9SZsw158ZqcpcbCzzgm95MPFq798qPZ8yePGTto1cqk0LaIaFhnQfdwQUSY4JkQQUSIoFtwSDgkIRjQHPbo4q+KsMfZhgcL/kxhQV3Cg7veeUxoW6TgwZPf4ZG2b/+O+OQBDgoNCe0UHtopPCiUN7EAZXhhP+JbCOcjdOH8+w3h43SBAF0wf5WGBgEz0Saee/5L4O7lc+c7qb1ph9EQ/kiXp/h4n0AQHvJUWvIHPSIGxSxMmD1j0i/pa02y4+rrG3QFy20laYRwnq8okcyYR+YvxkSxvOIwURwmim9TQQJ2V4lYAZBFBFKlwZqZbUoyFwaUbAYBkJSAM80n5S01Fy83Fa94ZK18GNABsu/bMRatNBatFJBZ04isqXj2ZAzQ/Lr56iTQIjpvNpo7Ty2cj+Ym63LSjHmrWtBj509tjU9ZkLI0RhAs+GzNu3C0ERHWPSKkR1fBs+EA6O7gOxTYZWByeK/j7ikJnJv/zE7X8Kd7P9svqt+g6P6DB0UOHTp4ROSggQMGRz26ogZFR3ekgYMHRg+KjhoYFRkd2bd/34hnI0LBcCLoMYEOe3T/IRiE8/grDNIcsOUQ5fsuyHDe3QjnfZlgQVhY+NAhL3zw3lfdOvWLj0kYPbhXSdYeI3KgvuRjfdES+/U0+upCT368PTuGAkBDxfJA81gXxLejOYGnOQkrAMv5WED6RzwvkAdyV4BswPQDQK8IZOs/2k7HFvo+jgM/Qsst4KdR3sCzpwSARq9ONuRMM1ydo8mcZ8pL0OckqTOTbZI99eKsvv2e2bp1U2Rkzzmzprw5exr8PJ/q1LVrWJfwkE7B4EO/a0V4DzeYtz3/0W1oUGh4SHjE0xHRA6KHDxk+bPCwoYOGDh86ctCg4YMGj3hkDRsyeNCQwdEPaviwwUOHDBwyOHrY0EHDhw2OiuwX0b0bsLHA5330d/q4A4zgIDD5Gn5n0iowfgwKDg0JCpj44GBBaGhIp05hXcPB2QgRhHXqGhOTOm1KTES3fiuS08aP6oPXX9GWb68reActSrNeT7EVxtqvLmIL4nkL/T8B6BlEVnugX0evTtJlTzbkzNBlzzHlLzbkxCoux+iLN7CmslVLk9KS4ia88mJE927r130WGhYUEsb7aGG8Qwd5bjc6Cnw9/id3wkJDOoWHPRMRERU5YPCggZED+vft07tfn359e0X17TXwEdWvV2T/3r0H9O7xoKL7geORfXoOieo/etjgEYOj+/aI6Boe+ne/R96iQxcr4IcA37pTWNdgMNEYFhLUKTSkS0hw5+CgTuCsdAoRhAiGPTcuJfXdIMFTMyfNmvP6q9+uTvKYMuVF69SFq9BC0NiOvZZIX41hi5KIgtj/ARb6/wAnQd1f3q92RgAAAABJRU5ErkJggg==;" parent="1" vertex="1">
          <mxGeometry x="80" y="840" width="111.11" height="50" as="geometry" />
        </mxCell>
        <mxCell id="98Fyh6JIXyJ1N4a_Ak1d-32" value="" style="endArrow=classic;html=1;rounded=0;" parent="1" edge="1">
          <mxGeometry width="50" height="50" relative="1" as="geometry">
            <mxPoint x="220" y="917" as="sourcePoint" />
            <mxPoint x="540" y="917" as="targetPoint" />
          </mxGeometry>
        </mxCell>
        <mxCell id="98Fyh6JIXyJ1N4a_Ak1d-33" value="画像保存 : /v1/payments/{id}/image 呼び出し" style="text;html=1;align=center;verticalAlign=middle;whiteSpace=wrap;rounded=0;" parent="1" vertex="1">
          <mxGeometry x="260" y="887" width="250" height="30" as="geometry" />
        </mxCell>
        <mxCell id="98Fyh6JIXyJ1N4a_Ak1d-34" value="画像の保存を検知した" style="rounded=1;whiteSpace=wrap;html=1;" parent="1" vertex="1">
          <mxGeometry x="490" y="940" width="170" height="30" as="geometry" />
        </mxCell>
        <mxCell id="98Fyh6JIXyJ1N4a_Ak1d-37" value="カードは抜いたらダメ&lt;div&gt;非接触だと..... 要検証&lt;/div&gt;" style="text;html=1;align=left;verticalAlign=middle;whiteSpace=wrap;rounded=0;fontColor=#FF0000;" parent="1" vertex="1">
          <mxGeometry x="677" y="940" width="150" height="40" as="geometry" />
        </mxCell>
        <mxCell id="98Fyh6JIXyJ1N4a_Ak1d-39" value="必要なデータがそろったので先に進める&lt;div&gt;→ オンラインオーソリ&lt;/div&gt;" style="rounded=1;whiteSpace=wrap;html=1;" parent="1" vertex="1">
          <mxGeometry x="450" y="1010" width="240" height="30" as="geometry" />
        </mxCell>
        <mxCell id="98Fyh6JIXyJ1N4a_Ak1d-40" value="結果表示" style="rounded=1;whiteSpace=wrap;html=1;" parent="1" vertex="1">
          <mxGeometry x="490" y="1060" width="170" height="30" as="geometry" />
        </mxCell>
        <mxCell id="98Fyh6JIXyJ1N4a_Ak1d-41" value="" style="shape=image;verticalLabelPosition=bottom;labelBackgroundColor=default;verticalAlign=top;aspect=fixed;imageAspect=0;editableCssRules=.*;image=data:image/svg+xml,PHN2ZyB4bWxuczp4bGluaz0iaHR0cDovL3d3dy53My5vcmcvMTk5OS94bGluayIgeG1sbnM9Imh0dHA6Ly93d3cudzMub3JnLzIwMDAvc3ZnIiBzdHlsZT0iY29sb3I6IHJnYigwLCAwLCAwKTsgZm9udC1zaXplOiBtZWRpdW07IGZvbnQtc3R5bGU6IG5vcm1hbDsgZm9udC12YXJpYW50LWxpZ2F0dXJlczogbm9ybWFsOyBmb250LXZhcmlhbnQtY2Fwczogbm9ybWFsOyBmb250LXdlaWdodDogNDAwOyBsZXR0ZXItc3BhY2luZzogbm9ybWFsOyBvcnBoYW5zOiAyOyB0ZXh0LWFsaWduOiBzdGFydDsgdGV4dC1pbmRlbnQ6IDBweDsgdGV4dC10cmFuc2Zvcm06IG5vbmU7IHdpZG93czogMjsgd29yZC1zcGFjaW5nOiAwcHg7IC13ZWJraXQtdGV4dC1zdHJva2Utd2lkdGg6IDBweDsgd2hpdGUtc3BhY2U6IG5vcm1hbDsgdGV4dC1kZWNvcmF0aW9uLXRoaWNrbmVzczogaW5pdGlhbDsgdGV4dC1kZWNvcmF0aW9uLXN0eWxlOiBpbml0aWFsOyB0ZXh0LWRlY29yYXRpb24tY29sb3I6IGluaXRpYWw7IiBvdmVyZmxvdz0iaGlkZGVuIiB4bWw6c3BhY2U9InByZXNlcnZlIiBoZWlnaHQ9Ijc0Ni4wMDI5Mjk2ODc1IiB3aWR0aD0iMjg3LjAwMDMzNTY5MzM1OTQiIHZpZXdCb3g9Ii0wLjAwMDAwNzYyOTM5NDUzMTI1IDAgMjg3LjAwMDMzNTY5MzM1OTQgNzQ2LjAwMjkyOTY4NzUiPjxkZWZzPjxjbGlwUGF0aCBpZD0iY2xpcDAiPjxyZWN0IGhlaWdodD0iNzQ2IiB3aWR0aD0iMjg3IiB5PSIxMTQiIHg9Ijk5Ii8+PC9jbGlwUGF0aD48Y2xpcFBhdGggaWQ9ImNsaXAxIj48cmVjdCBoZWlnaHQ9IjcxMDU2NTAiIHdpZHRoPSIyNzMzNjc1IiB5PSIwIiB4PSIwIi8+PC9jbGlwUGF0aD48aW1hZ2UgaWQ9ImltZzIiIHByZXNlcnZlQXNwZWN0UmF0aW89Im5vbmUiIHhsaW5rOmhyZWY9ImRhdGE6aW1hZ2UvanBlZztiYXNlNjQsLzlqLzRBQVFTa1pKUmdBQkFRRUFZQUJnQUFELzJ3QkRBQU1DQWdNQ0FnTURBd01FQXdNRUJRZ0ZCUVFFQlFvSEJ3WUlEQW9NREFzS0N3c05EaElRRFE0UkRnc0xFQllRRVJNVUZSVVZEQThYR0JZVUdCSVVGUlQvMndCREFRTUVCQVVFQlFrRkJRa1VEUXNORkJRVUZCUVVGQlFVRkJRVUZCUVVGQlFVRkJRVUZCUVVGQlFVRkJRVUZCUVVGQlFVRkJRVUZCUVVGQlFVRkJRVUZCVC93QUFSQ0FMQ0FSOERBU0lBQWhFQkF4RUIvOFFBSHdBQUFRVUJBUUVCQVFFQUFBQUFBQUFBQUFFQ0F3UUZCZ2NJQ1FvTC84UUF0UkFBQWdFREF3SUVBd1VGQkFRQUFBRjlBUUlEQUFRUkJSSWhNVUVHRTFGaEJ5SnhGREtCa2FFSUkwS3h3UlZTMGZBa00ySnlnZ2tLRmhjWUdSb2xKaWNvS1NvME5UWTNPRGs2UTBSRlJrZElTVXBUVkZWV1YxaFpXbU5rWldabmFHbHFjM1IxZG5kNGVYcURoSVdHaDRpSmlwS1RsSldXbDVpWm1xS2pwS1dtcDZpcHFyS3p0TFcydDdpNXVzTER4TVhHeDhqSnl0TFQxTlhXMTlqWjJ1SGk0K1RsNXVmbzZlcng4dlAwOWZiMytQbjYvOFFBSHdFQUF3RUJBUUVCQVFFQkFRQUFBQUFBQUFFQ0F3UUZCZ2NJQ1FvTC84UUF0UkVBQWdFQ0JBUURCQWNGQkFRQUFRSjNBQUVDQXhFRUJTRXhCaEpCVVFkaGNSTWlNb0VJRkVLUm9iSEJDU016VXZBVlluTFJDaFlrTk9FbDhSY1lHUm9tSnlncEtqVTJOemc1T2tORVJVWkhTRWxLVTFSVlZsZFlXVnBqWkdWbVoyaHBhbk4wZFhaM2VIbDZnb09FaFlhSGlJbUtrcE9VbFphWG1KbWFvcU9rcGFhbnFLbXFzck8wdGJhM3VMbTZ3c1BFeGNiSHlNbkswdFBVMWRiWDJObmE0dVBrNWVibjZPbnE4dlAwOWZiMytQbjYvOW9BREFNQkFBSVJBeEVBUHdEOVVDL3BUUy92VEdiRlF2S0Izb0FtTDBubWU5VTN1UU85Um02RkFHaDVsSjVsWnh1L2VqN1hRQm8rWlI1bFp2MnYzbysyZTRvQTB2TkhyUjVvOWF6ZnRudlI5czk2QU5MelI2MGVhUFdzMzdaNzBmYlBlZ0RTODBldEhtajFyTisyZTlKOXI5NkFOUHpSNjBlYVBXc3o3WDcwZmEvZWdEVDgwZXRIbWoxck0rMSs5SDJ2M29BMC9OSHJSNW85YXpQdGZ2UjlyOTZBTlB6UjYwZWFQV3N6N1g3MGZhL2VnRFQ4MGV0SG1qMXJNKzErOUw5czk2QU5MelI2MGVhUFdzMzdaNzBmYlBlZ0RTODBldEhtVm0vYlBlajdaNzBBYVhtVWVaV2I5cjk2WDdYUUJwZVpSNW52V2I5cnB3dWhRQm9DVDNwd2tyT0YxelV5VGc5NkFMeXYrTlBCQjZWVlNUTlNxMUFGV2FYRmVlL0ZyNHJhWjhMZkRkeHFtb1NxZ1JDdzNjNDdEZ2Nra2tBRHVUWGIzTXVNMThGLzhGQjlldURxZWk2WnZieUpKSGtLZzhIWkhIalA0eXRYcFpiaEZqc1hUdzdkazNyNkpYZjRJeHF6OW5CeU9YOFdmdDRlTGRSdjVXMGExanRyYmQ4aHVwSExFZTZ4c29INW42bXNEL2h0MzRqZjNyRDg3bi80OVh6L0FFVit1UnlQTG9MbFZGZmllRzhUVmYyajZBLzRiYytJMzk2dy9PNS8rUFVmOE51ZkViKzlZZm5jL3dEeDZ2bit2VXZCZjdPZml2eC84TmRVOGE2TTlqY1dHbnRJcjJQbVNmYTVOaWhtMklFS3R3YzQzWk9PbFoxY3N5cWhGU3EwNHBYdDgyT05hdExSTm5XLzhOdC9FYis5WWY4QWt6Lzhlby80YmIrSTM5Nncvd0RKai80OVdMNGUvWlg4VitKTHJ3cEJiYWpvMFRlSk5MbDFlMGFhYVlDT0ZObTRTWWlPRy9lREFYY09EeldUNFkrQmplTlBGMXI0WjBQeHQ0WjFEVjdneXFzSSszUkFGRkxFYnBMVlFUZ0hBR2VockQ2bmsyclZOYWF2UjZMWGZ0cy91SzlwWDduWWY4TnQvRWIrOVlmK1RIL3g2ai9odHY0amYzckQ4N2ovQU9QVnlFbjdPdmkxUGh2cUhqUUxhU2FmWlhyMk1sbkcwalhUTXNvaVpsUUpncUhPTTdzOWVLNnJVZjJUTlI4SDZmNGgxWHhmNGtzZE0wZlJMYUdTNG0wdUY3eVpwcGNiSUZqY3dqZGdna2xnQnVYcms0bVdGeVdPamhHOTdkWHJwcHA2cjd4OCtJN3NsLzRiYStJMzk2dy9PNS8rUFVmOE50ZkViKzlZZm5jLy9IcXdmSEh3TTBiNForSTViVHhONHdrZzBtNDArUFVkSnZ0UDBvM01tb0s1QTJlV1pWV05oeVR1ZkhIWG1xWHhMK0NOdDhQN3J3aklQRk5zK2orSkxIN2RCZTZqWlRXejJ5NEJ4TkRHSm1IVlFDdTdKendBTTFVTUhrOVJ4VWFTOTdiU1d0bGZUL0xmcHVKMUs2dmQ3SFYvOE50ZkViKzlZZm5jL3dEeDZqL2h0cjRqZjNyRDg3bi9BT1BWbWVKLzJZZFIwYjR4ZUcvaDlwK3RSYXJkNnhaUlhwdmpiTkZGQXJiOTNHV0pDaU1uSnhuSUdCUzYvd0RzM3dEdzllYXY0WDhValhvTlAxNGVINzVielR6WitUTXpxaXlLUkpKdWpMT0JuZzg5RDBxRmhzbGZMN2k5NnpXajY2TDB2MHVQbnhHdXBvLzhOdGZFWCs5WWZuY2YvSHFQK0cydmlML2VzUHp1UC9qMVpXcWZzcStJN0c2OFZXTnRyL2gvVmRYOE0yNjNPbzZaYVMzSW1SR1hjQ3BrZ1JIK1huaHYxNHJ6dTcrR1hqQ3dqOHk1OEo2NWJ4N29rM3k2ZE1vM1NIRVl5VjZ1U0FvN25wbXRxZUF5ZXI4RUkvbHZxdCsvUWwxYTYzYlBXZjhBaHRyNGkvM3JEODdqL3dDUFVmOEFEYlh4Ri92V0g1M0gvd0FlcngzeEg0RjhTZURsZ2JYL0FBOXF1aHJPU0lqcVZsTGJpUWpydDNxTTR5T2xZZGRNY295MmE1bzBvdEV1dldXOGozNy9BSWJhK0l2OTZ3L080LzhBajFIL0FBMjE4UmY3MWgrZHgvOEFIcThCb3F2N0Z5Ly9BSjhvWDFpci9NZS9mOE50ZkVYKzlZZm5jZjhBeDZqL0FJYmErSXY5NncvTzQvOEFqMWVQZUZmQTJ2ZU43OUxQUk5NbXZwM0RFYmNJdUIxK2RpRkg1MVA0dStIWGlUd0pkQzMxM1NackdRb0pBY3JJbTBuQU85Q1Y2ajFyTCt5OHI1L1oremp6ZHV2M1hLOXRXdGU3UFd2K0cydmlOL2VzUHp1UC9qMUwvd0FOdGZFYis5WWZuYy8vQUI2dkVORjhQYXI0anVIZzBuVEx6VkowWGUwVmxidk15cjZrS0NjVm9hbDhQdkZPaldVbDVxSGhyV0xHMGo1ZWU1c0pZNDErck1vQXB2S2NzVDVYVGpjWHQ2M2Ruci8vQUEyMThSdjcxaCtkei84QUhxUCtHMnZpTi9lc1B6dWYvajFlQnlSUEVWRG95YmdHRzRZeUQwUDByZjhBQ0h3OThSK1BaNVl0QjBtZlVURi9ySFRDb24xZGlGQjlzMDVaUmxrSTgwNlVVZ1ZlczlGSm5ydi9BQTIzOFJ2NzFoK2R4LzhBSHFQK0cyL2lOL2VzUC9Kai93Q1BWNC80dDhCNi93Q0JMdExiWHRMbjA2U1FaUXlZWkhIK3k2a3Fmd05VZkQzaDdVUEZXczJ1azZWYm03MUM1WXJGQ0dWZHhBSlBMRUFjQTlUU1dVNVk0ODZwUnQzNkI3ZXRlMTJlM2Y4QURiZnhHL3ZXSC9reC93REhxUDhBaHR6NGpmM3JEL3laL3dEajFlYnhmQmZ4bE40b2w4T3BvMmRaaWdGeTl0OXFoNGpKd0czYjl2WHRuTmNyck9qM25oL1ZiclRkUWhOdmUyc2hpbWlMQnRyRHFNZ2tIOEttR1Y1VlVkb1U0dDc2ZHUrNDNXckxkczl6L3dDRzNQaU4vZXNQenVmL0FJOVIvd0FOdWZFYis5WWZuYy8vQUI2dm4rdHJ3cjRPMWZ4bnFsdFlhVFp5WEUwOG5sSytDSTFiQlB6TjBIQUo1clNXVDViQk9VcVVVaEt2VmVpa2UweGZ0djhBeEVTUlMvMkZrQjVDdGNBbjhmT1A4cStnUDJmdjJ6NC9IR3F4YUxyMEp0TDk4N010dldRRGs3R3dEa0RKS2tkQndlMWZEL2pUNGZhNTRBMVNheDFpeWVGNGlvTXlBdEUyNFpHSDZISUIvSTFsYUpxczJoYXpZNmpBekpOYVRwTWhVNE9WWUgrbGNPSXlMTDhWUWZzSXBPMmpScERFMVlTOTVuN1gydHlzcUs2TUdSZ0NDT2hGWG8zeUs0ajRmWGozSGhiVDJjNUlWay9BTVFQMEZkaEMrUlg0OGU4VWJqb2EvUHYvQUlLQ25QaTdRRC8xOGY4QW91M3I5QTdrNEJyOCsvOEFnb0gvQU1qZG9IL2J4LzZMdDYrajRlLzVHZEwvQUxlLzlKWnlZcitETCt1cDhuVVVVViswSHo0VjlFL0RINCsyUHd2K0IxbGFhYmZnK0xMUHhFTDhhYzBVZ1dhMktiWERQdDJZSUpHTTU1eml2bmFpdVRFNGFuaW9xRlhaTy9yL0FNQXVNM0IzUjkxdiswdDhMbitKL2dqV0xQV1A3TzBldzBTK3RwNG1zYmdpMGxsYUpraTJpTTdoOHJESzVVWTY5SytmTG40aER3ejhRZkRuaWFEeEg0VjFpT3cxUVhIaytIOURhd21XSXQ4eGtiN0hCdnl1UmpjM0o2ZGE4WG9yejZHVTBNUGZsYmQxYld6MDE4cjlXYXlyU2x1ZmNOeCswNzhPbStMTU9ucHFRLzRWM0pwYzMyaTVObE1UOXNrdVBQUHlGTitNZ0RPMGpuMnpYbE1meDZmeFA0dytJeTNlcmVITFh3cDRrdTBhU3k4UjJ0L0lzc2FmSWp4ZlpGM3E0UkV6dVplMk9oSStkS0ttbGsrR3BYNWIzc2wwNk85OXQ3MjE4Z2RlY3R6NkkrS2Z4TzhQL0ZieG5iM2VpZUx2K0VGdC9DOWpEWmFIYzNGdmRqN1N3WWlSMWVFU1NRamJncnVCWWpBSkJKeG1mSEh4aDRRK0lKOEVhVHArdFcxN3E5aFpDSFdQR2Q3YTNFYVhjbXhRTitJMm5reHR4dVpDZWZRa2p3cWl1bW5sOU9rNE9NbjdsN2JkVjZYZmZWMnYwMkpkVnU5K3A5ZCtML2p0NExzUDJnL0Juai9TL0VGdnJXazJPbnhhVmUydHZhM1VkekdOc29hVUNTSkVLZ3V2Uml4NStYdldUYy9GZndMNFA4SGF4b21sK0pWOFF5Ni80eGkxcVdXQ3h1SWtzclZKNDVQbjh4RkxQaVBvb1BmMno4dFVWenh5aWhGUlhNL2RTWFRXemJWOU9qZlMzbVY3ZVd1aDlBZnRDL3REWE92K08vRThmZ2ZXb1l2RE9zUlFwY1hOanBzZHBjWFlWQmxaSmpFczdET1JobXhqSTZIRmVnNjErMVRvbG44ZmZET3FXdXY2bHFmZ1dEUzRiYTZ0b2ZPU0dDNHc2bWJ5SEFETW1WT1FNNDZFa1lyNCtvcTNsT0ZjSTA3YUpOZE5icEs3MDMwM0Y3YWQyejZBOGRmRUx3eHAvd0FFOWI4SVdmaWYvaE05VTFieEZKcXNVOGR0UEhIWlJaQjVNNklkNzhraFJqTE55ZXArZjZLSzc4UGg0NGFMakZ0M2QzZi9BSUZrWnlrNXU3Q2lpaXVvZys0ZjJjNUpvZmdOb2p4ZWFGRTg1bE1DYnBBbm52dTJnQWtuNkRPTTQ1eFc1OFZwWkp2ZzU0eUxlZWJjV2tua0c2UmxrSzdSMURBTjk3T053ei9Pdmg3U3ZIUGlUUXJOYlRUZkVHcWFkYXFTd2d0TDJTSkFUMU8xV0FwK29mRUR4UnExbkphWDNpVFY3MjFsR0hndUw2V1JISG9WTFlOZkp6eWFjc1M2L09yT1YveHVkaXJwUjViSHRIN0Z6QWVOdGNCSUJOZ01EMStjVjlQZkVLKzByVGZDMXhjNjM1WjBxT1dGcmtTcHZUWjVpNXl2Y2UxZm0xUlhUaThuV0t4UDFoMUxiYVc3ZWQvMEloVzVJOHRqMkw5cWpXTk4xejRsVzF6cFY1YlgxbWRNZ0N5MnNpdW5WempJNmNFY1YyOGZnL1QvQUJEK3kxRGVhZHEwOXJCcHNFdDFkV2xzTm91TG9OejVwUEpBSFFkT2g1NHI1bXE5YWE3cVZoWVhObGE2aGRXMWxjakU5dEZPeXh5Lzd5ZzRiOGE3WllLU28wcVZPZHVScCt0aUZVOTV0cmMraVBFdmhLdzhPL3N0Mmt0L3EwMTU5dmp0Ynl3Z3VWREcybllCbVNJZ2NLVnp3ZmZubXZGZmhWYWE1ZmZFRFI0UERkNURZYTI3dUxhNHVGQlJEc2JPUVZiK0hJKzZldFlON3JtcGFsYVd0cmQ2aGRYVnJhcnN0NEo1bWRJVjlFVW5DajZWRHArbzNXazNrVjNZM00xbmRSSE1jOXZJWTNROU1oaHlLMG80YWRLbFVoS1YzSnQ3YWErWDU5eFNtbTAreDFXbStDL0Z4K0lNTmpCcHQ1RnI4ZDBrKzU3UjhSbnpCaVpsMmNSN3NISlhHS3ovQUloMitxMm5qZldvZGN1WXJ6VjB1V0YxY1FEQ1NTZHlCdFhqOEJVQytPUEVhYW8rcEw0ZzFSZFJlUHltdkJleUNaay91bDkyY2UyYXlydThuMUM2bHVicWVTNXVKV0x5VFRPWGR5ZXBKUEpOZEVJVk9kU25iYTJtL3dEd3hMYXRaRU5mV2Y3TGw3Y3Y4S05ic05PMWpUclRXWnJpUkxHT1VBUEhLWStDNEl5L1RJNjhBK21LK1RLdDZWcXQ1b2Vvd1g5aGNTV2w1QTIrS2FJNFpENmcxampzTDlibyt6VHQxMnZzT25Qa2xjK3R2anpkNmxZZkFWZEw4UTY3cGwxNGpSNGZ0aXJ0TFRFc1NBaTRCQndNNTJqaFQwcjQvQUxFQURKUEFBcS9ydXY2ajRuMU9YVWRWdkpiNjlseHZubU9XT0JnVlZzN3k0MDY4Z3U3U2VTMXVvSkZsaW5oY284YnFjcXlzT1FRUUNDT2xUZ2NLOEhTY0cwMjNmVFJYZmJ5SFVuenU1K3d2dzNQL0ZKMkgvQS8vUmpWMjF1Y1Z3L3czUDhBeFNsaC93QnRQL1JqVjIwQjRyOEdQcGlwZGREWHduKzNINE8xL3dBV2VMZEkvc1BROVMxbjdQNTNuZjJmYVNUK1h1amcyN3RnT003V3hucmcrbGZkZDMwTmVkWXo0czE3L3RoLzZMcjFjcnhEd3VNaFdpcnRYL0pvNThSSG1wdEg1Z2Y4S2Y4QUhuL1FrK0kvL0JUY2YvRVVuL0NvUEhmL0FFSlhpTC93VlQvL0FCRmZxUzZBQWs5QU1tdUlzZkhsemNhaEZhU2VINzltdTFtdUxSbzJnVVBieHRHdTlnOHFzcFBtS2NFQTRQVGcxOTYrSXFpM2d2eFBJVkMvVS9Pei9oVVBqdjhBNkVyeEYvNEtwLzhBNGlsLzRWRDQ3LzZFcnhGLzRLcC8vaUsvUXp4YjhRMDhNWE41RkxGQWkyNlFzVE5Nb1pRNUlMbGM4Z1l3Rkh6RXEzUUFFenhmRVN6dWZEc3VyMjluTHFOdGJtUVhQMkNlQ1FXK3daK2RtZFJuYVFlTTllcDZsZjZ4VlA1RitJL3E2N241MmY4QUNvUEhuL1FrK0l2L0FBVXovd0R4RkgvQ29QSG4vUWsrSXY4QXdVei9BUHhGZm96YytPN0czdGRQWkxLOW52cjB4cW1teHFndUkyZUl5N1h5d1ZTRVVrL04yd00wbGo4UWRKMU8rMHUwdGtta212NEV1VkIySjVTTm5idjNNT2Nxd3d1NDhHai9BRmlxZnlMOFJld1B6bi80VkI0OC93Q2hKOFJmK0NtZi93Q0lvLzRWQjQ4LzZFbnhGLzRLWi84QTRpdmR2K0NoWDdUbmpuOW5hNjhFVy9neTZ0TFArMWt1NUxsN20xV2NueWpFRkEzY0FmdkcvU3ZuTDRKLzhGQ1BqRDR5K01uZ1h3L3EycDZiYzZYcSt1V1duM1VTNmJHaE1VMDZSdGhsQUlPR0pCOVJXRXVLSlFseU9tcm1zY0p6TG1UTmYvaFVIanovQUtFbnhGLzRLWi8vQUlpai9oVUhqei9vU2ZFWC9ncG4vd0RpSy9VTHlSNlVlU1BTdW4vV0NyL3o3WDRtUHNWM1B5OS80VkI0OC82RW54Ri80S1ovL2lLUCtGUWVQUDhBb1NmRVgvZ3BuLzhBaUsvVUx5UjZVZVNQU2ovV0NyL3o3WDRoN0Zkejh2ZitGUWVQUCtoSjhSZitDbWYvQU9Jby93Q0ZRZVBQK2hKOFJmOEFncG4vQVBpSy9VTHlSNlVlU1BTai9XQ3Ivd0ErMStJZXhYYy9MMy9oVUhqei9vU2ZFWC9ncG4vK0lvLzRWQjQ4L3dDaEo4UmYrQ21mL3dDSXI5UXZKSHBSNUk5S1A5WUt2L1B0ZmlIc1YzUHk5LzRWQjQ4LzZFbnhGLzRLWi84QTRpai9BSVZCNDgvNkVueEYvd0NDbWY4QStJcjlRdkpIcFI1STlLUDlZS3YvQUQ3WDRoN0Zkejh2ZitGUWVQUCtoSjhSZitDbWYvNGlqL2hVSGp6L0FLRW54Ri80S1ovL0FJaXYxQzhrZWxIa2owby8xZ3EvOCsxK0lleFhjL0wzL2hVSGp6L29TZkVYL2dwbi93RGlLUDhBaFVIanovb1NmRVgvQUlLWi93RDRpdjFDOGtlbEhrajBvLzFncS84QVB0ZmlIc1YzUHk5LzRWQjQ4LzZFbnhGLzRLWi8vaUtQK0ZRZVBQOEFvU2ZFWC9ncG4vOEFpSy9UMjVLMnR0TE15a3JHaGNnZFNBTTE1WjR0K05WMzRRK0Y5cDRvdVBDOTNMZFN5R0dXMDh4UWx1MlNBWkhHN0NuQXhnSHFBY0drK0lhaTNndnhHcUNlelBoWC9oVUhqei9vU2ZFWC9ncG4vd0RpS1A4QWhVSGp6L29TZkVYL0FJS1ovd0Q0aXZzajROL3RIYWg4VHRlTmhjK0Yvc3R2a0tiMjN1UVVqWS9kREI4WnpnL2RKUHRWcjlvVDQ5WDN3aTFiUzlOMDdTNEx1VzZoKzB2TmNPY0JReFhhRkhjNDY1NDlEVWY2eVR0emNpL0VyNnRyWStMZitGUWVQUDhBb1NmRVgvZ3BuLzhBaUtQK0ZRZVBQK2hKOFJmK0NxZi9BT0lyOURwdmlMRlovREd6OFpYR2wzTXNNMWtsNUphMmhWMmpESnVPU3hVWUhUUDA0cVhYL2lCYmFCclV0azFoY1hFRnI5bSsyM2NUS0Z0L3RFaGppK1VuTGNqbkhRRUhucFZmNnhWTitSZmlMNnV1NStkZi9Db3ZIZjhBMEpYaUwvd1ZULzhBeEZML0FNS2g4ZC85Q1Y0aS93REJWUDhBL0VWK2dJK0xkb1lubk9sWEtXa3FUU1dOdzhpQkxoWXBsaGtadWN4cXJPR0piK0RMZHNWMW5oYnhEYmVLckFYVnJHNktBbThNT0ZabERiUWVoSUJHY2V2MW9YRVZSL1lYNGlkQkxxZm1sL3dwL3dBZWY5Q1Q0aS84Rk0vL0FNUlMvd0RDbnZIcC93Q1pJOFIvK0NtNC93RGlLL1VkWXFrVk1kT3RWL3JCVi81OXI4UmV4WGN2ZkRmL0FKRlN4LzdhZitqR3J0b1B1MXhIdzQvNUZXeC80SC82TWF1M2c2VitXSDBCVXZPaHJ6NklaOFc2L3dEOXUvOEE2THIwQzhOZWZ3YytMZGYvQU8zZi93QkFycXd2OGFQOWRER3Q4RExza0lkU3JMa0VZSTdHdU91dmhwcE12aXF3djAwclQvc1VObmN3U3htRUF0STd3TWh4akJ3STVPZmNlcHJ0K2FQd3Izbkc1NXliUjUzNHQrR3I2NWR1dGt0cGFXazBjU3lrWlU3b3kyMHNnWDV4allNYmw2YzhjVk1uZ0srdWZEYTZMZDNjS3dtN1NTNXVJZ3pQZVFodDdJUWY5WGtnTGpMRGJrZCtPOXdQVDlLWEE5UDBxZVhxUG1aeVhpWHd0cUd0WGRqYzJ0L2IyazJuM1BuMndlM01pOHhQR3l1Tnd6OThrRVl4Z2RhNW4vaFM2eFNXWGxYOEd5T0swaW5ra3RBMHJHQ1V5Qm8yM2Z1OXhZZzhHdlU4RDAvU2pBOVAwcHVLWXVabytNZitDZ1g3SnZqYjlwUzU4RTNIZzk5TS93Q0pPbDNIY3g2aGNtRW56VEVWS2tLUWY5V2MvVVY4Ni9CYi9nbXg4WHZCUHhoOEVlSTlXZncvSHBtamEzWmFqY21MVUdkL0xoblNSZ3ErWHl4Q2tEM0lyOVdNRDAvU2t3QjIvU3VlZUhoT1hPOXpWVlpSWEtpdUU5cVhaN1ZZd1BUOUtNRDAvU3VreEsrejJvOHYycXhnZW42VVlIcCtsQUZmeS9hankvYXJHQjZmcFJnZW42VUFWL0w5cVBMOXFzWUhwK2xHQjZmcFFCWDh2Mm84djJxeGdlbjZVWUhwK2xBRmZ5L2FqeS9hckdCNmZwUmdlbjZVQVYvTDlxUEw5cXNZSHArbEdCNmZwUUJWa2dXV05rZFF5TUNHVTlDUFNzSFR2QUdoNlo0UUhoaUxUNGpvdmxORWJWaGtNckVscys1Skp6WFVZSHArbEdCNmZwUmE0N25sZmdmNEJhTDRDMDIzdE5QdXJvK1ZmbS84MWl1OG5LWVRPT0Z3aXFjZFFXOWE1cjlvRDlublV2akJydW1halk2cmE2ZUxTMk51eVhFYkVuNWl3SUkrdGU4NEhwK2xHQjZmcFV1Q2FzUG1kN25DUi9EcHBmaE5GNE1udkFyZjJZdW52ZHhKa1pDQlN3VS9UcFI0aitHMzl2YXpjM1MzN1d0cGZmWlB0dHNJZ3pTL1o1VEpIdGZQeTVKd2VEd09NVjNXQjZmcFM0SHArbEhLcldGZDduQmVHZmhwL3dBSTdxVnROL2FMVDJ0akZkUldFSGtoVENzOHF5UHViSjNrYlFCd09QV3JmaHJ3RVBEV3VYVjlGcUVzdHZOSHRGczRPQXhXTUZpYzRKekd6ZEJ6TEoxelhaWUhwK2xISHBUNVVPNUNJL3FhZXNlUGFuMFlxckVpL0RqL0FKRlN3LzRIL3dDakdydUlPbGNQOE9QK1JWc1ArMm4vQUtHMWR2QjBGZkxIc0ZPOE5jRmFBTjR0OFFmOXUvOEE2TE5kNWRuTmNIWmMrTGZFSC9idi93Q2l6WFhoZjQwZjY2R05iNEdhbmwrOUd3MCtpdm9EelNQWWFOaHFTaWdDUFlhTmhxU2lnQ1BZYU5ocVNpZ0NQWWFOaHFTaWdDUFlhTmhxU2lnQ1BZYU5ocVNpZ0NQWWFOaHFTaWdDUFlhTmhxU2lnQ1BZYU5ocVNpZ0NQWWFOaHFTaWdDUFlhTmhxU2lnQ1BZYU5ocVNpZ0NQWWFOaHFTaWdDUFlhTmhxU2lnQmdTbENBVTZpZ0NINGNIL2lsTEgvZ2Yvb3hxN2kzNkN1RitIQi80cFN4LzRILzZNYXU1dGprVjhvZXdVN3F1RHNmK1J0OFFmOXUvL29zMTNWNTkwMXd0ai95TnZpRC9BTGQvL1JacnJ3djhhUDhBWFF4cmZBelhvb29yNkE4MEtLS0tBQ2lpaWdBb29vb0FLS0tLQUNpaWlnQW9vb29BS0tLS0FDaWlpZ0Fvb29vQUtLS0tBQ2lpaWdBb29vb0FLS0tLQUNpaWlnQW9vb29Bci9Eai9rVmJIL2dmL294cTdpMTZWdzN3NC81RmF3LzdhZjhBb3hxN2kxN1Y4b2V3VTd6b2E0ZlQ0MmZ4YjRoMnFXeDluNkRQL0xNMTI5NTBOWUhnMy9rYmZGUC9BRzYvK2dOVzFHZkpVVWpPb3VhTFF2MmVYL25tL3dEM3lhUHM4djhBenpmL0FMNU5kalJYcC9XMzJPUDJYbWNkOW5sLzU1di9BTjhtajdQTC93QTgzLzc1TmRqUlI5YmZZUFplWngzMmVYL25tLzhBM3lhUHM4di9BRHpmL3ZrMTJORkgxdDlnOWw1bkhmWjVmK2ViL3dEZkpvK3p5LzhBUE4vKytUWFkwVWZXMzJEMlhtY2Q5bmwvNTV2L0FOOG1qN1BML3dBODMvNzVOZGpSUjliZllQWmVaeDMyZVgvbm0vOEEzeWFQczh2L0FEemYvdmsxMk5GSDF0OWc5bDVuSGZaNWYrZWIvd0RmSm8renkvOEFQTi8rK1RYWTBVZlczMkQyWG1jZDlubC81NXYvQU44bWo3UEwvd0E4My83NU5kalJSOWJmWVBaZVp4MzJlWC9ubS84QTN5YVBzOHYvQUR6Zi92azEyTkZIMXQ5ZzlsNW5IZlo1ZitlYi93RGZKbyt6eS84QVBOLysrVFhZMFVmVzMyRDJYbWNkOW5sLzU1di9BTjhtajdQTC93QTgzLzc1TmRqUlI5YmZZUFplWngzMmVYL25tLzhBM3lhUHM4di9BRHpmL3ZrMTJORkgxdDlnOWw1bkhmWjVmK2ViL3dEZkpvK3p5LzhBUE4vKytUWFkwVWZXMzJEMlhtY2Q5bmwvNTV2L0FOOG1qN1BML3dBODMvNzVOZGpSUjliZllQWmVaeDMyZVgvbm0vOEEzeWFQczh2L0FEemYvdmsxMk5GSDF0OWc5bDVuSGZaNWYrZWIvd0RmSm8renkvOEFQTi8rK1RYWTBVZlczMkQyWG1jQjhPZitSV3NQK0IvK2h0WGNXM1N1SCtIUC9JcTJIL0EvL1EycnVMYm9LOFk5QXAzbmV2R1BHL3hvaStEV3RhNWVTK0h0UzE4WFhsblpwelJLVUVVRE9jbVJsR1NNNEhmQnIyYTg3MTRuNDYrQk9sZkc3Vy9FY04vZXoyTjFhMmh0N1NXTWI0MGFlSUF1MGVSdTJtTmNEY09Dd3lNNXFvN2t2WTJkTC9hajBLODhIMjNpQzcwWFZOT2ltdjhBK3pmczA3VzZ5Q1V5UXhvUVdsVlNoZTRqVXVEdFVrN2lNWnJmK0hIeHkwdjRrYU5vMm9XMmw2aHB3MU40WTQwdWpDNERTVzMyZ2ZORkk2bkM4RVpCQjRJRmNIYWZzcTNWcjRUYnc5SjRydFo5S2sxTTZwTll5YVM1dHBtVmJjeEl5RzVKMnJMYkk1QVlidHpqZ25kWFRlR2ZnZHFQaHZSSXJPMzhaUGNYOXZxQ1g4T3FTNmRHWmlSYitReXlBTnNmNWZ1a0twR0J1M25KT3liNm1XaDMvaTd4eHBYZ3ZSNzdVTDZTU2Y3SjVZYTBzMDg2NWQ1RzJSSWtZNUxPM0NqditCckh0UGk3bzE5b0V1dVEyOStkSTgremdndkh0eXFYQnVaVWlRcGtnbmEwaWhnUUNweUNNZ2dTNkg4TDlBMDlvWnJqemRiMVdEVVRxa21vWDh1K2FTOE1SaUVyaGNMbFkyMktvVUtnQTJnWUJxdGUvQ0xUN25VSldpdnJ1MjBtNTFXMzFtNTBoR0Jna3VZV0VpbGVNeGhwVWlrZFZPR2FQT1BuazNVSTZQd2I0cHRQRy9oUFJ2RUZpc2tkcHF0bERmUXBNQUhWSkVETHVBNzROYkZjRjhKL2hRbnd3MHVPM2ZWN2pXN21Ld3RkTGlubVJZbGp0TFlPSVkxUmVNanpITE4xWXR6d0ZDOTdRQVVVVVV3Q2lpaWdBb29vb0FLS0tLQUNpaWlnQW9vb29BS0tLUmhsU0FjRWpyUUJ6L2pUNGllRi9oenBjbW8rS1BFR25hQlpvcFl5NmhjcEZuL2RCT1dQc01rMVk4R2VNZEgrSVBoYlRmRWVnWGYyL1J0UmlFOXJjK1c4Zm1JVGdIYTRERHAzQXI0aC9hYy9ZbDhHK0R2Z244Ui9IdXNhdHIzalB4akZhU1hVR282emZ1eXdPMGd4c1FIb0FjQU1XNHI2UC9Zdi93Q1RWL2huL3dCZ2VQOEFtYVFHSCswTCsxVnFmd1crSS9oVHdWb2Z3K3UvSG10ZUliV1c1dG9MUFVGdDNIbGs3bEFNYlo0Qk9janBYTFRmdGEvR0dDSjVaUDJZZkVhUm9wWm1PdFJjQWRUL0FLbXM3NDZmOHBDUGdCLzJEZFMvOUZTMTlZYTcvd0FnVFVmK3ZlVC9BTkJOQUh5SjRHL2JyK0lueEs4TjIzaUR3eCt6cHJtdGFOY3M2dzNsdHJjWlJ5akZXQXpDT2pBajhLMkxMOXRYeG5ZZVAvQmZodnhoOER0VzhHeGVLTlVpMHUydjc3VjBkUTdNQVNGRVEzYlF3T01qNjFvZjhFMC8rVFAvQUFqL0FOZk4vd0QrbGN0VS93QnM3L2tyMzdOSC9ZN1Ivd0E0NkJuMWJSUlJURUZGRkZBQlJSUlFCNS84T0Rud3JZLzhELzhBUTJydWJib0s0WDRiL3dESXJXUC9BQVAvQU5EYXU2dGZ1MXlIUVVyem8xYy80Sy81R3p4VC93QnV2L29EVnYzbjNUV0I0Sy81R3p4VC93QnV2L29EVmNQaUpsc2JuakdEVDdqd3BxeWFxc2phYjlta053SW5LdVVDa25CQkJCd1BXdm03d3JxczNoUFhMM3hONEs4TjZwQjRkZlNWVFBpRzkreXdQSzhtVWxEeXNReTdjZER6NmpOZlMvaVhRNHZFL2g3VXRJbmxraGh2cmQ3ZDVJamhsREtRU1BmbXZtcnh4NEY4VndhaC93QUs2MHpXWnZFZGpIcE1GN0JaM3F4UmhCRk9FQ3F3QTRDTDM2NStsZkxaOHFzSlU2OEl0OHV6U1YrYTZzdGVqNjJUUG1jMFU0dU5TTVhwMVZyM3Zvdm42TTVQU2ZHbXFIUzlVMFdDU3p0UEV3MUJOWG0xOXZFMENSU1RuTzBCZHUyUkFwSUtiajcxOWErQk5ZMURYL0NPbDMrcTJZc2RRbmhEVFFxd1pRM3FwQkl3ZW81Nkd2a25YN3lmUnZFSHhCYSs4QTZaYUI3TzF0cElUY3hsTk1hU1BZa3FFUjhrbGd4d0JqMTcxOVpmRHJUNWRKOEJlSHJPWmtlV0N3aGpab25ES1NFQTRJNmozcnpPRzY5V3BpSndsSnV5YXM3OUphTjNpdFhycjk2T1BLS2s1MVpSY203Si9nOUwzUzEzMU9pb29vcjlFUHJBb29vb0FLS0tLQUNpaWlnQW9vb29BS0tLS0FDaWlpZ0Fvb29vQThPL2JmOEErVFVQaVgvMkN6LzZHdFdmMk1QK1RWL2huLzJCNC81bXRuOXB2d0RxL3dBVWZnTDQwOEs2REhGTnJHcVdKZ3RrbWtFYUY5eW5sandPaHFiOW0vd05xdncwK0JYZ3J3dHJrY2NXcjZWcDZXMXlrTWdrUU9DYzRZY0hyU0ErWC8yeHZoeHAzeGEvYk4rQ2ZoVFZyaTl0TERVTkx2aExOcDgza3pMdEVqamErRGpsUitHYTdVLzhFMWZoc3dJUGlQeG9RZW9Pc24vNG1xdngwQi80ZUVmQURqL21HNmwvNktscjYrcGdmSTFuL3dBRXlmaGZwOXVzRnJybmpDMmdYT0lvZFgyS004bkFDWXJ5ajRzZnN0K0Yvd0JuMzQ0L3MrMzNoL1ZOZDFDWFVmR0VFTXE2dmZHNFZRcklRVkdCZzgxOSsrSi9FZGw0UThPYW5ybXBOSW1uNmRieVhWdzBVYlNNc2FLV1loVkJKNEI0SE5mRG54Wi9hRjhGL3RKL0hUOW4vVHZoN2UzV3UzV2srS2x2NzBMWlN4aUdCZGhaeVdVY0FLeC9DZ1o5N1VVVVVDQ2lpaWdBb29vb0E4KytHLzhBeUsxai93QUQvd0RRMnJ1YlhwWEMvRGovQUpGZXgvNEgvd0NodFhkV3RjaDBGRzg2VmcrQ3YrUnM4VS85dXY4QTZMYXQ2OTZWZytDditSczhVLzhBYnIvNkxhcmh1VExZNnJWdE1oMXJUTHV3dWQvMmU1aWFHVHkzS050WVlPR0dDRDdpdk1vUDJjTkFnVzhiKzE5ZWU3dUVTSVhyMzdHYU9OVG5ZclkrNlRqSTlxOVFXOWlkUXlpUmxJeUNJbUlJL0tsKzFwL2RsLzc5Ti9oV0dKd09IeGpUcnc1cmJibkJXdzFLdTA2a2IyUEtiZjhBWmY4QUJZTncxNy9hbXFTM0M3WlpMclVKZHo0Nloya1p4MnptdlJ2Q2ZodTM4SCtITlAwYTFsbW10cktJUlJ2TzI1eW82Wk5hSDJ0UDdzdi9BSDZiL0NqN1duOTJYL3YwMytGUmhzdXdtRGx6MEthaSs1TkhDVU1PK2FsQkprMUZRL2EwL3V5LzkrbS93bysxcC9kbC93Qy9UZjRWNlIxbUZxUGpxejB5OWx0Wk5QMWVWNHp0THdhYk5JaCtqQmNIOEtyZjhMSXNQK2dYcnY4QTRLWi8vaWE2YjdYSC9kbC83OU4vaFI5cmovdXkvd0RmcHY4QUN0RTRkVS92L3dDQWNyalh2cEpmYy84QU01bi9BSVdSWWY4QVFMMTMvd0FGTS84QThUUi93c2l3L3dDZ1hydi9BSUtaL3dENG11bSsxeC8zWmY4QXYwMytGSDJ1UCs3TC93QittL3dwM3A5bjkvOEF3QmN1SS9tWDNQOEErU09aL3dDRmtXSC9BRUM5ZC84QUJUUC9BUEUwZjhMSXNQOEFvRjY3L3dDQ21mOEErSnJwdnRjZjkyWC9BTDlOL2hSOXJqL3V5LzhBZnB2OEtMMCt6Ky8vQUlBY3VJL21YM1AvQU9TT1ovNFdSWWY5QXZYZi9CVFAvd0RFMGY4QUN5TEQvb0Y2Ny80S1ovOEE0bXVtKzF4LzNaZisvVGY0VWZhNC93QzdMLzM2Yi9DaTlQcy92LzRBY3VJL21YM1Avd0NTT1ovNFdSWWY5QXZYZi9CVFAvOEFFMGY4TElzUCtnWHJ2L2dwbi84QWlhNmI3WEgvQUhaZisvVGY0VWZhNC83c3YvZnB2OEtMMCt6Ky93RDRBY3VJL21YM1AvNUk1bi9oWkZoLzBDOWQvd0RCVFA4QS9FMGY4TElzUCtnWHJ2OEE0S1ovL2lhNmI3WEgvZGwvNzlOL2hSOXJqL3V5L3dEZnB2OEFDaTlQcy92L0FPQUhMaVA1bDl6L0FQa2ptZjhBaFpGaC93QkF2WGYvQUFVei93RHhOSC9DeUxEL0FLQmV1LzhBZ3BuL0FQaWE2YjdYSC9kbC93Qy9UZjRVZmE0Lzdzdi9BSDZiL0NpOVBzL3Yvd0NBSExpUDVsOXovd0Rram1mK0ZrV0gvUUwxMy93VXovOEF4TkgvQUFzaXcvNkJldS8rQ21mL0FPSnJxSTUwbFlxdTRNQmtoa0svekZOYTZqVjJYRHNWT0R0alpzZmtLTDAreisvL0FJQStYRWZ6TDduL0FQSkhIemVNOUR1TDZDOWwwRFZaYnlBRVJYRDZKTVpJd2VvVmltUitGV3YrRmtXSC9RTDEzL3dVei84QXhOZE45cmovQUxzdi9mcHY4S1B0Y2Y4QWRsLzc5Ti9oUmVuMmYzLzhBWExpUDVsOXovOEFramw1UGlKcDBzYkkrazYyNk1Dcksya1RrRWVoRzJxV24rS2ZEdWt1WHNmRFdvMlRrWUxXK2hTeGtqOEVydGZ0Y2Y4QWRsLzc5Ti9oUjlyai91eS85K20vd292VDdQNy9BUGdCeTRqK1pmYy8va2h1blh5YW5aUTNVY2MwU1NqY0Vuak1iajZxZVIrTldLaCsxeC8zWmY4QXYwMytGSDJ0UDdzdi9mcHY4S3lma2RTdmJYY21vcUg3V245MlgvdjAzK0ZIMnRQN3N2OEEzNmIvQUFvR1RVVkQ5clQrN0wvMzZiL0NuUlhDVE15cnUzS0FTR1VxZWVuWDZHZ0RnUGh4L3dBaXZZL1Yvd0QwWTFkMWE5cTRYNGMvOGl0WS93REEvd0QwWTFkemJuQXJrT2dwM3RZSGdvLzhWWDRwL3dDM1gvMFcxYjE2ZWF3ZkJQOEF5TmZpbi90MS93RFJiVlVkeVpiSFc2ZC95RDdiL3Jrdjhxc1ZYMDcvQUpCOXQvMXlYK1ZXSzNqOEtNbnV3b29vcWhCVVY1TzF0YVR6SkM5dzhhTTZ3eDQzT1FNaFJudWVsUzBVQWVVMzN4N1hUZE4vdEM1OEs2dERaL2FHdGZPWXhZODFTd0tmZTZncXcvQ3R6VC9qYjROMU81dHJhSFdFTnhjT3NhUitVK1N6RUFEcDZtdkZ0WHNEOXZ0WnBOSEtSeStLSlZHb3RxQllTajdSSUN2MmZkaGZUZHQ3ZTlkWjRhdExpWHhQcFBnS1dLUm9mRCtweTZsSk0zUm9GTzYzL05wT2Y5MnM3dTVWdEQwanhCNHQ4UTZWcWs5dlkrRUo5VXRJd0N0Mmw1SEdIeW9KK1VqSXdTUitGVnB2aVZuNFpSZUxvYkhIbUNJaTFra3pqZk1zZjNnUDlyUFN1TThhYVRydXFlUGRidXBQRHVvYXZwRU1VTVZzME9wbXlSUUUzTzNERGRsbUl6L3MxWjFtZXp1ZjJlSXBiQ3liVHJOeGJORmJOS1pDaS9hby93Q0k4bWk3RWRsNDkrSWg4RFdSdURvbC9xS0NOWkdtZ0NyQ21XMmdNNU9RYzQ2QTlhNGZWdjJpMjBTZDdTNjBDTVgwVGlLV05kU2pLbytjRWNBbmp2NmMxUi9hU2tzNUxDemdnRTgrcitXcnlMSE82eHhXNGNEYzZBN2VYWUFFalA1VjUxNGgwclVMWTNvdWRMMUhUYmNYVnNzVU53Ym1SUXhLN3lzZ1Znd0w1SXkyN2tZQlBGSnlhS1MwUGM3SDR2OEFtK0M5VTEyU3l0YmlXeW1pait5V0Y2SmMrWTZvdVd4Z0hMSDE2VkxIOFdaOVAxUmJYeEI0ZXVOQ2lOck5lZWU4NnpmSkdBVytWQm51SzVud2Y0Y2JWdmhuNHRzdFkrM1dkdWIwelJTRVBISjVjYXhTS1ZNeUJzYmxQVmZXdlA0VjFGdEVlNjEyUFZwcjY4MEc4bXRMbTd2NDVZbWlLQWtpTUx1WElLZFdvNW1Ga2ZRVm40MlMrOGJRNkhEQnVnbDByKzAwdVN4QklNaXFGMjQ5R3pYVDE1VjRWLzVLeHBYL0FHS0tmK2pvNjlWcTBTd29vb3FoQlJSUlFCQVArUDF2K3VZL21hTFgvVzNYL1hYL0FObFdnZjhBSDYzL0FGekg4elJhL3dDdHV2OEFyci83S3RSSGRsUG9UMFVVVlpKelhpUDRrZUcvQ1YrdGxxMnF4V1YwMFlsRWJxeEpVa2dIZ2V4cm10TCtQZmhhNXZ0VGp1OVV0N2FDQ2NKYlNnT2ZQVFlwTGRPUG1MRDhLdjhBeFpUeEZhYU1kVThQM0VLbTBVdGNXNzJpVFBJbVJrcnU3cU1uSGV2TXpQckduU1FUZUhQRmVuNjVxbmlHNFNaYlNMVFkrbTBLenR5ZkxWUXZQQTVCcUcyVWxjOWMxTDRrYUxCNFJuMTIwMUcwbWlNTXoyb2xsRVluZEFjcW9PQ2VSamoxcWpkL0ZLenQvQXRycjBIMmZVTG1UN01qMmR2Y0tTc3NwVUZDUm5CR1c2aitHcy80d0NPMjhIUERONGNiVzdqN0pQaTRoaVFSMmpiUG1rT1RsZlVZOUs0alJkS3ZMMlB3RG84K2thZHBrVjNQRnFPTFZpenp4d1E3dk1sd01Bc1dIcjk2azIwSkkrZ0ZKS2drWU9PbEZjLzRNOFYvOEpYWTNUUzJ4c2I2enVaTFc1dEdiY1kzVThjOXdSZzU5NjZDckVGVjAvNUNFMy9YS1A4QW05V0tycC95RUp2K3VVZjgzcGdjSjhPZitSV3NmK0IvK2pHcnViZmxhNFg0Y24vaWw3TC9BSUgvQU9qR3J1YmY3dGNoMEZLODcxaGVDZjhBa2EvRlAvYnIvd0NpMnJjdmZ1bXNQd1IveU5uaW4vdDEvd0RRR3E0N2t5Mk9tMCsrdGxzTGNHNGlCRWFnZ3VPT0tzZmI3WC9uNWgvNzdGVDBWdWxaV01ucXlEN2ZhLzhBUHpEL0FOOWlqN2ZhL3dEUHpELzMyS25vcGlJUHQ5ci9BTS9NUC9mWXFDL2F3MUt5bnRMaWVOb0owTWJoWnRwSUl3Y0VISStvcTlSUUI1TjRuK0MzaDY0c0xVZUczc3RGMUtDN1M0RjdJNW1iQzU0K1pqbmtnOCtsVHhmQ20yMC83THFWaDRsbGg4VUpLWmJqVnBHVi90SWJHNUhRbkczQTRIYXZVcUtteUhjNDd4cmE2M3JWczFwbyt1YVpaVzA4RFEzQnVZeTc1WVkzSVZZWTRQZXF1cWVETGFmNGFRK0ZMVFVvRU1VZHVnbmxZWVBseUk1T0FlKzAvblhkMFU3Q09QOEFIWGhteThXK0hyNnpodWJPM3Y3bUtLSDdXK0NRaVNCOXZyaklQNTF4SGluNE5TZUt0VXVieTU4U1dRZWFVU2NXNHlBdU5venY5QUIwcjJlaWswbU81NVRaL0RTNnMvQ3Qvb0tlSkxSTFMrblJwekRDRWJ5dWtpZzd6eXdDalBvRDYxcjZQNFNtdC9GTVdxYWhyR256MnRsYVBZMk5yYnhlV0k0eVJqZmxpQ2NBRGpBNHJ2NktMQmM0SHc1NGN2N2Z4dE40aTFyV05OdUpmc0pzSVliSkRHb1F5Qjl6Ym1QUEdPUFd1MyszMnY4QXo4dy85OWlwNktld2lEN2ZhLzhBUHpEL0FOOWlqN2ZhL3dEUHpELzMyS25vcGdRZmI3WC9BSitZZisreFI5dnRmK2ZtSC92c1ZQUlFCVmhuam52SE1jaXlBUnJrcXdQYzAySzZoaG51Vmttampiek00WmdEOTFhdVVWS1ZodDNJUHQ5ci93QS9NUDhBMzJLUHQ5ci9BTS9NUC9mWXFlaXFFY1Q0bjByWGRkMUpsc3ZGOE9qYVNWQU1WdkFqVGs5L25ZOGZoWE9XL3dBR05OOE9TeDN2aGZ4SmNhTnFvUXBMY3lQSE9zK1RrbDFJeDE5TUQycjFtaXBzTzV3T3FhWDRrMVh3aExwYy9pTFNKTDY0OHlHNHVHdGlGYUZsSzhBT01QNzlPZWxZVVh3dTFKZFN0THNlUEh0eloyYTJFSDJlQ01GSVFCbFFjOXlBYzR6MDU0cjF1aWkxd3VjQjRNOEUvd0RDSCtKdFIxSStKcE5VaHY0RVdkYnhrTWpTcWVIeU1EQVhqSHY5SzdqN2ZiZjgvTVAvQUgyS25vcHBXRVFmYjdYL0FKK1lmKyt4VWR2TkhQZlRtTjFrQWpRWlU1N3ZWdWltQjUxOE92OEFrVjdIL2dmL0FLTWF1NnR2dTF3bnc2LzVGZXgvNEgvNk1hdTd0dnVtdVE2Q2plOUt3L0JIL0kyZUtmOEF0MS85QWF0dTlyRThFZjhBSTJlS2YrM1gvd0JBYXJoOFJNdGp0YUtLSzZERUtLS0tBQ2lpaWdBb29vb0FLS0tLQUNpaWlnQW9vb29BS0tLS0FDaWlpZ0Fvb29vQUtLS0tBQ2lpaWdBb29vb0FLS0tLQUNpaWlnQW9vb29BODUrSFgvSXJXUDhBd1A4QTlHTlhkVzNTdUYrSFgvSXJXUDhBd1A4QTlHTlhkVzNTdVE2Q2plOTZ4UEJIL0kyZUtmOEF0MS85QWF0dTk3MWllQ1ArUnM4VS93RGJyLzZBMVhENGlaYkhhMFVVVjBHSVVVVVVBRkZGRkFCUlJSUUFVVVVVQUZGRkZBQlJSUlFBVVVVVUFGRkZGQUJSUlJRQVVVVVVBRkZGRkFCUlJSUUFVVVVVQUZGRkZBQlJSUlFCNXo4T3YrUldzZjhBZ2Y4QTZNYXU1dGo4dGNOOE92OEFrVnJIL2dmL0FLTWF1NXQvdTF5SFFVYjN2V0w0SS81R3p4Vi8yNi8raTJyYXZlbFluZ2YvQUpHenhWLzI2LzhBb0RWY1BpSmxzZHRSUlJYUVloUlJSUUFVVVVVQUZGRkZBQlJSUlFBVVVVVUFGRkZGQUJSUlJRQVVVVVVBRkZGRkFCUlJSUUFVVVVVQUZGRkZBQlJSUlFBVVVVVUFGRkZGQUhuSHc2LzVGYXgvN2FmK2pHcnViYjd0Y0w4Ty93RGtWYkgvQUlIL0FPaHRYZFczM1RYSWRCUnZheGZBL3dEeU5maW4vdDEvOUFhdHE5ckY4RC84alo0cS93QzNYLzBCcXVIeEV5Mk8yb29vcm9NUW9vb29BS0tLS0FDaWlpZ0Fvb29vQUtLS0tBQ2lpaWdBb29vb0FLS0tLQUNpaWlnQW9vb29BS0tLS0FDaWlpZ0Fvb29vQUtLS0tBQ2lpaWdEemY0ZC93RElyV1gvQUFQL0FOR05YYzIzM2Z3cmh2aDMvd0FpdFkvOEQvOEFSalYzTnI5MnVRNkNqZTk2eHZBMy9JMmVLdjhBdDEvOUFhdG05NzFqZUJ2K1JzOFZmOXV2L29EVmNQaUpsc2R0UlJSWFFZaFJSUlFBVVVVVUFGRkZGQUJSUlJRQVVVVVVBRkZGRkFCUlJSUUFVVVVVQUZGRkZBQlJSUlFBVVVVVUFGRkZGQUJSUlJRQVVVVVVBRkZGRkFIbTN3Ny9BT1JXc2Y4QWdmOEE2RzFkemJINWE0YjRkbi9pbDdIL0FJSC9BT2h0WGMyMzNhNURvS043V040Ry93Q1JzOFZmOXV2L0FLQTFiRjcwckg4Qy93REkyZUt2KzNYL0FOQWFyaDhSTXRqdDZLS0s2REVLS0tLQUNpaWlnQW9vb29BS0tLS0FDaWlpZ0Fvb29vQUtLS0tBQ2lpaWdBb29vb0FLS0tLQUNpaWlnQW9vb29BS0tLS0FDaWlpZ0Fvb29vQTgxK0hmL0lyMlAvQS8vUTJydXJiN3RjSjhPLzhBa1ZySC9nZi9BS0cxZDFiZmROY2gwRkc5ckc4Qy93REkyZUt2KzNYL0FOQWF0bTk3MWplQlArUnM4VmY5dXY4QTZBMVhENGlaYkhjVVVVVjBHSVVVVVVBRkZGRkFCUlJSUUFVVVVVQUZGRmM3NDE4ZmFQNEMwMDNlcVhBUm1COHEzVG1TVStpait2U3FoQ1U1S01WZHN6cVZJVVlPcFVka3Qyem9xNWZ4SDhUdkMvaFF1bW82eGJ4ekwxZ2pKa2t6NmJWeVIrTmZOZmozNDllSWZGOHNzRm5NMmo2WWZsRU5zeEVqai9iZnFmb01Ddk5PdGZYWVRoMnBVU2xpSmN2a3R6ODN6SGpTalJrNmVDaHp2dTlGOHVyL0FBUHBqVS8ycWRGaGRsc05JdmJvRG84ekxFRCtHVFdNL3dDMWhObjVQRGFFZjdWMmYvaUs4SnN0TXZOUmJiYVdzMXkzcERHVy9sVzNIOE5mRmN5aGs4TzZreW5uSXRuL0FNSzl2K3hzdG9xMVQ4WldQbHY5YU03eEVtNlgzS04vMFo3SGEvdFh4Rmg5cDhPdXEvOEFUSzVCUDZxSzdEdzkrMFo0UTFwaEhjeno2VEtlQUx1UDVDZjk1Y2dmaml2bUcrOEY2L3BpNXV0RnY0QjZ2YnVQNlZqTUNwSUlJSTZnMU1zaXdGWmZ1bmIwZC84QU1xSEZ1YllhZjc5SitUamI4ckgzN3B1cVdlc1dxM05qZFEzY0RkSklYREwrWXExWHdaNGQ4VmF0NFV2UHRXazM4MWxLZnZlVzN5dVBSaDBJK3RmUS93QU5QMmpMVFczaDA3eElzZW4zcmZLdDR2RU1oLzJ2N3BQNWZTdm1zYmtWZkNwenArOUg4ZnVQdWNyNHR3bU9rcVZkZXptKyt6K2YrWjdaUlNJNnVvWlNHVWpJSVBCcGErYlB1dHdvb29vQUtLS0tBQ2lpaWdBb29vb0FLS0tLQVBOUGgzL3lLMWovQU1EL0FQUTJydXJiN3Y0VndudzYvd0NSV3NmK0IvOEFvYlYzVnI5MnVRNkNqZTk2eC9Bbi9JMStLdjhBdDEvOUFhdGk5Ny9qV1A0RC93Q1JyOFZmOXV2L0FLQTFYRDRpWmJIY1VVVVYwR0lVVVVVQUZGRkZBQlJSUlFBVVVWbitJTmN0ZkRXaTNtcDNyaU8ydFl6STU5ZlFEM0p3QjlhYVRic2laU1VFNVNka2puUGlmOFRMSDRiNkw1OHUyZlVKc3JiV203QmMvd0I0K2lqdWZ3cjQrOFNlSnRSOFc2dE5xT3FYTFhOekozSjRVZGxVZGdQU3JYamJ4ZmUrT1BFVjFxdDYyR2tPSTRnZUlrSDNWSDAvVTVyZStFL3d0dXZpUHE1REZvTkt0eURjM0E2bi9ZWDNQNlYrazVmZ2FPVjBIaU1RL2V0cSsza2o4TXpuTjhSbjJLV0R3aWZKZXlYZnpaa2VDZmg3clBqNi9GdnBsdVRFcC9lM01uRWNmMVBjK3c1cjZLOEcvczUrSGRBaWpsMVZUclY2T1dNd3hDUFlKL2ptdlNkQzBDdzhOYVhCcCtuVzZXMXJDTUtpRDlUNm4zclFyNW5IWjNYeExjYVQ1WStXL3dBMmZjNVR3bmhjSEZWTVV2YVQ4OWw2THI4eXZaYWRhNmJiSmIybHZGYlFJTUxIRWdWVkhzQlZpaWl2bkcyM2RuM01hY0lLMEZaQVFEMUZjMTRtK0hIaHp4ZUdPcDZWQk5NUmo3UWk3SlIvd0ljMTB0RlhDcE9sTG1nMm41R1ZiRDBjUkhrclFVbDVxNTh5ZkVMOW0yLzBaSjc3dzVLK3BXaS9NYk9USG5JTytEMGY5RDlhOFVramVHUm81RktPcEtzckRCQkhVRVYrZzFlUi9HYjRLd2VNTGFiVjlJaVdIWEVHNTBYaGJrQWREL3RlaC9QMit5eTNQcGN5cFl0M1hmOEF6L3pQekhQT0VvS0R4R1hLelc4Zjh2OEFJODcrQ254dWw4T1RRYUhyczdTNlM1Q1FYTG5KdGoyQlA5eitYMHI2ZlNSWlVWMFlNakRJWUhJSXI4KzVZbmdsZU9SR2prUWxXUmhnZ2pxQ0sra3YyY1BpVytxMmg4TWFoSnV1YlpDMW5JeDVlTWRVK3E5dmI2VldlWlhIbGVMb0wxWDYvd0NabHdwbjAxTlpmaW5wOWx2djIveSs0OXpvb29yNGMvV3dvb29vQUtLS0tBQ2lpaWdBb29vb0E4eitIWC9JcldYL0FBUC9BTkRhdTZ0ajh0Y0w4Ty8rUldzditCLytodFhjMjMzYTVEb0tONzBQMHJIOEIvOEFJMStLdiszWC93QkFhdGk5Ny9Tc2Z3Ri95TmZpci90MS93RFFHcTRmRVRMWTdtaWlpdWd4Q2lpaWdBb29vb0FLS0tLQUN2bmo5cUx4bnVtc2ZEVnZKd29GMWRCVDM1Q0tmMVA0aXZvZnBYd3g4UWRmL3dDRW44YWF4cVFmZkhOY041Ylp6OGdPRi9RQ3ZvOGh3eXI0cm5sdEhYNTlENGZpN0hQQ1pmN09EczZqdDh1ditSbTZIbzF6NGgxaXowMnpReVhOMUtzU0Fkc25xZllkVDdDdnQzd1g0VHMvQlhoMjAwdXpRS2tTL08rT1pIUDNtUHVUWGduN0wzaFVYMnVhaHJzeTVqczBFRU9SMWR1U1I5QUIvd0I5VjlMMTE4UTR4MUt5dzBYcEhmMS80QjVmQm1XUnAwSlkrYTk2V2k4a3QvdmY1QlJSUlh5SittQlJSUlFBVVVWNVg4WmZqTkQ0RnRuMDNUSFNmWFpWOW1XMkIvaWIzOUIrSjk5NkZDcGlLaXAwMWRzNDhYaTZPQ295cjE1V2loL3hnK05OdjRCaS9zL1RmS3U5Y2tBT3h1VWdYMWZIYzlsL0U4WXowSHcwK0plbi9FYlJ4Y1FFUVg4UUF1YlF0bGtQcVBWVDJOZkYxM2R6MzkxTGMzTXJ6M0VyRjNra2JMTVQxSk5lMC9zOGZEalZibldJUEUwazB0aHA4V1JHRjRhNTdFWS91ZjVGZlk0dko4TmhjRHpUbGFhNjkzMnNmbUdCNG54Mk96UlJwUXZUbHB5OWwzdjM3OU9oTiswcDhPMDAyOGo4VDJFSVNDNWNSM2lvT0ZreHcrTzI3R0NmWDNOZU5hQnJWeDRkMXF5MU8xWXJQYXlyS3VEak9EeVBvUngrTmZiL0FJeThPeCtMUEMrcGFUSnQvd0JKaFpFWnVpdjFVL2dRRFh3bk5ESmJUU1JTbzBjc2JGWFJoZ3FRY0VFVjM1Rml2cldIbGg2bXZMcDhtZVh4YmwvMURHeHhkSFJUMTlKTGYvTSs5dEExbUR4RG90anFWc3dhQzZoV1ZmYkl6Zys0NlZmcnlEOW1UWGpxWGdhZXdkc3ZZWEJVRFBJUnZtSDY3dnlyMSt2aE1aUStyWWlkSHMvK0dQMXJLOFo5ZndWTEVkWkxYMTJmNGhSUlJYR2VxRkZGRkFCUlJSUUFVVVVVQWVaZkRyL2tWN0wvQUxhZitqR3J1cmI3dGNKOE92OEFrVjdML3RwLzZHMWQxYS9kL0N1UTZDamU5NnlQQVgvSTFlS3YrM1gvQU5BYXRlOTcxaitBditScjhWZjl1djhBNkExWEQ0aVpiSGRVVVVWMEdJVVVVVUFGRkZGQUJSUlJRQmxlTGI2VFRQQzJzWGtSeExCWnpTb1QyWUlTUDFGZkJsZmRQeEFYZDRHOFFEL3B3bi85RnRYd3RYM1hESzBxL0w5VDhsNDdldUhYK0w5RDYwL1p0MDViUDRieFQ3QXIzVnhKSVdIOFFCMmorVmFIeForTUZuOE9iUmJlQlV2TmFsQWFPMkorVkZ6OTU4ZEI2RHZUZmdESUp2aFZwYW8yQ3BsUWtkajVqZjQxODcvRjN3UnJYaEh4UmNTNnJOSmZ4WGtqU1E2ZzNQbWowUG93OVB5NHJnbzRXbGpjMHF4cnl0WnZUdnJzZW5XeDlmSzhnb1ZNTERWeFYzL0xmcjh6Nm0rSDN4QzAzNGg2S3Q3Wk1JNTB3dHhhczJYaGJIUStvOUQzL01WMUZmQ1hoRHhmcVhnalc0ZFQweVl4eXB3OForNUt2ZFdIY2Z5NmptdnNYNGUvRUxUdmlIb2kzdGszbDNDQUxjV3JITHd2anA3anJnOS96RmNtYVpWUEF5NTRhd2Y0ZVRQVTRmNGdwNXJEMlZYU3F1bmZ6WDZvNmlpaXZLZmpOOFpvZkE5czJtYVc2VDY3SXZQZGJaVC9BQk4vdGVnL0UrL2pVS05URVZGVHBxN1o5UmlzVlJ3VkdWZXZLMFVMOFpmak5ENEd0bjB6VEhTYlhaRjlNcmJxZjRtOS9RZmlmZjVTdTd1YSt1WmJpNGxlYWVWaTd5T2NzeFBVazBsM2R6WDF6TGNYRXJ6enlzWGVTUnNzeFBVazE2MThGdmd0SjR2bWoxaldJMmkwWkRtT0poZzNKQi85QjkrOWZwR0d3Mkh5WER1clZldlYvb2o4TngrT3huRTJNVkdndmQ2THQ1c1Q0TC9CYVh4ZlBGcStzUk5Gb3lObU9NOEc0SS85bC9uWDFOYjI4ZHJBa01LTEhFZ0NxaWpBQUhZVVc5dkhhd3BEREdzVVNEYXFJTUJSNkFWSlh3ZVB6Q3BqNm5OUFJMWmRqOWJ5WEphT1VVZVdPczN1Ky84QXdBcjRqK0s5aXVuL0FCSDhRd291MWZ0YnVBZjlyNXY2MTl1VjhiZkhaNDVQaW5yWmp4Z05HRGoxRWE1L1d2WDRjbGJGU1hkZjVIei9BQnRCU3dFSlgybCtqT3kvWlYxSm9mRWV0V0dQbHVMWkppZlFvMlAvQUdvYStsNitXLzJYUCtSN3Z2OEFyd2IvQU5EU3ZxU3VmUDRxT09sYnFrZFhCMDVUeXRKOUpOZnIrb1VVVVY4NmZjQlJSUlFBVVVVVUFGRkZGQUhtUHc3L0FPUllzdjhBZ2Y4QTZHMWR6YS9kRmNMOE92OEFrV0xML2dmL0FLRzFkMWE5SzVEb0tONzBOWkhnTC9rYS9GWC9BRzYvK2dOV3ZlZERXUjRCL3dDUnI4VmY5dXYvQUtBMVhENGlaYkhkVVVVVjBHSVVVVVVBRkZGRkFCUlJSUUJWMVd3VFZOTXZMS1gvQUZkeEM4TGZSbElQODYrQmJpM2t0TGlXQ1pESExFeFIwUFZXQndSWDZDVjhhL0hIdzIzaHY0ajZtdXpaQmVOOXJpT09DSDYvK1BCaCtGZlljTjFsR3RPay90Sy8zZjhBRG41bnh4aHBUdzFMRUw3TGErLy9BSVk5ay9aZTFsTHp3WmZhZmxmTnM3b3NRRHp0Y1pCUDRoaCtGZW8rSi9ER24rTHRIbjB6VW9CTmJTai9BSUVoN01wN0VldGZMWDdQdmk5ZkRIanlLMm5sTWRwcWFpMmZKK1hmbjkyVCtQSC9BQUt2cnF2UHptakxEWTZVNDZYMVg5ZXA2L0MrSmhqOHFqUnFhOHQ0dGVYVDhENG8rSmZ3MDFENGM2d1lKdzA5aEtTYmE3QTRrSG9mUmgzRlpQaER4ZnFQZ25Xb2RUMHlYeTVrNFpEeWtpOTFZZHdhKzJmRTNoblQvRjJqejZicWNDejIwbzcvQUhrUFpsUFlqMXI0OCtKZncwMUQ0YzZ3WUp3MDloS1NiYTdDNFZ4NkgwWWR4WDFHV1puRE1LZjFiRWZGK2Y4QXdUNFBQY2lyWlBXV013YmZKZSttOFgva2V3K0svd0JwZXlQaENCOUVqWWE1ZEtWZEpGK1cwT09XNTRZNTZmbWVtRDg1M2QzTmYzTXR4Y3l2UFBLeGQ1Skd5ekU5U1RVTmV3ZkJYNEt5ZUxwb3RaMW1Ob3RHUmcwVVI0TnlRZjhBMEgzNzEyUXcrRHlhbkt0MysvMFI1bGJHNWx4TFdwNGZlM1JhTHprLzY5QlBndDhGWlBGODBXczZ4R1k5RlE1amlPUTF5UWYvQUVIMVBmdFgxTkJCSGF3cERDaXhSSUFxb2d3RkE2QUNpQ0NPMmhTS0pGamlSUXFvb3dGQTZBQ24xK2ZZL0gxTWZWNTU2SmJMdC93VDlreWJKcUdVVWVTR3MzdSsvd0R3QW9vb3J6RDZBSytGdkgyc0pyL2pYVzlRaUt0RFBkU0dObE9ReWc0VS9pQURYMWw4WS9HQytEZkFkL2NMSnN2TGxUYTJ3QncyOWdSa2ZRWk9mYXZpNnZ1T0dxRHZPdTl0bCtiUHlmampGeGFwWVJiL0FCUDhsK3A3Nyt5bm8vbVhtdmFveUhFYVIyOGI5amtsbUg2SitkZlJkZWNmQUh3MDNoMzRkMmJ5eCtYY1h4TjA0STV3MzNQL0FCMEQ4NjlIcjUzTnEzdDhiVWt0dHZ1MFBzZUc4SzhMbGRLTWxadlYvUDhBNEZnb29vcnlUNmNLS0tLQUNpaWlnQW9vb29BOHcrSFgvSXNXUC9BLy9RMnJ1clU0RmNMOE92OEFrV0xIL2dmL0FLRzFkemJmZHJrT2dvM3ZRMWsrQWY4QWthL0ZYL2JyL3dDZ05XdGU5NnlmQUgvSTFlS3YrM1gvQU5BYXJoOFJNdGp1cUtLSzZERUtLS0tBQ2lpaWdBb29vb0FLOGwvYUw4Q3Y0bThLcHFscEg1bDdwZVhLZ2N2RWZ2QWZUZy9nYTlhcEhSWkVaR0FaV0dDQ01naXVuRFY1WWFyR3REZEhCanNKREg0YWVHcWJTWC9ETS9QbFdLTUdVa01Ea0VkcSt2OEE0Si9FNlB4NTRmUzJ1cEFOWnNsQ3pxVHpLbzRFZyt2ZjMrdGVIZkc3NFZ5K0J0YmUvc1lXT2gzYmxvMkhJZ2M4bU0rZzlQYjZWd09nYS9mZUdkVmcxSFRwMnQ3dUZzcTQ3K29JN2crbGZwR0tvVXM2d2luVGV2UjluMVRQdzdBWXZFY001aEtuVldtMGwzWFJyOUQ3M3JLOFRlR2RQOFhhUFBwdXBRQ2UybEgwS25zeW5zUlhJL0RENHk2VjhRTGFPM2xkTERXZ01QYU9jQ1Qzako2ajI2ajlhOURyODJxVXF1RXE4czF5eVIrNDBLK0d6TEQ4OU5xVUpmMVpuejE0VS9ab2t0ZkY4NzZ4T2x4b2xzNGFBS2ZtdWU0REQrRUR2Njl1Sytnb0lJN1dGSVlVV0tKRkNxaURBVURvQUtmUlcyS3h0ZkdOT3M3Mk9YTHNwd3VWcVN3OGJjejFmWDA5RUZGRkZjSjdJVkhjM0VWcGJ5enp5TEZERXBkNUhPQXFnWkpKOUtnMVhWN0xRN0NXOTFDNWp0TFdJWmVXVnRvSC93QmYycjVjK01YeHVuOGJ0SnBXa2w3YlJGWWhuUEQzUG9UNkw2RDgvUWVoZ3NEVngxUlFwclRxK2lQRXpUTnNQbFZGMUt6MTZMcS82N21KOFpmaU8zeEM4VEZyY2xkS3M4eFdxbitMbmx6N25INUFWbS9ERHdWTjQ3OFgyZGdxL3dDaXEzbTNMOWxqSEpIMVBRZld1WnNiRzQxTzhodExXRjdpNW1ZSkhGR01zeFBZVjlpL0IvNGJSL0R6dzRFbVZXMVc2eEpkU0RuQnh3Z1BvUDU1cjczRzRpbGxHRFZHbDhWckw5V2ZqMlc0VEVjU1prNjlmNGIzaytsdWlYNUhjd3dwYnhKRkdvVkVVS3Fqc0IwRlBvb3I4eTNQM3RKUlNTMlFVVVVVRENpaWlnQW9vb29BS0tLS0FQTC9BSWRmOGl4WmY4RC9BUFEycnVyWDd0Y0w4Ty8rUlpzditCLytodFhjMnYzYTVEb0tONzBOWlBnRC9rYXZGWC9ici82QTFhdDcwTlpYZ0Qva2F2RlgvYnIvQU9nTlZ3K0ltV3gzZEZGRmRCaUZGRkZBQlJSUlFBVVVVVUFGRkZGQUZQV05JczllMDJld3Y3ZExtMG5YYThiaklJL3g5NitUL2lyOEZkUjhCM01sNVpySmY2SXhKV2RSbG9mOWwvOEFIcDlLK3ZLU1NOWlVaSFVPakRCVmhrRVY2dUF6R3JnSjNockY3bytjempKTVBuRk8xVFNhMmwvVzZQejdpbGVDVkpJM2FPUkNHVjFPQ0NPaEJyMWZ3WiswZDRoOE9vbHZxYXByZG9PQVpqdG1VZXo5L3dBUWZyWHBQajM5bTdTdGVrZTcwS1ZkSHV6eTBCWE1EbjJIVmZ3NDlxOEw4Uy9DYnhUNFZtZGJ2U1pwWVY2WEZxdm14a2V1UjAvRUN2dW9ZckxzMmh5MUxYN1BSL0ovNUg1SlV3T2M4UFZYT2xkTHZIV0w5Vi9tajZEMEw5cFB3anFpZ1hyM09rUzl4UEVYWFBzVXorb0ZkTkg4WVBCa2k3aDRqc2dQOXB5RCtSRmZGREtWSkJCQkhCQnBLNVo4T1lhVHZHYlMrUjZWUGpiSHdqeXpweGI3NnI5VDdNMUQ0NStDTk9qTE5ya2M3WTRTM2plUW44bHgrWnJ6N3hIKzFUYm9qeDZGcEVrajlGbXYyQ3I5ZHFuSi9NVjg2VmUwdlF0UjF1WHk5UHNiaTlmcGlDTXZqOHF1bncvZzZQdlZKTnJ6ZGpLdnhqbVdJWEpSaW92eVYzK056UjhXZU85YzhiWFBuYXZmeVhJQnlrSStXTlA5MVJ3UDUxbTZQb3Q5cjkvRlphZGF5WGQxSWNMSEdNbjYrdzk2OVc4Ry9zMWE1clBsejYxS3VqMnA1OG9ZZVlqNkRoZngvS3ZvUHdkNEIwWHdMWmZaOUt0RmlaZ1BNbmI1cEpQOTV2NmRLTVRtK0R3RVBaWVpKdGRGdDk1R0M0ZHpMT0t2dDhZM0dMNnkzZm92NlJ5UHdoK0RGdDRCZ0YvZjdMdlc1RjVjREt3QTlWVDM5VFhxRkZGZm4rSXhGVEZWSFZxdTdaK3k0SEEwTXZvcWhoNDJTL0h6WVVVVVZ6bmVGRkZGQUJSUlJRQVVVVVVBRkZGRkFIbDN3Ny81Rml5LzRILzZNYXU1dGVsY0w4Ty8rUlpzditCLytodFhkV3ArV3VRNkNqZTlEV1Y4UC84QWthdkZYL2JyL3dDZ05XcmU5RFdUOFB2K1JxOFZmOXV2L29EVmNQaUpsc2Q1UlJSWFFZaFJSUlFBVVVVVUFGRkZGQUJSUlJRQVVVVVVBRkhXaWlnREgxYndkb1d1dHUxRFI3RzhmKy9OYnF6RDhTTTFneWZCYndWSzJUb0ZzRC9zN2gvSTEyMUZkRU1UV3A2UW0xODJlZlZ5L0IxdGFsS0wrU09Uc3ZoUjRQc0dEUmVIYkJpT2hsaEVuL29XYTZlMnM0TEtNUjI4TWNFWUdBc2FoUVB3RlMwVkU2MVNwOGNtL1ZtdEhDWWZEL3dxYWo2SklLS0tLeU9zS0tLS0FDaWlpZ0Fvb29vQUtLS0tBQ2lpaWdBb29vb0E4dCtIWi80cG15LzRILzZHMWR6YS9jcmhmaDMvQU1pelpmOEFBLzhBME5xN3ExKzdYSWRCUnZlOVpYdysvd0NScThWZjl1di9BS0ExYWw3ME5aZncrLzVHcnhWLzI2LytnTlZ3K0ltV3gzbEZGRmRCaUZGRkZBQlJSUlFBVVVVVUFGRkZGQUJSUlJRQVVVVVVBRkZGRkFCUlJSUUFVVVVVQUZGRkZBQlJSUlFBVVVVVUFGRkZGQUJSUlJRQVVVVVVBZVdmRHY4QTVGbXkvd0NCL3dEb2JWM05yOTJ1RitIZi9JczJYL0EvL1EycnVyWHBYSWRCUnZ1aHJMK0gzL0kxZUsvKzNYLzBCcTA3M29heS9oNy9BTWpWNHEvN2RQOEEwQnF1SHhFeTJPOW9vb3JvTVFvb29vQUtLS0tBQ2lpaWdBb29vb0FLS0tLQUNpaWlnQW9vb29BS0tLS0FDaWlpZ0Fvb29vQUtLS0tBQ2lpaWdBb29vb0FLS0tLQUNpaWlnRHlyNGQvOGl6WmY4RC85RGF1N3RlbGNKOE96L3dBVXpaZjhELzhBUTJydXJZNFd1UTZDamVuNVRXWDhQZjhBa2F2RlgvYnAvd0NnTlduZmZkTlpudzkvNUdyeFgvMjZmK2dOVncrSW1XeDN0RkZGZEJpRkZGRkFCUlJSUUFVVVVVQUZGRkZBQlJSUlFBVVVVVUFGRkZGQUJSUlJRQVVVVVVBRkZGRkFCUlJSUUFVVVVVQUZGRkZBQlJSUlFBVVVVVUFlVS9Edi9rV2JML2dmL29iVjNkdDkwMXdudzcvNUZteS80SC82RzFkMWJmZE5jaDBGRys2R3N6NGVmOGpWNHIvN2RmOEEwQnEwcjc3cHJOK0huL0kxZUsvKzNYLzBCcXVIeEV5Mk85b29vcm9NUW9vb29BS0tLS0FDaWlpZ0Fvb29vQUtLS0tBQ2lpaWdBb29vb0FLS0tLQUNpaWlnQW9vb29BS0tLS0FDaWlpZ0Fvb29vQUtLS0tBQ2lpaWdEeWo0ZC84QUlzMlgvQS8vQUVOcTd1MjZWd253Ny81Rm15LzRILzZHMWQzYTlEWElkQlF2dWhyTStIZi9BQ05QaXY4QTdkUC9BRUJxMHI0L0themZoMy95TlBpdi90MC85QWFyaDhSTXRqdnFLS0s2REVLS0tLQUNpaWlnQW9vb29BS0tLS0FDaWlpZ0Fvb29vQUtLS0tBQ2lpaWdBb29vb0FLS0tLQUNpaWlnQW9vb29BS0tLS0FDaWlpZ0Fvb29vQThvK0hmL0FDTFZsL3dQL3dCRGF1NnRlbGNKOE8vK1Jac3YrQi8raHRYZDJ2U3VRNkNoZmZkTlp2dzcvd0NScDhWLzl1di9BS0ExYVY5OTAxbS9Eci9rYWZGZi9ici9BT2dOVncrSW1XeDMxRkZGZEJpRkZGRkFCUlJSUUFVVVVVQUZGRkZBQlJSUlFBVVVVVUFGRkZGQUJSUlJRQVVVVVVBRkZGRkFCUlJSUUFVVVVVQUZGRkZBQlJSUlFBVVVVVUFlVC9Edi9rV3JML2dmL29iVjNWcWVLNFQ0ZG4vaW1yTC9BSUgvQU9odFhkMjMzVFhJZEJRdnVocksrSHpPdmlyeFZzUVAvd0FldWVjZndOV3JmZmROWS9nVzhnMC9YL0dOMWRUUjIxdENsdEpMTk00VkVVUnVTekU4QUFkelZSM0psc2QvNWszL0FEeEgvZmYvQU5hanpKditlSS83Ny84QXJWOHQrRFAyM20xTzU4VzZ2cS9nWHhwTjROanZUL3dqMnA2TDRQMUM1aXVyQkl4dXUzdUFwalpYYmV5N1FOcWdFazU0K2lQaDM0ODB2NG9lQnRFOFc2SjlvL3NqV0xWTHkxTjNBME1oallaVWxHNUdSK0JHQ01nZzFyWjl6UDVHNTVrMy9QRWY5OS8vQUZxUE1tLzU0ai92di82MWNYOEVmaWtueG0rSE5uNHNqMDF0Slc0dkwrMCt5Tk41cFUyMTVOYWx0MjFjN2pEdXhqamRqbkdhN3FuWjl3dXV4RDVrMy9QRWY5OS8vV284eWIvbmlQOEF2djhBK3RYQ2VLdmlsZjhBaEh4MW9XbDNQaExVNy93enJMeFdzUGlUU2lMcU8zdW5ZaFk3aUZSdmpqUHkvdnVVR1R1MkFBbGRXOGMrSjRQaU5iYUZwL2hWN3JTWXBJV3ZOUWVUYUd0NVVjQ1dKamhTMGNzZUhpSkxiSFZsOUtMUHVGMTJPNjh5Yi9uaVArKy8vclVlWk4venhIL2ZmLzFxa2xsU0NObmtkWTBWU3pNeHdBQjFKUHBVRnZxbGxkMlZ0ZVFYY0UxcGRLalFYRWNxdEhLR0dWS01EaGdRUmpIV2l6N2hkZGgvbVRmODhSLzMzLzhBV284eWIvbmlQKysvL3JWTlhudjdQM3hMdlBqRDhIZkRIakhVTEtEVHJ6VnJjelNXdHM1YU9NaDJYQUo1UDNlOUZuM0M2N0hlZVpOL3p4SC9BSDMvQVBXbzh5Yi9BSjRqL3Z2L0FPdFUxRkZuM0M2N0VQbVRmODhSL3dCOS93RDFxUE1tL3dDZUkvNzcvd0RyVVh0dzlwWnp6eHdTWFVrY2JPc0VXTjhoQXlGWEpBeWVuSkFyNWY4QTJnZjJuL0huZ3I0VGF6ckdsZkN6eFY0ZXY3ZVMxV1BVdFIvcytTQ0lQZFJJd1pWdUdKM0t4VWNIbGdlT3RKcHJxRi9JK29QTW0vNTRqL3Z2L3dDdFI1azMvUEVmOTkvL0FGcTgxOE5mR0R4SHJ1dTJWaGQvQ2J4Ym9sdGNTYkgxQytrc1REQVA3ejdMbG14OUZKcnozeEgrMTVvV2ovdEM2UDRRM2E4Tksrd1g4TjdFdmhlL2N0ZXBjVzBjVEk0Z082TUJwc3lMbEJsY3R5dVRYdUh5UG96ekp2OEFuaVArKy84QTYxSG1UZjhBUEVmOTkvOEExcTgrOENlUGRYOFZmRno0azZLNjJwOE9lSFRwMXBhU1JxUk1idVNCcHJoWE9jRUJIdGlPQjk1dXRlajA3UHVGMTJJZk1tLzU0ai92di82MUhtVGY4OFIvMzMvOWFwcUtMUHVGMTJJZk1tLzU0ai92di82MUhtVGY4OFIvMzMvOWFwcUtMUHVGMTJJZk1tLzU0ai92di82MUhtVGY4OFIvMzMvOWFwcUtMUHVGMTJJZk1tLzU0ai92di82MUhtVGY4OFIvMzMvOWFwcUtMUHVGMTJJZk1tLzU0ai92di82MUhtVGY4OFIvMzMvOWFwcUtMUHVGMTJJZk1tLzU0ai92di82MUhtVGY4OFIvMzMvOWFwcUtMUHVGMTJJZk1tLzU0ai92di82MUhtVGY4OFIvMzNVMUZGbjNDNjdIa3Z3Ny93Q1Jac3YrQi84QW9iVjNkdDByaFBoMy93QWkxWmY4RC84QVEycnU3WG9hNXpZb1h2ZXZPTDc0VWFYOFg5VTEzU05ldkw5ZENpdWJPNHZOTHRaaEZCcVNyRytJYmpqYzBXY0VvQ0EyTU5rY1Y2UGZkNjVDeThOYUw0MVBqclFQRUFMNlRxTWRyQlBHbDA5c3pyc2JJRWlNcktmZFNEVlIzSmxzY1o4WWZHNCtMdDVOOEVQaHBQRkxOY1JwYitKOVpzQi9vdWc2YWVKSWc2L0w5cGtRRkVpVTVVTVdPMEFHdm9UUmRIcy9EMmoyT2xhZkFscllXTUVkdGJ3UmpDeHhvb1ZWQTdBQUFWNXg4RWRmOENXMWo0bThNZUROR3R2RE9tZUU5WGJSSllZMWlqam1tV0NHWnBFMnNTd0luWExQOHhiZG4xcjFKV1YxREtReWtaQkhJSXJkZHpJK1BQMmEvd0JvYndWOEtQMmRORTAvVXRSZlUvRXMydGE2dHI0WjBXSTN1cVhETnJONlZDMjhlV0FQSHpNQXZQV3ZlL2hESjhROWJtMXJ4QjQ3anQ5RHR0UWFOZEs4S1FiSlgwMkJkM3pUenJrU1RTYmh1VlRzVUtBQ2VUWFRlRlBodDRTOEN2ZFNlSFBET2thREpkU3ZQY1NhZFl4UU5OSXhKWm5LcUN4Sko1TmRIUWt3UENsSHd5L1pFZzEvVVovRjF4b3VoYWk0bGc4S3ozcHVraXVNc1hGamI0YVhkSVdHWWt5b3hrS3ZOTitIdWorTVBqQjhROU8rSS9pMjB2dkNIaHZTVWsvNFJud3BKTVV1SkdsUW85N2ZLcHdIS01WU0U1MkJtM2ZNY0RXc1BDM3d0OENmSFNLeHN2QjluQjQ4OFR3WGV1TnJIMlJaWkdFY2lDYjk4NUxKbHBWT3hjTHpuRmRYb1h4ajhMK0kvR2t2aGV3dkpKTlVqRnlDSGhaRjh5M2tWSjRzc0FRNitaRzJDUG1TUlhYS25OQURQRlh3NXVOZCtKbmhIeFhhNmt0cEZwVnZmV09vMk1rUmtTL3RiaEYvZC9lQVVyTEhFKzRnOEJsNDNHdkRmRGZoVFN0WjhhZUIvaE40T3VidlcvQlB3MzFBNjFyR3EzTW9samh1Rkx2WTZja2dBRHRHMG04amtvc01ZWTVhdXovYWIrTS93cDBEd0o0cjhQZU12RjYyZDNhMnF6M0dpYVhyZjluNnBjREN5SkRFVmtSc3lEQzR6aGd4QjROYlB3UitKZndlbWlzL0Evd3oxUFNDdHJiR2ROTjBkQ3lJZ3h1WjVGQlZuSlBMRml6RWtrazVOREE5ZnI0bS9aUi9aNXY1UDJldkNYaW53RDhRUEVIZ2Z4RnFGckpQUEMwNTFEU2JpVHpYR1pMT1lsUm5BeVlpaDk2K2wvaXY4YWRCK0ZKMGFMVWRTMHVHNzFEVWJXek52ZWFoSGJ2SERMSnNhZkRISlZlVDZjZFJYbkhoSDlvbjRNL0Mvd0FXMjN3dzBYeFQ0UDBUd3RwV2pDNmd1MjhTUUdPR1UzRG9iWDUzUHpBZlB5MmNIcGptaDJ1Q3VlOWFCRnFVR2hhZEZyTnhiM2VycGJScmVYRnJFWW9aWmdvOHhrUWtsVkxaSUJKd0QxTlg2NG8vR3Z3RS9nblUvRjl0NHYwZlUvREdtSGJlYXBwZDJsNUJBZmw0Wm9TMkQ4NjhkY0VIcFhaeFNyUEVraUhjanFHVStvUFNtSWRYd3Q4ZGZoZjRVK0ZYaTI0SHhZOGErUHJ6NFE2L0hFdHRkeitNTlNuajArK2pKY3hYRVBtTnZqY3FqeHVGd2pwZzlWTmZaR3BhL29HdWVDZFExTmZFVnRCNGZrdFpqSnJkbGZwSEhCR0F3ZVZad2RxYk1INXMvS1Y5cStYZEU4VmZzb2ZERzl1ZFp2UEdsaDQxMW9Sc1p0YzFyVUxqeEpjaE1IZHRjK2FFR001MkJjanJTWTBkcit5VDRPMW9YUGlMeHpjNjE0dGs4TGE2a01maDNSdkZIaUM1MU9hTzFRRW02a0V6c0k1SmkyUWc1VkZVSDVpMVlQaVRTZmlqclg3VzNodiswZkVlZytGZFBqMEhWM3NYMGV6ZTZ1R3NsdXJMY3N6emtJc2pmdXpsVUlYRERuT1EzNEhhUjhFL0hIeEdUVS9oTnFIakxRRmpRNm5OWmFXTlQwN1FieFF5TGd3eXFzQnlYWDVJd3BJQk9NQTE2ZDQzL1oyOEsrSnRVOFFlSVBFL2lMeEU4ZDNaU1dyTTJ0eVdrV25XclN4VFNwQzhleG9rWXdKdXkzS2dnOEUwcmFENm5sZmdmNG5hcDRFK0NsLzhZekNzK2plSVBGOXpybXJ4U3drM1A5aVBNYldHVk1kNG9JN2VZOEhNYU1PTTVIMWpCUEhjd3h6UXlMTERJb2RKRU9WWlNNZ2dqcURYeS84QUEvOEFaNi9aKytJSGhDNHYvRGZnR1hVZkQwVXNtbldkNTRqYTR1NGJ5SkFGODIyVzVrY0dIcUZZS0FkcHdNWXIxL3hQNHM4T2ZzNC9CNTdxNmx2THZSL0MrblJSTENKUlBlU3hvRmpRZk1SdmM4ZFNNMDBKbm9sRmNsNGkrS1hoN3czNGRuMXFTOWp2YktDN2hzSm1zWkVtOG1lVmtSRWtJT0V5MGtZSllnRGVDU0J6V2o0VjhaNlo0djhBQ1dtZUlyU1I3ZlQ3K0Zaa0Y0dmt5UjU2bzZ0OTExT1ZJUFFnaW1JM0tLNFB4UjhaL0QzaER4NzRVOExhaktZNWZFa2Q0MXJmaDArelJ2YnhySThjamJzcVdRc1Y0d2RoR2M0cm9ZL0hIaCs0OEwzWGlPMjFteXZkQnRvNVpaZFJzNWxuaFZZcytZZHlaQjJsV0JBNUJCSFdnRGJvcW5vMnIyZmlEU0xIVk5QbkZ6WVgwQ1hOdk9vSUVrYnFHUmdEenlDRHpTYVRydW02L0ROTnBtb1d1cFJRVFBiU3lXazZ5ckhLaHc4YkZTY01wNEtua0hyVEF1MFVVVUFGRkZGQUJSUlJRQVVVVVVBZVMvRHova1dyTC9nZi9vYlYzVnIwcmhmaDUveUxWbC93UC8wTnE3cTE2VnlIUVViN29hOC9rOEFlQ3ZIR29lS0pQSE9rNlpxZWw2WjVGMkgxVlZNTnVCRSsrUWx1QUF1Y2s5QlhvRjcwcnpUVmZoSnBueG12dGQwVFhOUTFDSFFZN3V5dWIzVGJLWVJSYW1pbytJSnpqY1lpY0VxcEc3R0RrVlVkeVpiSGxmd1IvWjgrRm1yZkJQeGQ4UTc3d0hwUnR0ZXZkVDE3VFV1YlFmNk5ZQUZMVUlDQVZWb29VbDJub1pXcjFmNEpXZmkvVHYyT1BoN0g0T0dsU2VMVzhNNmJOYWp4REpLdHB1ZU9OM0VyUmd2OTFteGdIbkhhdFB4NzhOZEgrT3VoTlk2WDQ2MTN3MzRjdFZ1TkV2dFA4UHl4MjF2Y0tqZVhMRTIrTWtiZHJKdWpJNHlNOFY2enBPbVd1aTZWWmFmWXhMQlpXa0tRUVJKOTFJMVVLb0hzQUJXeVJrZlAzbS90YWY4QVBwOEd2L0F6VmY4QTR6WG9md2pmNHV0TnFYL0MwSWZCY1VXMVBzUC9BQWljMTNJU2VkL20rZWk0L2h4dDk2M05LK0xIZzdXZkQxcHJ0djRqMDlOSnU3cWF4dDdxNm1GdXMwOFVyd3lScjVtMGxoSkc2NEhVcWNacnJBUVJrY2luWUQ1aitPdWorSzlaL2FzK0cwZmczeEhhZUd0Wmo4TDZ6S3M5L3B3dllKbEU5bm1KMDNvUURrZk1yQWpIZnBYby93QUdyeng3THF1dVcveEE4QzZIb09xb1k1ZitFaThQWGF6V3VyRWpadTJzcXl4dXFvZ0lmZHh0QVBHS3MrSmRDOE9qOW9Id1JyVjlyejJ2aWIreDlUc3RNMGZabGJ1SGZidmNTWnh3VXhEM0gzKzliM2lyNHErRy9CbXVXT2o2cmV0QnFGNFlqSEVJMk9Fa2xFS3lFOU5va2VOQ1JuYVpFempjS1hVRHdyOXFQVHRVOFJlS3RQdWRha2o4SWZEandwUGE2cExxcjJpWDExcitwc3hXMXRMZTNEWlpZM0tOaHdkOG13YkNxN2l2d00xejR6ZkZtMTFhUFVkYjAzd1RwT2g2ek5wN3lSNlJFK3NYb2pZTUZtVGMxdmJuWXlxMnp6TW5kalp4WHFQeDQ4RitIL2lOYStFL0QrcGVKVzhNK0l2N2FpMVR3NWN3TkcwMzI2MVI1Y3JFNEt5aFl4SVdVZ2pIdmlrOEwvRGJ4N291dTI5M2ZmRW1HNzA0WEJ1THV3cy9EZHRhL2JDUno1a201aUNlTXN1RHhSYlVPaDUxKzE1Zk8xMTRTc2RQK0dqZUxkV090NmE4V3BYcTI4Tmh6T1FMZVM0ZmM0M0VjaFkzQUJ5ZXRlVStKZkZVdHArMUZycnk2ajRmOEFXdWwrRUxYVEx5NWwwWk5SMDl0UWdXVyt1YmFGbWVINWxoblJnY1pLb2VCaXZxRDR6K0V0VThRcHBlb3Q0bnNQRDNoalFKbDFxKyswYWExeEt6MitaRllTQ1ZRaURHV0d4aVFEZ2pOZk5saDRKK0N2eG8walN2Qjk5OGVkRjhSV054ZU5xaytuMlY5YldlcGFycmNwYi9BRXQyTG1UZ3NnamdSUUYyS3BMcUFvVDNHajBIeHZZZUkvRlAvQlAvQU1VWFhpZXd0TFR4UGUrRTduVnJxMTA2eit6cUdFYlR4cDVRSkljSXFLd3lmbUJyMjdRL2lWb0V5ZUM5T2wxR0tMVlBFdW5HODAyMTZ0T2tjU1BJUmpqNVZkVFUvZ1h3eHJ1aWVGMzBqeFY0aGo4WHpBdEV0ODlnbHE4a0JHQXNxSXhSbnhuTEtGQno5MFZ3dndlL1psOEpmQmp4SGRhMXBtcWF4cTA0dFRwK214YXpmbTVqMGl5TDd6YldvSS9keGxndnFjSW96Z1ZXb2pHK0NrRGVFUGpQOFgvaHJjUUkyZ3ROYmVLTklnbFVGZkl2bGRicU1MMDJDNWhsT1BXVnFmOEFHN1ROTTFMNG0vQ0h3SmQyVnZCNFYxbSt2YjI5dGtqVklieVcwaFdTM3RwQU1CbFpuTWhROE41R0NDTWl2U2REK0tIaGJ4RDQwdXRBMCs3V2JXb281UkorNktrK1JJRWxqeVFEdVF5eHNWL3V6SXd5R0JxaDhjL0EzZzd4djhPOVJIamRwYlRSdEtSdFZPcVdzendYT210Q3BmN1RGTEg4Nk1nREhJN1pCQkJJbzZBZDlGR2tNYXh4cUVSUUZWVkdBQjZBVjh5ZnRJWGNmL0MyZkRWbjhUcExtMCtDRWtVVzJXMUpGblBxeGxJV0xWR0hLMitObXdIOTJ6L2ZQUVYyUGdieFpwbndtR20rSGRZK0lPdmVPNU5XTnJQcDEzcTBNQmVDMW5QbHhPWkkwUXlJWk5pTTdiMkRUUjV3R3pYcitzYVJwL2lQUzd6U3RUdElOUnNMcU13M0ZwY0lKSTVFWVlLc3A0SU5HNEZpeml0NGJTQ08xV05MVkVWWWxoQUNCQU9Bb0hHTWRNVjh6ZnRXL0RMd040MDhjZkRqUkx2d3JwT3BlTFBGZmlHM1dhN250VWVZNmZaS2JtNExFamxOc2NjUkI3UzRyMTc0TmZDTlBndm9lb2FEWWE3cUdxK0hqZHROcFZocUxlWTJsd0VEL1JvNUQ4enhxMlN1NGtxRGpKeFZxWDRXMk54OFk0ZmlIZDNzMXhmV3VqTm8xbFpPRjhtMVY1UkpOS3ZmZSt5TlNld1RBNm1oNmdjTnB2dzExV1dQVUYrR1hqYnd2NFk4SW02a2lYU05MOEtXODBFYzBaOHFaWFpaVkRPSGpLbmdFYmNkcTYvNDVhcDRQOE8vQ2JXOVYrSU9sVyt2K0dyQ0pKcnF5bnMwdUJPKzlWalZZMzRMbDJVTGs5U09SMXJ6NngrRTl6cEhqUHhMNGM4RmZHVHhCNFgzU3RydDM0ZmowK3h1MXREZVRTdVhqbHVMZDJDdklzeEM3amdnOEN2Vy9pQjhQdEgrSi9nRFZmQ1hpRkpMM1NkVHR2czl3eVBzazdGWkZZZmRkV0NzQ09oQW9BK2V2Mmh2MmJmQ0ZuNER0Ymp3SjhGTlAxUHhWYnp4NmpZZllOTnNka1UwUlZ4RGNpV1JNeFNndEd3WGRnRW5HUXByMmJYTklHcmZBRFZyR3o4UER3ekpmZUhwd3Vob2lLYlNTUzNZbUVpUDVjaG13ZHZHYTRUd1A0TzhaK0xmQzlyZStGLzJnOVMxYncrV2x0b0w1dEEwK2FjbUdSb25CbGFJQm1WNDJVa3BrbFRuTmUvUnFVaVZXY3lFQUFzMk10N25GQ1FIa3Z3SStJMmhOOEMvZzdKYzZoRkJQcitqMk5sWlJNY21XNVd6M3ZFTWZ4S0lwYyttdzFqK0NZSXZBWDdXSGpqdzlhSVl0UDhBRjJpUWVLMWhRWWpTN2hrRnBkTUIwQmRXdFdPT3JCeWVUVlR3ait6NzhPZmhKOFo5THZyZlZ0WU9wYWgvYUZ6NGU4TlhkM0pMcHVtczVWN3lTMWlDN1lpZk1IVThCeUZIcDc1NU1YbitkNWFlZHQyZVpnYnR1YzR6NlpvU0FmUlJtak5VSUtLTTBab0FLS00wWm9BS0tNMFpvQThsK0hmL0FDTGRsL3dQL3dCRGF1NnRlbGNMOE8vK1Jhc3YrQi8raHRYZFd2U3VRNkNoZmRLOGk4ZFA0TGpzUEVSOGJXTjVxMXFiK3dUVDlNMDJhV083dkwxb3BWaWlnRWJvV2NobjRMQlFBek5nS1NQWGI3N3RlTWVJUGhUNGg4Yy9FL1R2RXZoZlhOUDByVi9DbDJMaU8zMWV6ZTZ0SnhQYVNRbG1SSkVZT2dZbFNEM0k3MVVkeFBZK1ovQTN3ODhRU2FmNGYwZlJ2aGw0SDFYVTliMS9XTDBhZDRoMUM0dmJ1R3h0cnlWcDBuZDBlS003aWxzcnI1bnpTSzJldVB2YjRVL0VtdytKZnc3dDllMDJ3bTBveEdhenVOTHVWQWxzYm1CMmltdDIyOFpSMFpjamdnQWpyWGpYdzkvWjg4ZWZBMjExeWJ3by9odnhKNHc4VWFwZFhlbytKOVprbnRvOVBna2tNeXhRMnErWnVVU3l6dUVEb0NYK1luT2E5bitEZnd3ZytFWGdDejhPeDM4MnIzUWxtdkw3VTdsUXNsN2R6eXRMUE13SEEzTzdIQTZEQTV4bXRrckdMUENQMlJQZ1hvWGluNEk2YjRnOGM2RnAydmFocmEzTFEyZDliSlBCWTJiM0VqQ09KV0IybVVzMDBoNmw1U000VlFQUWYyVTViMjYrQTBlbXhYMGhiUzlRMWJSZFB2TGdtWmhCYlgwOEZ1ekZqOCtFalRxZWNWby9FWHc3OFV2RU4vUDRhOEgzZmg3d1Q0UGx0eEcydnhHU2JVNHR3TzliZTNDTEZHdzV4SXp0aklPMG5wMi93LzhBQVdsL0M3d0xwUGhYdy9FMGVuYVhiQzNnRTdsbmNqcTd0M1ptSlpqNmswMHJBZkx0ajhOUGlmNDkvYVh1WXI3NHR6Tko0RDBIWkhyVmg0ZHM0V2p1dFJjTThDcElzaU9CRGFSTXhQekx2WHB1clErR25pdnhocjE5OEpQaWxmd1NhOHVzTmZlRC9FRVZ0YkZsZ01kM01sdnFNY1l5SWd6VzRFdTNBeEt1ZnVManVOQStHL3hhK0gzaE85ZlFMbndqclBqSHhKcWQ3cXZpRzkxZWU2aGdpbGwyckF0dDVjYk15UXhJc1lWOEVoRjVGZW4vQUFpOEFKOExQaHA0ZDhLTGNpOWZUTFJZcHJzSnMrMFRITFN5NDdiM1pteC90VWtnUEx2MngyZ3V2Q1BoaXgwcUs0dXZpVi9iVUYvNE90Yk5OMGtsOUIrOGZlU1FGZzhuekZsWmpnSXhPQ1FvUFJlRGZobjQ1MXJ4TnBYaTM0aStMbisyMlFNbHQ0VjhOdTF2cE5xN0tWSmtjNGt1MkFKR1h3bWVRZzYxUDhYUGhoNG8xM3hwNFc4YytCOVgwMnc4VDZCYjNkajlqMXVGNUxLOXRya3hHU04yak8rTmcwRWJLNmc5Q0NDQ2FwNkpjZnRBM090V0kxalQvaHRwMmtDNGpOMjloZjM5MU8wRzRlWUkxZUNOUTVYT01uQU9NNXA5UU85K0liZU1WOFBZOERKb3I2NDB5TG5YbWxXMldJbjUyL2RBc1dBd1FPaDZaSFd2Qy9pcnBYeE0rRnZoRFZmaVBxR3ArQlBGQjhPUUhWYnJURDRYYTFhU0dMNTVQSnVUY1NNa29VRXF4QkJJQU9NNUgwMDJkcDI0empqUFN2bjNWdmhOOFR2amg5bXNmaWhxbWgrSHZCa2R3azl6NFo4S1NUWEQ2bUVZTXNkemRTcWhFV1FDMGNhRGQwTFlvWUh1TDYzWXA0ZGJWNzJlS3gwMFdwdTU1N3B4SEhERnMzTXpzZUZBWEpKUEFBTmVWeGZzbmZCblZrUy9oOEhhZmN3WEtpWkpJTG1Zd3lxM0lZQlpOcEJ6bkk5YTlEK0lYZ2l6K0ludzg4UytFTHVXUzBzTmMwdTUwcVdXM3dIamptaWFKaXVlTWdNY1o5SzhpMExTUDJpdkIyamFmb05tdncwMSt5MCtCTFdMVTcyNXY3S2VXTkZDcXp3SkRJb2JBR2NQalBwUjZnajJYd240SzBId0pwVWVtK0g5SnROSXNVeGlHMWpDamhRb0pQVW5hcWpKN0tQU3ZFL0Uvd0FGdFA4QUVrbmpPZVg0NitOcmZTcmFXNC90blRvdFZzM3Q5UFIwODU0V0RXN0dOQkZJQ0ZZOElSMTYxN040RVR4VW5oMkwvaE1wTklrMTB1NWsvc1JKVnRsWFB5Z2VZZHhJSFVuR2ZRVjVJZkN2eFcrRkhpcnhiYytDOUc4TitOUEQvaUhWSk5ZOG5VOVVsMCsrdEpwRVJYVGNJWkVraitUS25La0Q1Y0hBTkRBODIvWUt0dkJHb3plSVcwM3hqZjhBam54WjRUYVhRQnFjK3ZQZjJyYVhJNlMyejI4WWN4b3JwRkNHQVhjcnd1dkE0UHAvdytVMlA3WC9BTVhvSld3OTdvT2czc0trOVVIMnFKaVArQkpqOEs5QStGNytMcml3dnJyeGw0YzBIdzNxRXN3OHVEUTc1N3ZlZ0hXVjJpaitiT2VBQ01kNjQ3NHhmQnZ4WjRqOGFXZmpINGUrSjdId3Q0a2JTcE5CMUNYVWJKcm1LZXpaOTZNb1YxS3l3dVhaRGtqNTJCSFBDNkFVL3dCcVh4QmMrQlBDZmhuNG82WmRUU1cvaExWcmU2djRiYVZtanZOTXVIVzN1VjJLZHJrTElzcWs5REVEbkdRZXkrTnVrWFBpUHdFMXJaZURvUEhwa25pYzZWTHF2OW5CbDVQbUxOZzRLOFlIR2M5UlZqd3o4SGZEdmg3NE8yWHcxbXRqcXZodUhTLzdKdUk3dGlXdW95bTJSbkl4OHprc3hJeHkzR0t5Zmp4OE45VzhkL0RXSFF2RFpzdzlyZDJzN2FaZnp5UVd1b1c4VEF0YVN5UmhtVkhBQXlBZWdCQkJJcGdmSCtoZkN6VzdyOW9EeFpZV253SHN2TkdnNlpNZE0xN3g1TVk0Rk0xNHZtN294TDVxdVZJMkhHM3krbnpWOTYrRTdDYlNQQjJqV1Z4WVdtbDNGcllRd3lXT255R1MzdG1XTUF4eE1WVXNpa1lVa0FrQWNEcFh5MzRTL1k3MUxXUEdQaUR4aGNXVmw4RnRWZlQ3V3cwUzM4QWFrN20za2lrbGtlNHVNeFJ4VGJ6S3FHTmtZYkVISVBJK3JQRDlwcU5yNGQwNjIxbTlpMUhWbzdXT084dklJZkpqbm1DQU82cGs3QXpaSVhKeG5HYVVVRFBOL3dCbG0yUzErQmZoNUkxQ0kwdDdJQUJnZk5lVHQvV3ZRdGR1Sm5TT3d0WE1kMWRaWHpWUE1TRDd6ajNIUWU1RmVMK0dOQytMbnduME4vREdrYWQ0VDFqUWJPYWVTeTFyVWRSbnRuaWdlVnBBczBLeE5sbDNFWlZzRUtPaEpydWZoUjRMMVRSZEoxTFZmRU9yeTZ6NGkxcVF6M0Z4dE1VVVM0d2tjTVJKOHRBTWNaSlBjazBtM3NqV21sOGN0a2VMWGZ3bnMvRm54NHZiQzk4VGVMTllzUERXbHh3cFBjNjFKRmk4dkdadktFa0lVaENrRVlZRG41MXpuaXZadkEwdnhPZzFLeXMvRVdpZUZiUFFZNGpHMHVsNnhkWE55bTFjSU1TMjZCdVFBU1d6MzVyaWZDM3dndmZGUHdZOFc2Tk5xYTZYck92YWpKY3RxRUNHUVJQSEloaUJCd1dVQ0pWSTQ0SjVydGZCbC84QUVxNDE0V3V1eCtHRTB1MFl4M01sbkpjRzZrK1g1V1ZXVUtBVGc5VHhudlVVNWQrcHZpS2FpMms3dVA4QVZ6dnRUdlJwMm5YVjAyQUlZMmsrYnB3TTF4Rmw4VEpvSjRQN1Z0WTRvWnJRWFFNQkpaY25DcVFlNTQvT3UyMWFDMHVkT25TL1ZHczl1NlVTSEM0SFBOYzNCL3doODlsY1JwOWpOdUVSNWQyUjh2OEFCeWVmcGlpcHpYWEt5c082UEkxVWkzNmRDcnF2eEhrc3BiVXJwMDZSYlpKYmhKVnhJc2E0QVplY1lKTld6OFNMTHpDcVdkMC83MktJRUJlV2tYSUdNOXU5RFA0VXVyeXpYWkRjVHlrd1JLcXN4d3B5UVI2QThuTlY5YmJ3M0RxMDlzMXFuMjQ0bG11RndCQVRoUXh5Y2J1UmdBVm5lb3RibzYxSERTdEgyY2svK0NhK2hlTDRQRUY3TERhMnR4NVVZTzY0ZFFFemtqSFhPZU9sTjFYeHJaYVhmdmF0SExNMFR4cEswWUdJMmMvS09UeWUvRlpuaDJYdzU0VGpabzlWUW02YllQTWNnQXB3UUY3Y25uM3JvcGZEK20zVjIxM0phUnZPK0NaTzVJR0Fmcmp2VnB6bEhmVTVweG9RcWFwOHY1c3hvZmlGYVhGd3NTMnR3aU9aZ2t6YmRoOG9aWThIT0tyYVA0L2x1Ull3M2VuUy9iTDJMejRVZ3h0WkMyQjFQWEhQMHJiSGcvUjFWVkZqR0ZWR2pBQlBDc2NzT3ZlcGRPOFAyK24zUG5ndEs2cjVVTy9HSVkreUxqdCt0SzFXKzQzUENXZG92K3IvQVBBUE92aDMvd0FpMVpmOEQvOEFRMnJ1cmI3cHJoUGgzL3lMVmwvd1AvME5xN3UyNlZKeWxHOSs3V1g4UEpSRjRvOFZaREhQMlg3cWsvd042VnAzeCtVMW4vRGova2FQRmY4QTI2LytnUFZ4M0psc2QxOXFYKzVML3dCKzIvd28rMUwvQUhKZisvYmY0Vk5SWFFZa1AycGY3a3YvQUg3Yi9DajdVdjhBY2wvNzl0L2hVMUZBRVAycGY3a3YvZnR2OEtQdFMvM0pmKy9iZjRWTlJRQkQ5cVgrNUwvMzdiL0NqN1V2OXlYL0FMOXQvaFUxRkFFUDJwZjdrdjhBMzdiL0FBbysxTC9jbC83OXQvaFUxRkFFUDJwZjdrdi9BSDdiL0NqN1V2OEFjbC83OXQvaFUxRkFFUDJwZjdrdi9mdHY4S1B0Uy8zSmYrL2JmNFZOUlFCRDlxWCs1TC8zN2IvQ2o3VXY5eVgvQUw5dC9oVTFGQUVQMnBmN2t2OEEzN2IvQUFvKzFML2NsLzc5dC9oVTFGQUVQMnBmN2t2L0FIN2IvQ2o3VXY4QWNrLzc5dC9oVTFGQUhQNnBjZjJyZnhhYXF1WUV4TmRIWWZ1L3dwK0o1UHNQZXRnM0txTWxYQUgrd2F6MnNiNnp2N3VlMEVFcVhMSzdMTXpLVllLRjRJQnlNQVU4dHJCQkJ0N0lnLzhBVFZ2L0FJbXMwN083T21VYnBLTDBLZmhPV3ppMHQxdEpoZFJHZVZ0OFNrakpjbkhUdGtVN1dKdjdPdW90VmpXUUlnOHU1WFlmbWp6OTc2cWVmb1RUckN3djlMZ01OcFkyRnZFV0xiRWtZREo2bjd0UzNFZXIzTUVrUmlzb3hJcFV0dlpzWjlzRE5TdmhzYVN2N1J6NlB6UXp4S2JhOTBDN2pudXBMTzJranhKT3FkRlBYcU8vVDhhNHk0c2ZEMFpra2sxYTRpa3pDNmhyY2p5MWk0WEs3ZnU4anJYYWFoNFh0OVQ4UHg2Uk5KTUlVVkZFaUhEL0FDNHdmMHFsZGVBYkM5dWZPbm11cGkwYXh5SzdnK2FGT1J1NDlmVEZST01wTzlqb3c5V25TVFhPMXIwUnoybW53MW91dXdUeGFuY05jeGI0V1JvUzNtU01kekVuYjErbnRVV29yNGR1cDVOUWsxaTRFbDNJdDRqckFTRldQSUhHMzdvOS9TdWdYNGMyQ09yaTV1OTZ5U1NodHk1RE9NRS9kNjQ2ZWxNLzRWcllmWi9JKzFYZmwrUUxZRGN2Q0J0MlB1OXoxclAyY3JXNVVkUDFtbHpLVHFTdjZMMTdHVnBOdjRic0w1YjFOUmxuRnN2bHRITkNUdWVVN3QzM2NrdDdWMFk4ZGFJWklvL3RtR2tRU0xtTnNiZlhPT09oL0txMC93QU83Q2QzZHJpNTh4cmhiamNDdkJBMmdmZDZZcWQvQkZuTC9hWG1UVHY5dWlXRjhrZklvNkJlT0t1S25IWkl3cXp3OVYzbk52OEFyMEV1UEhGaG0yVzJjek5QSUZYZWpxTnVOeFlmTHp4elRkUzhlYWZaV2MwMEtUWGNrVWlSR0ZZeXJibis2UG1BcEQ0RHR6SGFMOXV2djlGaGFHSmc2NVVNTUVnN2V1T0taWi9EeXdzbmpaSjdwZ2wwTHNxektRempwbjVlZy9yVlhxOWpOUndhM2svODlmOEFJNDc0ZC84QUl0V1gvQS8vQUVOcTd1MjZHdUUrSG4vSXQyWC9BQVAvQU5EYXU2dGVsUWNoUnZ2dW1zLzRjZjhBSTBlSy93RHQxLzhBUUhyUXZ2dW1zNzRkTnQ4VWVLdiszWC8wQjZ1SHhFeTJQUWFLak1sSnZOZEJpUzVvelVPODBielFCTm1qTlE3elJ2TkFFMmFNMUR2Tkc4MEFUWm96VU84MGJ6UUJObWpOUTd6UnZOQUUyYU0xRHZORzgwQVRab3pVTzgwYnpRQk5tak5RN3pSdk5BRTJhTTFEdk5HODBBVFpvelVPODBielFCTm1qTlE3elJ2TkFFMmFNMUR2Tkc4MEFUWm96VU84MGJ6UUJObWpOUTdqN1VielFCTlJVUWZGT0VsQUhrM3c4LzVGdXkvNEgvNkcxZDFhOUs0WDRlZjhpM1pmOEQvOURhdTd0SzVEb0tGNzl3MWwvRDcvQUpHanhWLzI2LzhBb0RWcDMzM1RXVDRBYmI0bzhVLzl1djhBNkExWEQ0aVpiSGY1cEN3RlFOTGpxZnlwaG1BNkN0N21KWjNqMW84d2V0VlBPUGFrODlxTGdYUE1IclI1ZzlhcCtlMUhudFJjQzU1ZzlhUE1IclZQejJvODlxTGdYUE1IclI1ZzlhcCtlMUhudFJjQzU1ZzlhUE1IclZQejJvODlxTGdYUE1IclI1ZzlhcCtlMUhudFJjQzU1ZzlhUE1IclZQejJvODlxTGdYUE1IclI1ZzlhcCtlMUhudFJjQzU1ZzlhUE1IclZQejJvODlxTGdYUE1IclI1ZzlhcCtlMUhudFJjQzU1ZzlhUE1IclZQejJvODlxTGdYUE1IclI1ZzlhcCtlMUhudFJjQzU1ZzlhUE1IclZQejJvODlxTGdYUE1IclNoeDYxVDg1cVVUZTFGd0xnTkZWVmxIMHFWWlB4RkZ3UE1QaDUveUxkbC93UC8wTnE3cXpyaFBoNS95TGRsL3dQLzBOcTd1enJsT2dvWHYzVFh4WCsySjQ0OFIrRFBGR2wvOEFDUDhBaURWTkMrMCtiNS85bTNzbHY1dTFJZHU3WXczWTNOalBUSjlhKzFiMzdwcjRQL2JwL3dDUm8wUC9BTGIvQVBvRnZYME9RUmpQTXFVWks2MS85Slp5NHAyb3l0L1dwNHAvd3U3NGkvOEFRL2VLUC9CemMvOEF4ZEgvQUF1NzRpLzlEOTRvL3dEQnpjLy9BQmRjVlJYN0Y5V28vd0FpKzVIZ2MwdTUydjhBd3UzNGlIL21mdkUvL2c1dVAvaTZUL2hkbnhFLzZIM3hQLzRPYmovNHV1TG9vK3JVZjVGOXlEbWwzTzAvNFhaOFJQOEFvZmZFL3dENE9iai9BT0xvL3dDRjJmRVQvb2ZmRS84QTRPYmovd0NMcmk2S1BxMUgrUmZjZzVwZHp0UCtGMmZFVC9vZmZFLy9BSU9iai80dWovaGRueEUvNkgzeFAvNE9iai80dXVMb28rclVmNUY5eURtbDNPMC80WFo4UlA4QW9mZkUvd0Q0T2JqL0FPTG8vd0NGMmZFVC9vZmZFLzhBNE9iai93Q0xyaTZLUHExSCtSZmNnNXBkenRQK0YyZkVUL29mZkUvL0FJT2JqLzR1ai9oZG54RS82SDN4UC80T2JqLzR1dUxvbytyVWY1Rjl5RG1sM08wLzRYWjhSUDhBb2ZmRS93RDRPYmovQU9Mby93Q0YyZkVUL29mZkUvOEE0T2JqL3dDTHJpNktQcTFIK1JmY2c1cGR6dFArRjJmRVQvb2ZmRS8vQUlPYmovNHVqL2hkbnhFLzZIM3hQLzRPYmovNHV1TG9vK3JVZjVGOXlEbWwzTzAvNFhaOFJQOEFvZmZFL3dENE9iai9BT0xvL3dDRjJmRVQvb2ZmRS84QTRPYmovd0NMcmk2S1BxMUgrUmZjZzVwZHp0UCtGMmZFVC9vZmZFLy9BSU9iai80dWovaGRueEUvNkgzeFAvNE9iai80dXVMb28rclVmNUY5eURtbDNPMC80WFo4UlA4QW9mZkUvd0Q0T2JqL0FPTG8vd0NGMmZFVC9vZmZFLzhBNE9iai93Q0xyaTZLUHExSCtSZmNnNXBkenRQK0YyZkVUL29mZkUvL0FJT2JqLzR1ai9oZG54RS82SDN4UC80T2JqLzR1dUxvbytyVWY1Rjl5RG1sM08wLzRYWjhSUDhBb2ZmRS93RDRPYmovQU9Mby93Q0YyZkVUL29mZkUvOEE0T2JqL3dDTHJpNktQcTFIK1JmY2c1cGR6dFArRjJmRVQvb2ZmRS8vQUlPYmovNHVqL2hkbnhFLzZIM3hQLzRPYmovNHV1TG9vK3JVZjVGOXlEbWwzTzAvNFhaOFJQOEFvZmZFL3dENE9iai9BT0xwZitGM2ZFWC9BS0g3eFIvNE9ibi9BT0xyaXFLUHExSCtSZmNnNXBkenRmOEFoZDN4Ri82SDd4Ui80T2JuL3dDTHBSOGNQaU1PbmoveFIvNE9ibi80dXVKb28rclVmNUY5eURtbDNQMWorSG4vQUNMZG4vd1Avd0JEYXU2dGVsY044UFArUmFzLytCLytodFhjMnRmejRmVWxLKys3WHdmKzNUL3lOR2gvOXQvL0FFQzNyN3d2dWxmQi93QzNUL3lOR2hmOXZIL29GdlgwZkQzL0FDTTZYL2IzL3BMT1RGZndaZjExUGwraWlpdjJnK2ZDaWlpZ0Fvb29vQUs5ei9adC9adHVQaTllVDY5cjAvOEFZbmdIUzh5WCtweXQ1WWxDOHRIR3g0NmRXNktQZXZESytzZjJkZmpub0hqTHdISjhGdmlTL3dCbTBDOVh5ZE0xV0p2S051NWJLcElSeDk3a01lTThOa1Y1T1oxTVJUdzdsaDFyMWExYVhWcGRXamVpb3VkcEhnUHhnazhHU2ZFTFZ2OEFoQUxlNnR2QzZ1RXRWdXBDNWJBd3pLVytiYVNNZ01TZWZ3SEdWMmZ4ZytHMDN3aytJV3JlRjV0UXRkVU5rNDIzTnE0WU1qREs3Z1B1dGdqS25wK1Jyaks3c080dWpCd2x6S3lzM3UvTm1jNzh6dWdvb29yb0lDaWlpZ0RwL2hsNER1L2lkNDkwVHd2WXlwQmNhbGNDTHpwQmxZMUFMTzVIZkNxeHgzeFhyM2luNHVlQmZoZHJGeDRhOEQvRGp3ejRpc0xCMnQ3ald2RnRvMTljWDBpOE5JbzNLSWx5RGdMOWVLODcrQVBqeXkrR254aDhNK0k5U1ZqcDFwY010d1VHV1dPU05vMllEdmdPVHg2VjFIeFIvWnA4YWFSNHB1THJ3N29sOTR3OE42bEkxMXB1cjZGYlBlUXpRdWNya3hodHJET0NEanB4WGk0aHdsaWxUeEVyUTVkTmJKdTd2NnRLMWw1dG5SQzZoZUsxTG54RjhJZUV2aUQ4S3BQaWI0SjBzZUdaOVB1a3N0ZjhQckswa0VMeUg5M05BVzVDc1NCdDZEUEdNYytGVjlHK0o5QmI0Q2ZzNjZ2NFM4UlNSeCtOUEdOM2JYTGFPamg1TEMxaFlPclRZSjJzeEdBT3ZQc2NmT1ZiNENYTkNkbmVLaytWdlc2MDY5VmU2VDdJbXFyTmQrb1VVVVY2WmlGRkZGQUcxNExpMGFieFpwRWZpRkwyVFJIdVVXN1RUZ0RjTkdUeUVCNzE5T2Y4SW4relYvMEJ2aVIvNENuL0FBcjUyK0VzMm8yL3hNOE5TYVRxdGxvbXBMZlJlUnFHb2tDM2dmUERQa0VZcjcrL3RuNHcvd0RSY1Bodi93Qis0djhBQ3ZsczNyU3AxSXFNMnRQNW5IcjVSa2R0Q0thZDErSC9BQVVmSlB4dDBUNE9hWjRUaWs4RFdIakcwMXRybFYzNjNDRXR6SGc3aGtqcjB4aXZDcSt3L3dCckRVdmlEY2ZET0dQeEw4VGZCM2lyVFRmUi93REV2MFFScmNGOE5odUJrZ2QrbGZIbGVsbGMzVXcvTktWOVgxYi9BQmFqK1JqV1ZwaFJSUlhybUFVVVVVQUZGRkZBSDZ5ZkR6L2tXckwvQUlIL0FPaHRYYzJ0Y044UGYrUmFzLzhBZ2Y4QTZHMWR6YWpqOEsvblErcktWOE1nMThLZnQxVzBoOFE2TFB0L2RxMHlsdmNwRGovMEUvbFgzZmRwd2E4TS9hSitEcWZGSHczSkZIOGw1Rmg0cEF1U2pET0RqdU9TQ1BRKzFldGxPS2hnOGJUcjFOazlmbW12MU1LOEhVcHVLUHplb3JzOWQrRHZqRHcvZHlRVGFIZFhRUnRvbHM0ek1yZTQyalA1Z1ZsLzhLLzhVZjhBUXQ2di93Q0FNdjhBOFRYN1RIR1lhYTVvMUl0ZXFQbjNUbXRHakFvcmYvNFFEeFAvQU5DM3EvOEE0QXkvL0Uwbi9DQStKLzhBb1hOVy93REFHWC80bXIrczBQNTE5NkZ5UzdHRFJXOS93Z1BpZi9vWE5XLzhBWmYvQUltai9oQXZFLzhBMExtcmYrQU12L3hOSDFtaC9PdnZRY2t1eGcwVnZmOEFDQmVKditoYzFiL3dCbC8rSnBQK0VEOFRmOUM3cTMvZ0RMLzhUUjlab2Z6cjcwSEpMc1lWRmJ2L0FBZ2ZpYi9vWGRXLzhBWmYvaWFQK0VEOFRmOEFRdTZ0L3dDQU12OEE4VFI5Wm9menI3MEhKTHNZVkZidi9DQitKdjhBb1hkVy93REFHWC80bWovaEEvRTMvUXU2dC80QXkvOEF4TkgxbWgvT3Z2UWNrdXhoVVZ1LzhJSDRtLzZGM1Z2L0FBQmwvd0RpYVA4QWhBL0UzL1F1NnQvNEF5Ly9BQk5IMW1oL092dlFja3V4aFZ2K0gvaUQ0cDhKMjBsdG9maVhWOUd0NURsNGRQdjVZRVkrcENNQWFiL3dnZmliL29YZFcvOEFBR1gvQU9Kby93Q0VEOFMvOUM3cTMvZ0RMLzhBRTFNcStHbXJTbEZyMVExR2EyVE1pN3U1Nys1bHVicWFTNXVKV0x5VFRPV2QyUFVrbmttb2EzZitFRDhTL3dEUXU2dC80QXkvL0UwZjhJSDRtLzZGM1Z2L0FBQmwvd0RpYXI2elFYMjE5NkZ5UzdHRlJXNy9BTUlING0vNkYzVnYvQUdYL3dDSm8vNFFQeE4vMEx1cmYrQU12L3hOSDFtaC9PdnZRY2t1eGhVVnUvOEFDQitKditoZDFiL3dCbC8rSm8vNFFQeE4vd0JDN3EzL0FJQXkvd0R4TkgxbWgvT3Z2UWNrdXhoVVZ1LzhJSDRtL3dDaGQxYi9BTUFaZi9pYVArRUQ4VGY5QzdxMy9nREwvd0RFMGZXYUg4Nis5QnlTN0dGUlc3L3dnWGliL29YZFcvOEFBR1gvQU9KcGYrRUM4VGY5QzVxMy9nREwvd0RFMGZXYUg4Nis5QnlTN0dEUlc5L3dnUGlmL29YTlcvOEFBR1gvQU9Kby93Q0VCOFQvQVBRdWF0LzRBeS8vQUJOSDFtaC9PdnZRY2t1eGcwVnZmOElENG4vNkZ6Vi8vQUdYL3dDSnBmOEFoWC9pai9vVzlYLzhBWmYvQUltajZ6US9uWDNvT1NYWXdLa3Q0SHVwNDRZeHVra1lJbzlTVGdWdXgvRHp4VEk0VmZEZXJaUEhObElCK1pXdmFmZ0wrelhyV3FlSkxQVmRjdFJhMjFxNGtqdG53eExnOE0rT0FCMUF6a2tkTVZ4WXZNOExoS1RxU21uYlpYMWJOSVVaemxaSSsyL2g4aEhodXl6eDk4LytQdFhjMjNTc0hSckpMRzFoZ2pHSTQxQ2o4SzZDMlhBcjhLUHBDSzVUcldSZHdaelcvT2xaMDhYV2dEazcvUnJXNmN0TmF3eXQvZWVNRS9xS3ptOE42ZjErdzIzL0FINVgvQ3V1bWd6bmlxcld0QUhMbnczWWY4K050LzM2WC9DbU40YnNQK2ZHMy83OHIvaFhUdGFqMHBodGZhZ0RtRDRic1A4QW54dHYrL0svNFUwK0hMSC9BSjhiYi92eXYrRmRPYlQycHB0UGFnRG1QK0Vkc2Y4QW54dHYrL1MvNFV3K0hMRWY4dU52L3dCK2wvd3JxRGFlMU5OcDdVQWN3ZkRsaWY4QWx4dC8rL1MvNFUzL0FJUjJ3LzU4YmY4QTc5TC9BSVYwL3dCa3BEYWUxQUhNSHc1WS93RFBqYi85K2wvd3BQOEFoSGJFZjh1TnYvMzZYL0N1bit5VWh0UGFnRG1mK0Vlc1ArZkczLzc5TC9oUi93QUk3WWY4K01IL0FINlgvQ3VsK3llMUo5a29BNXIvQUlSeXcvNThvUDhBdnl2K0ZKL3dqbGovQU0rTnYvMzZYL0N1bSt5VWZaRDZVQWN6L3dBSTVZLzgrTnYvQU4rbC93QUtVZUhMRC9ueWcvNzlML2hYU2ZaRDZVdjJTZ0RtL3dEaEhyRC9BSjhiZi92MHYrRkgvQ1BXSC9QamIvOEFmcGY4SzZUN0pTL1pQYWdEbWg0ZHNUL3k0Mi8vQUg2WC9DbmY4STdZZjgrTnYvMzZYL0N1ayt5ZTFLTFQyb0E1c2VITEgvbnh0LzhBdjB2K0ZPLzRSMncvNThiZi92MHYrRmRKOWs5cVVXdnRRQnppK0hMSC9ueHQvd0R2MHY4QWhUaDRjc1QvQU11TnQvMzZYL0N1ait5VTRXdnRRQnpnOE9XR2YrUEcyLzc5TC9oVGg0YnNQK2ZHMi83OHIvaFhSaTA5cWNMVDJvQTUwZUc3REgvSGhiLzkrVi93cVFlRzlQOEErZkcyL3dDL1MvNFYwQXRQVVZJTFVlbEFHRkQ0YzA4RWY2QmJaLzY0ci9oVzVZMmFRcXFvaW9vNktvd0JVOGR0ZzFkZ2h4Mm9BbXRvc1lyVmdUaXFrRWZTdENGY0NnQmt2VTFTbUhKb29vQXBUZFRVQkF6MG9vb0FZUU0xRlJSUUEwOWFhMUZGQURhTVVVVUFJUU1kS2JpaWlnQUlHT2xOeFJSUUFZb3hSUlFBbUI2Q2tJR2VsRkZBQUFNOUtYQTlCUlJRQXVLTVVVVUFHS2RnZWxGRkFDZ0RQU25ZSHBSUlFBWXBSMW9vb0FkVGgwb29vQWVuZXBGQTlLS0tBSkVIU3JjSTRvb29BdlJEZ1ZjaSs3UlJRQi8vMlE9PSIgaGVpZ2h0PSI3MDYiIHdpZHRoPSIyODciLz48Y2xpcFBhdGggaWQ9ImNsaXAzIj48cmVjdCBoZWlnaHQ9IjY3MjQ2NTAiIHdpZHRoPSIyNzMzNjc1IiB5PSIwIiB4PSIwIi8+PC9jbGlwUGF0aD48L2RlZnM+PGcgdHJhbnNmb3JtPSJ0cmFuc2xhdGUoLTk5IC0xMTQpIiBjbGlwLXBhdGg9InVybCgjY2xpcDApIj48ZyB0cmFuc2Zvcm09Im1hdHJpeCgwLjAwMDEwNDk4NyAwIDAgMC4wMDAxMDQ5ODcgOTkgMTE0KSIgY2xpcC1wYXRoPSJ1cmwoI2NsaXAxKSI+PGcgdHJhbnNmb3JtPSJtYXRyaXgoMSAwIDAgMS4wNTY2NiAtMC4wNjI1IDApIiBjbGlwLXBhdGg9InVybCgjY2xpcDMpIj48dXNlIHRyYW5zZm9ybT0ic2NhbGUoOTUyNSA5NTI1KSIgeGxpbms6aHJlZj0iI2ltZzIiIGhlaWdodD0iMTAwJSIgd2lkdGg9IjEwMCUiLz48L2c+PC9nPjwvZz48L3N2Zz4=;" parent="1" vertex="1">
          <mxGeometry x="677" y="1060" width="57.72" height="150" as="geometry" />
        </mxCell>
        <mxCell id="U4g4t3GBqPNwXQMgqnRA-1" value="&lt;font style=&quot;color: rgb(255, 0, 0);&quot;&gt;25/09/10 ：このフラグは設定のほうがよいかも。&lt;/font&gt;&lt;div&gt;&lt;font style=&quot;color: rgb(255, 0, 0);&quot;&gt;その方式で考える。&lt;/font&gt;&lt;/div&gt;" style="text;html=1;align=left;verticalAlign=middle;whiteSpace=wrap;rounded=0;fontColor=#009900;" vertex="1" parent="1">
          <mxGeometry x="790" y="215" width="290" height="80" as="geometry" />
        </mxCell>
      </root>
    </mxGraphModel>
  </diagram>
</mxfile>
